%TF.FileFunction,Legend,Top*%
%FSLAX46Y46*%
G04 Gerber Fmt 4.6, Leading zero omitted, Abs format (unit mm)*
G04 Created by KiCad (PCBNEW (after 2015-jan-16 BZR unknown)-product) date Mon 27 Apr 2015 12:49:16 PM CEST*
%MOMM*%
G01*
G04 APERTURE LIST*
%ADD10C,0.100000*%
%ADD11C,0.300000*%
%ADD12C,0.400000*%
%ADD13C,0.150000*%
%ADD14C,0.200000*%
%ADD15C,0.250000*%
%ADD16R,1.050000X0.600000*%
%ADD17R,0.600000X1.600000*%
%ADD18R,3.400000X2.700000*%
%ADD19R,2.400000X2.000000*%
%ADD20O,2.600000X2.000000*%
%ADD21R,2.000000X2.400000*%
%ADD22O,2.000000X2.600000*%
%ADD23C,1.100000*%
%ADD24R,1.300000X0.900000*%
%ADD25R,0.900000X1.300000*%
%ADD26R,0.800000X0.900000*%
%ADD27R,2.400000X1.100000*%
%ADD28R,0.900000X0.800000*%
%ADD29R,1.500000X1.600000*%
%ADD30R,1.200000X1.200000*%
%ADD31R,1.600000X2.100000*%
%ADD32R,1.900000X1.900000*%
%ADD33R,1.350000X0.400000*%
%ADD34R,1.900000X1.800000*%
%ADD35R,2.500000X1.800000*%
%ADD36O,2.500000X1.800000*%
%ADD37C,4.200000*%
G04 APERTURE END LIST*
D10*
D11*
X149000000Y-103321429D02*
X148714286Y-103321429D01*
X148571428Y-103250000D01*
X148428571Y-103107143D01*
X148357143Y-102821429D01*
X148357143Y-102321429D01*
X148428571Y-102035714D01*
X148571428Y-101892857D01*
X148714286Y-101821429D01*
X149000000Y-101821429D01*
X149142857Y-101892857D01*
X149285714Y-102035714D01*
X149357143Y-102321429D01*
X149357143Y-102821429D01*
X149285714Y-103107143D01*
X149142857Y-103250000D01*
X149000000Y-103321429D01*
X147714285Y-103321429D02*
X147714285Y-102107143D01*
X147642857Y-101964286D01*
X147571428Y-101892857D01*
X147428571Y-101821429D01*
X147142857Y-101821429D01*
X146999999Y-101892857D01*
X146928571Y-101964286D01*
X146857142Y-102107143D01*
X146857142Y-103321429D01*
X146357142Y-103321429D02*
X145499999Y-103321429D01*
X145928570Y-101821429D02*
X145928570Y-103321429D01*
X139607142Y-92607143D02*
X139392856Y-92535714D01*
X139321428Y-92464286D01*
X139249999Y-92321429D01*
X139249999Y-92107143D01*
X139321428Y-91964286D01*
X139392856Y-91892857D01*
X139535714Y-91821429D01*
X140107142Y-91821429D01*
X140107142Y-93321429D01*
X139607142Y-93321429D01*
X139464285Y-93250000D01*
X139392856Y-93178571D01*
X139321428Y-93035714D01*
X139321428Y-92892857D01*
X139392856Y-92750000D01*
X139464285Y-92678571D01*
X139607142Y-92607143D01*
X140107142Y-92607143D01*
X138678571Y-92250000D02*
X137964285Y-92250000D01*
X138821428Y-91821429D02*
X138321428Y-93321429D01*
X137821428Y-91821429D01*
X137535714Y-93321429D02*
X136678571Y-93321429D01*
X137107142Y-91821429D02*
X137107142Y-93321429D01*
X145000000Y-103500000D02*
G75*
G03X145000000Y-103500000I-2000000J0D01*
G01*
D12*
X143000000Y-102000000D02*
X143000000Y-105000000D01*
X141500000Y-103500000D02*
X144500000Y-103500000D01*
X137000000Y-89500000D02*
X140000000Y-89500000D01*
X138500000Y-88000000D02*
X138500000Y-91000000D01*
D11*
X140500000Y-89500000D02*
G75*
G03X140500000Y-89500000I-2000000J0D01*
G01*
D13*
X137400000Y-100000000D02*
X138350000Y-100750000D01*
X137400000Y-100000000D02*
X138150000Y-100950000D01*
X138075000Y-101025000D02*
X138425000Y-100675000D01*
X138425000Y-100675000D02*
X137400000Y-100000000D01*
X137400000Y-100000000D02*
X138075000Y-101025000D01*
X137400000Y-100000000D02*
X138250000Y-100850000D01*
X134450000Y-100250000D02*
X134450000Y-97750000D01*
X134450000Y-97750000D02*
X135550000Y-97750000D01*
X135550000Y-97750000D02*
X135550000Y-100250000D01*
X135550000Y-100250000D02*
X134450000Y-100250000D01*
X124000000Y-101100000D02*
X124000000Y-97900000D01*
X124000000Y-97900000D02*
X129000000Y-97900000D01*
X129000000Y-97900000D02*
X129000000Y-101100000D01*
X129000000Y-101100000D02*
X124000000Y-101100000D01*
X124500000Y-103300000D02*
X123750000Y-104250000D01*
X124500000Y-103300000D02*
X123550000Y-104050000D01*
X123475000Y-103975000D02*
X123825000Y-104325000D01*
X123825000Y-104325000D02*
X124500000Y-103300000D01*
X124500000Y-103300000D02*
X123475000Y-103975000D01*
X124500000Y-103300000D02*
X123650000Y-104150000D01*
X148400000Y-101300000D02*
X149400000Y-100300000D01*
X149400000Y-100300000D02*
X149400000Y-101300000D01*
X149400000Y-101300000D02*
X148400000Y-101300000D01*
X148400000Y-92700000D02*
X149400000Y-92700000D01*
X149400000Y-92700000D02*
X149400000Y-93700000D01*
X141800000Y-93700000D02*
X141800000Y-92700000D01*
X141800000Y-92700000D02*
X142800000Y-92700000D01*
X142800000Y-101300000D02*
X141800000Y-101300000D01*
X141800000Y-101300000D02*
X141800000Y-100300000D01*
X136300000Y-88600000D02*
X135300000Y-87600000D01*
X135300000Y-87600000D02*
X136300000Y-87600000D01*
X136300000Y-87600000D02*
X136300000Y-88600000D01*
X127700000Y-88600000D02*
X127700000Y-87600000D01*
X127700000Y-87600000D02*
X128700000Y-87600000D01*
X128700000Y-95200000D02*
X127700000Y-95200000D01*
X127700000Y-95200000D02*
X127700000Y-94200000D01*
X136300000Y-94200000D02*
X136300000Y-95200000D01*
X136300000Y-95200000D02*
X135300000Y-95200000D01*
D14*
X131100000Y-101200000D02*
X131100000Y-101800000D01*
X129900000Y-101800000D02*
X129900000Y-101200000D01*
X133300000Y-97100000D02*
X132700000Y-97100000D01*
X132700000Y-95900000D02*
X133300000Y-95900000D01*
X136200000Y-95900000D02*
X136800000Y-95900000D01*
X136800000Y-97100000D02*
X136200000Y-97100000D01*
D15*
X127325000Y-90000000D02*
G75*
G03X127325000Y-90000000I-125000J0D01*
G01*
D11*
X125600000Y-90450000D02*
X125600000Y-89550000D01*
D14*
X125350000Y-90500000D02*
X125650000Y-90500000D01*
X125350000Y-89500000D02*
X125650000Y-89500000D01*
D15*
X127325000Y-88500000D02*
G75*
G03X127325000Y-88500000I-125000J0D01*
G01*
D11*
X125600000Y-88950000D02*
X125600000Y-88050000D01*
D14*
X125350000Y-89000000D02*
X125650000Y-89000000D01*
X125350000Y-88000000D02*
X125650000Y-88000000D01*
X141200000Y-96000000D02*
X141200000Y-97000000D01*
X138800000Y-97000000D02*
X138800000Y-96000000D01*
X125650000Y-92500000D02*
X125350000Y-92500000D01*
X125650000Y-93500000D02*
X125350000Y-93500000D01*
X125650000Y-91000000D02*
X125350000Y-91000000D01*
X125650000Y-92000000D02*
X125350000Y-92000000D01*
X130000000Y-106350000D02*
X130000000Y-106650000D01*
X131000000Y-106350000D02*
X131000000Y-106650000D01*
X133650000Y-102000000D02*
X133350000Y-102000000D01*
X133650000Y-103000000D02*
X133350000Y-103000000D01*
X136650000Y-103500000D02*
X136350000Y-103500000D01*
X136650000Y-104500000D02*
X136350000Y-104500000D01*
D13*
X127450000Y-104400000D02*
X126050000Y-104400000D01*
X127450000Y-107600000D02*
X126050000Y-107600000D01*
D14*
X136350000Y-103000000D02*
X136650000Y-103000000D01*
X136350000Y-102000000D02*
X136650000Y-102000000D01*
D13*
X121050000Y-93600000D02*
X123050000Y-93600000D01*
X123050000Y-93600000D02*
X123050000Y-95750000D01*
X123050000Y-100250000D02*
X123050000Y-102400000D01*
X123050000Y-102400000D02*
X121100000Y-102400000D01*
X144000000Y-87500000D02*
X144000000Y-92500000D01*
X144000000Y-92500000D02*
X141000000Y-92500000D01*
X141000000Y-92500000D02*
X141000000Y-87500000D01*
X141000000Y-87500000D02*
X144000000Y-87500000D01*
X134466667Y-100616667D02*
X134466667Y-101183333D01*
X134500000Y-101250000D01*
X134533333Y-101283333D01*
X134600000Y-101316667D01*
X134733333Y-101316667D01*
X134800000Y-101283333D01*
X134833333Y-101250000D01*
X134866667Y-101183333D01*
X134866667Y-100616667D01*
X135166666Y-100683333D02*
X135200000Y-100650000D01*
X135266666Y-100616667D01*
X135433333Y-100616667D01*
X135500000Y-100650000D01*
X135533333Y-100683333D01*
X135566666Y-100750000D01*
X135566666Y-100816667D01*
X135533333Y-100916667D01*
X135133333Y-101316667D01*
X135566666Y-101316667D01*
X125882857Y-99056429D02*
X125882857Y-99712143D01*
X125921429Y-99789286D01*
X125960000Y-99827857D01*
X126037143Y-99866429D01*
X126191429Y-99866429D01*
X126268571Y-99827857D01*
X126307143Y-99789286D01*
X126345714Y-99712143D01*
X126345714Y-99056429D01*
X127155714Y-99866429D02*
X126692857Y-99866429D01*
X126924285Y-99866429D02*
X126924285Y-99056429D01*
X126847142Y-99172143D01*
X126770000Y-99249286D01*
X126692857Y-99287857D01*
X147556429Y-97270000D02*
X148135000Y-97270000D01*
X148250714Y-97308572D01*
X148327857Y-97385715D01*
X148366429Y-97501429D01*
X148366429Y-97578572D01*
X147826429Y-96537143D02*
X148366429Y-96537143D01*
X147517857Y-96730000D02*
X148096429Y-96922857D01*
X148096429Y-96421429D01*
X131730000Y-88556429D02*
X131730000Y-89135000D01*
X131691428Y-89250714D01*
X131614285Y-89327857D01*
X131498571Y-89366429D01*
X131421428Y-89366429D01*
X132077143Y-88633571D02*
X132115714Y-88595000D01*
X132192857Y-88556429D01*
X132385714Y-88556429D01*
X132462857Y-88595000D01*
X132501428Y-88633571D01*
X132540000Y-88710714D01*
X132540000Y-88787857D01*
X132501428Y-88903571D01*
X132038571Y-89366429D01*
X132540000Y-89366429D01*
X136066667Y-106966666D02*
X135733333Y-107200000D01*
X136066667Y-107366666D02*
X135366667Y-107366666D01*
X135366667Y-107100000D01*
X135400000Y-107033333D01*
X135433333Y-107000000D01*
X135500000Y-106966666D01*
X135600000Y-106966666D01*
X135666667Y-107000000D01*
X135700000Y-107033333D01*
X135733333Y-107100000D01*
X135733333Y-107366666D01*
X136066667Y-106666666D02*
X135366667Y-106666666D01*
X135366667Y-106400000D01*
X135400000Y-106333333D01*
X135433333Y-106300000D01*
X135500000Y-106266666D01*
X135600000Y-106266666D01*
X135666667Y-106300000D01*
X135700000Y-106333333D01*
X135733333Y-106400000D01*
X135733333Y-106666666D01*
X135433333Y-106000000D02*
X135400000Y-105966666D01*
X135366667Y-105900000D01*
X135366667Y-105733333D01*
X135400000Y-105666666D01*
X135433333Y-105633333D01*
X135500000Y-105600000D01*
X135566667Y-105600000D01*
X135666667Y-105633333D01*
X136066667Y-106033333D01*
X136066667Y-105600000D01*
X130383334Y-99250000D02*
X130350000Y-99283333D01*
X130250000Y-99316667D01*
X130183334Y-99316667D01*
X130083334Y-99283333D01*
X130016667Y-99216667D01*
X129983334Y-99150000D01*
X129950000Y-99016667D01*
X129950000Y-98916667D01*
X129983334Y-98783333D01*
X130016667Y-98716667D01*
X130083334Y-98650000D01*
X130183334Y-98616667D01*
X130250000Y-98616667D01*
X130350000Y-98650000D01*
X130383334Y-98683333D01*
X131050000Y-99316667D02*
X130650000Y-99316667D01*
X130850000Y-99316667D02*
X130850000Y-98616667D01*
X130783334Y-98716667D01*
X130716667Y-98783333D01*
X130650000Y-98816667D01*
X131000000Y-96616666D02*
X131033333Y-96650000D01*
X131066667Y-96750000D01*
X131066667Y-96816666D01*
X131033333Y-96916666D01*
X130966667Y-96983333D01*
X130900000Y-97016666D01*
X130766667Y-97050000D01*
X130666667Y-97050000D01*
X130533333Y-97016666D01*
X130466667Y-96983333D01*
X130400000Y-96916666D01*
X130366667Y-96816666D01*
X130366667Y-96750000D01*
X130400000Y-96650000D01*
X130433333Y-96616666D01*
X130433333Y-96350000D02*
X130400000Y-96316666D01*
X130366667Y-96250000D01*
X130366667Y-96083333D01*
X130400000Y-96016666D01*
X130433333Y-95983333D01*
X130500000Y-95950000D01*
X130566667Y-95950000D01*
X130666667Y-95983333D01*
X131066667Y-96383333D01*
X131066667Y-95950000D01*
X137383334Y-95250000D02*
X137350000Y-95283333D01*
X137250000Y-95316667D01*
X137183334Y-95316667D01*
X137083334Y-95283333D01*
X137016667Y-95216667D01*
X136983334Y-95150000D01*
X136950000Y-95016667D01*
X136950000Y-94916667D01*
X136983334Y-94783333D01*
X137016667Y-94716667D01*
X137083334Y-94650000D01*
X137183334Y-94616667D01*
X137250000Y-94616667D01*
X137350000Y-94650000D01*
X137383334Y-94683333D01*
X137616667Y-94616667D02*
X138050000Y-94616667D01*
X137816667Y-94883333D01*
X137916667Y-94883333D01*
X137983334Y-94916667D01*
X138016667Y-94950000D01*
X138050000Y-95016667D01*
X138050000Y-95183333D01*
X138016667Y-95250000D01*
X137983334Y-95283333D01*
X137916667Y-95316667D01*
X137716667Y-95316667D01*
X137650000Y-95283333D01*
X137616667Y-95250000D01*
X123816667Y-90516666D02*
X123116667Y-90516666D01*
X123116667Y-90350000D01*
X123150000Y-90250000D01*
X123216667Y-90183333D01*
X123283333Y-90150000D01*
X123416667Y-90116666D01*
X123516667Y-90116666D01*
X123650000Y-90150000D01*
X123716667Y-90183333D01*
X123783333Y-90250000D01*
X123816667Y-90350000D01*
X123816667Y-90516666D01*
X123816667Y-89450000D02*
X123816667Y-89850000D01*
X123816667Y-89650000D02*
X123116667Y-89650000D01*
X123216667Y-89716666D01*
X123283333Y-89783333D01*
X123316667Y-89850000D01*
X123816667Y-89016666D02*
X123116667Y-89016666D01*
X123116667Y-88850000D01*
X123150000Y-88750000D01*
X123216667Y-88683333D01*
X123283333Y-88650000D01*
X123416667Y-88616666D01*
X123516667Y-88616666D01*
X123650000Y-88650000D01*
X123716667Y-88683333D01*
X123783333Y-88750000D01*
X123816667Y-88850000D01*
X123816667Y-89016666D01*
X123183333Y-88350000D02*
X123150000Y-88316666D01*
X123116667Y-88250000D01*
X123116667Y-88083333D01*
X123150000Y-88016666D01*
X123183333Y-87983333D01*
X123250000Y-87950000D01*
X123316667Y-87950000D01*
X123416667Y-87983333D01*
X123816667Y-88383333D01*
X123816667Y-87950000D01*
X139883333Y-99516667D02*
X139550000Y-99516667D01*
X139550000Y-98816667D01*
X140483333Y-99516667D02*
X140083333Y-99516667D01*
X140283333Y-99516667D02*
X140283333Y-98816667D01*
X140216667Y-98916667D01*
X140150000Y-98983333D01*
X140083333Y-99016667D01*
X123816667Y-93116666D02*
X123483333Y-93350000D01*
X123816667Y-93516666D02*
X123116667Y-93516666D01*
X123116667Y-93250000D01*
X123150000Y-93183333D01*
X123183333Y-93150000D01*
X123250000Y-93116666D01*
X123350000Y-93116666D01*
X123416667Y-93150000D01*
X123450000Y-93183333D01*
X123483333Y-93250000D01*
X123483333Y-93516666D01*
X123816667Y-92450000D02*
X123816667Y-92850000D01*
X123816667Y-92650000D02*
X123116667Y-92650000D01*
X123216667Y-92716666D01*
X123283333Y-92783333D01*
X123316667Y-92850000D01*
X123816667Y-91616666D02*
X123483333Y-91850000D01*
X123816667Y-92016666D02*
X123116667Y-92016666D01*
X123116667Y-91750000D01*
X123150000Y-91683333D01*
X123183333Y-91650000D01*
X123250000Y-91616666D01*
X123350000Y-91616666D01*
X123416667Y-91650000D01*
X123450000Y-91683333D01*
X123483333Y-91750000D01*
X123483333Y-92016666D01*
X123183333Y-91350000D02*
X123150000Y-91316666D01*
X123116667Y-91250000D01*
X123116667Y-91083333D01*
X123150000Y-91016666D01*
X123183333Y-90983333D01*
X123250000Y-90950000D01*
X123316667Y-90950000D01*
X123416667Y-90983333D01*
X123816667Y-91383333D01*
X123816667Y-90950000D01*
X130383334Y-104866667D02*
X130150000Y-104533333D01*
X129983334Y-104866667D02*
X129983334Y-104166667D01*
X130250000Y-104166667D01*
X130316667Y-104200000D01*
X130350000Y-104233333D01*
X130383334Y-104300000D01*
X130383334Y-104400000D01*
X130350000Y-104466667D01*
X130316667Y-104500000D01*
X130250000Y-104533333D01*
X129983334Y-104533333D01*
X130616667Y-104166667D02*
X131050000Y-104166667D01*
X130816667Y-104433333D01*
X130916667Y-104433333D01*
X130983334Y-104466667D01*
X131016667Y-104500000D01*
X131050000Y-104566667D01*
X131050000Y-104733333D01*
X131016667Y-104800000D01*
X130983334Y-104833333D01*
X130916667Y-104866667D01*
X130716667Y-104866667D01*
X130650000Y-104833333D01*
X130616667Y-104800000D01*
X132633334Y-104316667D02*
X132400000Y-103983333D01*
X132233334Y-104316667D02*
X132233334Y-103616667D01*
X132500000Y-103616667D01*
X132566667Y-103650000D01*
X132600000Y-103683333D01*
X132633334Y-103750000D01*
X132633334Y-103850000D01*
X132600000Y-103916667D01*
X132566667Y-103950000D01*
X132500000Y-103983333D01*
X132233334Y-103983333D01*
X133233334Y-103850000D02*
X133233334Y-104316667D01*
X133066667Y-103583333D02*
X132900000Y-104083333D01*
X133333334Y-104083333D01*
X138883334Y-104316667D02*
X138650000Y-103983333D01*
X138483334Y-104316667D02*
X138483334Y-103616667D01*
X138750000Y-103616667D01*
X138816667Y-103650000D01*
X138850000Y-103683333D01*
X138883334Y-103750000D01*
X138883334Y-103850000D01*
X138850000Y-103916667D01*
X138816667Y-103950000D01*
X138750000Y-103983333D01*
X138483334Y-103983333D01*
X139516667Y-103616667D02*
X139183334Y-103616667D01*
X139150000Y-103950000D01*
X139183334Y-103916667D01*
X139250000Y-103883333D01*
X139416667Y-103883333D01*
X139483334Y-103916667D01*
X139516667Y-103950000D01*
X139550000Y-104016667D01*
X139550000Y-104183333D01*
X139516667Y-104250000D01*
X139483334Y-104283333D01*
X139416667Y-104316667D01*
X139250000Y-104316667D01*
X139183334Y-104283333D01*
X139150000Y-104250000D01*
X123816667Y-107966666D02*
X123483333Y-108200000D01*
X123816667Y-108366666D02*
X123116667Y-108366666D01*
X123116667Y-108100000D01*
X123150000Y-108033333D01*
X123183333Y-108000000D01*
X123250000Y-107966666D01*
X123350000Y-107966666D01*
X123416667Y-108000000D01*
X123450000Y-108033333D01*
X123483333Y-108100000D01*
X123483333Y-108366666D01*
X123816667Y-107666666D02*
X123116667Y-107666666D01*
X123116667Y-107400000D01*
X123150000Y-107333333D01*
X123183333Y-107300000D01*
X123250000Y-107266666D01*
X123350000Y-107266666D01*
X123416667Y-107300000D01*
X123450000Y-107333333D01*
X123483333Y-107400000D01*
X123483333Y-107666666D01*
X123816667Y-106600000D02*
X123816667Y-107000000D01*
X123816667Y-106800000D02*
X123116667Y-106800000D01*
X123216667Y-106866666D01*
X123283333Y-106933333D01*
X123316667Y-107000000D01*
X138883334Y-102750000D02*
X138850000Y-102783333D01*
X138750000Y-102816667D01*
X138683334Y-102816667D01*
X138583334Y-102783333D01*
X138516667Y-102716667D01*
X138483334Y-102650000D01*
X138450000Y-102516667D01*
X138450000Y-102416667D01*
X138483334Y-102283333D01*
X138516667Y-102216667D01*
X138583334Y-102150000D01*
X138683334Y-102116667D01*
X138750000Y-102116667D01*
X138850000Y-102150000D01*
X138883334Y-102183333D01*
X139483334Y-102350000D02*
X139483334Y-102816667D01*
X139316667Y-102083333D02*
X139150000Y-102583333D01*
X139583334Y-102583333D01*
X118766667Y-103116667D02*
X118766667Y-103616667D01*
X118733333Y-103716667D01*
X118666667Y-103783333D01*
X118566667Y-103816667D01*
X118500000Y-103816667D01*
X119466666Y-103816667D02*
X119066666Y-103816667D01*
X119266666Y-103816667D02*
X119266666Y-103116667D01*
X119200000Y-103216667D01*
X119133333Y-103283333D01*
X119066666Y-103316667D01*
X144783333Y-91533333D02*
X144816667Y-91433333D01*
X144816667Y-91266666D01*
X144783333Y-91199999D01*
X144750000Y-91166666D01*
X144683333Y-91133333D01*
X144616667Y-91133333D01*
X144550000Y-91166666D01*
X144516667Y-91199999D01*
X144483333Y-91266666D01*
X144450000Y-91399999D01*
X144416667Y-91466666D01*
X144383333Y-91499999D01*
X144316667Y-91533333D01*
X144250000Y-91533333D01*
X144183333Y-91499999D01*
X144150000Y-91466666D01*
X144116667Y-91399999D01*
X144116667Y-91233333D01*
X144150000Y-91133333D01*
X144450000Y-90833332D02*
X144450000Y-90599999D01*
X144816667Y-90499999D02*
X144816667Y-90833332D01*
X144116667Y-90833332D01*
X144116667Y-90499999D01*
X144816667Y-90199999D02*
X144116667Y-90199999D01*
X144816667Y-89799999D01*
X144116667Y-89799999D01*
X144783333Y-89500000D02*
X144816667Y-89400000D01*
X144816667Y-89233333D01*
X144783333Y-89166666D01*
X144750000Y-89133333D01*
X144683333Y-89100000D01*
X144616667Y-89100000D01*
X144550000Y-89133333D01*
X144516667Y-89166666D01*
X144483333Y-89233333D01*
X144450000Y-89366666D01*
X144416667Y-89433333D01*
X144383333Y-89466666D01*
X144316667Y-89500000D01*
X144250000Y-89500000D01*
X144183333Y-89466666D01*
X144150000Y-89433333D01*
X144116667Y-89366666D01*
X144116667Y-89200000D01*
X144150000Y-89100000D01*
X144450000Y-88799999D02*
X144450000Y-88566666D01*
X144816667Y-88466666D02*
X144816667Y-88799999D01*
X144116667Y-88799999D01*
X144116667Y-88466666D01*
%LPC*%
D16*
X136350000Y-99950000D03*
X136350000Y-99000000D03*
X136350000Y-98050000D03*
X133650000Y-98050000D03*
X133650000Y-99950000D03*
D17*
X124595000Y-102200000D03*
X125865000Y-102200000D03*
X127135000Y-102200000D03*
X128405000Y-102200000D03*
X128405000Y-96800000D03*
X127135000Y-96800000D03*
X125865000Y-96800000D03*
X124595000Y-96800000D03*
D18*
X126500000Y-99500000D03*
D19*
X145500000Y-98750000D03*
D20*
X145500000Y-95250000D03*
D21*
X133750000Y-91500000D03*
D22*
X130250000Y-91500000D03*
D23*
X134500000Y-106500000D03*
X137000000Y-106500000D03*
X139500000Y-106500000D03*
D24*
X130500000Y-102500000D03*
X130500000Y-100500000D03*
D25*
X132000000Y-96500000D03*
X134000000Y-96500000D03*
X137500000Y-96500000D03*
X135500000Y-96500000D03*
D26*
X124700000Y-90000000D03*
X126300000Y-90000000D03*
X124700000Y-88500000D03*
X126300000Y-88500000D03*
D27*
X140000000Y-97800000D03*
X140000000Y-95200000D03*
D26*
X126300000Y-93000000D03*
X124700000Y-93000000D03*
X126300000Y-91500000D03*
X124700000Y-91500000D03*
D28*
X130500000Y-105700000D03*
X130500000Y-107300000D03*
D26*
X134300000Y-102500000D03*
X132700000Y-102500000D03*
X137300000Y-104000000D03*
X135700000Y-104000000D03*
D29*
X125050000Y-106000000D03*
D30*
X128300000Y-107000000D03*
X128300000Y-105000000D03*
D26*
X135700000Y-102500000D03*
X137300000Y-102500000D03*
D31*
X122000000Y-94900000D03*
X122000000Y-101100000D03*
D32*
X119450000Y-96800000D03*
X119450000Y-99200000D03*
D33*
X122125000Y-96700000D03*
X122125000Y-97350000D03*
X122125000Y-98000000D03*
X122125000Y-98650000D03*
X122125000Y-99300000D03*
D34*
X119450000Y-94200000D03*
X119450000Y-101800000D03*
D35*
X142500000Y-88730000D03*
D36*
X142500000Y-91270000D03*
D37*
X121000000Y-90000000D03*
X147000000Y-106000000D03*
X147000000Y-90000000D03*
X121000000Y-106000000D03*
D13*
G36*
X143575000Y-91325000D02*
X141425000Y-91325000D01*
X141425000Y-89425000D01*
X143575000Y-89425000D01*
X143575000Y-91325000D01*
X143575000Y-91325000D01*
G37*
X143575000Y-91325000D02*
X141425000Y-91325000D01*
X141425000Y-89425000D01*
X143575000Y-89425000D01*
X143575000Y-91325000D01*
M02*
