%TF.FileFunction,Paste,Top*%
%FSLAX46Y46*%
G04 Gerber Fmt 4.6, Leading zero omitted, Abs format (unit mm)*
G04 Created by KiCad (PCBNEW (after 2015-jan-16 BZR unknown)-product) date Mon 27 Apr 2015 12:49:16 PM CEST*
%MOMM*%
G01*
G04 APERTURE LIST*
%ADD10C,0.100000*%
%ADD11R,1.050000X0.600000*%
%ADD12R,3.400000X2.700000*%
%ADD13R,1.300000X0.900000*%
%ADD14R,0.900000X1.300000*%
%ADD15R,0.800000X0.900000*%
%ADD16R,2.400000X1.100000*%
%ADD17R,0.900000X0.800000*%
%ADD18R,1.500000X1.600000*%
%ADD19R,1.200000X1.200000*%
%ADD20R,1.600000X2.100000*%
%ADD21R,1.900000X1.900000*%
%ADD22R,1.350000X0.400000*%
%ADD23R,1.900000X1.800000*%
G04 APERTURE END LIST*
D10*
D11*
X136350000Y-99950000D03*
X136350000Y-99000000D03*
X136350000Y-98050000D03*
X133650000Y-98050000D03*
X133650000Y-99950000D03*
D12*
X126500000Y-99500000D03*
D13*
X130500000Y-102500000D03*
X130500000Y-100500000D03*
D14*
X132000000Y-96500000D03*
X134000000Y-96500000D03*
X137500000Y-96500000D03*
X135500000Y-96500000D03*
D15*
X124700000Y-90000000D03*
X126300000Y-90000000D03*
X124700000Y-88500000D03*
X126300000Y-88500000D03*
D16*
X140000000Y-97800000D03*
X140000000Y-95200000D03*
D15*
X126300000Y-93000000D03*
X124700000Y-93000000D03*
X126300000Y-91500000D03*
X124700000Y-91500000D03*
D17*
X130500000Y-105700000D03*
X130500000Y-107300000D03*
D15*
X134300000Y-102500000D03*
X132700000Y-102500000D03*
X137300000Y-104000000D03*
X135700000Y-104000000D03*
D18*
X125050000Y-106000000D03*
D19*
X128300000Y-107000000D03*
X128300000Y-105000000D03*
D15*
X135700000Y-102500000D03*
X137300000Y-102500000D03*
D20*
X122000000Y-94900000D03*
X122000000Y-101100000D03*
D21*
X119450000Y-96800000D03*
X119450000Y-99200000D03*
D22*
X122125000Y-96700000D03*
X122125000Y-97350000D03*
X122125000Y-98000000D03*
X122125000Y-98650000D03*
X122125000Y-99300000D03*
D23*
X119450000Y-94200000D03*
X119450000Y-101800000D03*
M02*
