%TF.FileFunction,Soldermask,Top*%
%FSLAX46Y46*%
G04 Gerber Fmt 4.6, Leading zero omitted, Abs format (unit mm)*
G04 Created by KiCad (PCBNEW (after 2015-jan-16 BZR unknown)-product) date Mon 27 Apr 2015 12:49:16 PM CEST*
%MOMM*%
G01*
G04 APERTURE LIST*
%ADD10C,0.100000*%
%ADD11R,1.050000X0.600000*%
%ADD12R,0.600000X1.600000*%
%ADD13R,3.400000X2.700000*%
%ADD14R,2.400000X2.000000*%
%ADD15O,2.600000X2.000000*%
%ADD16R,2.000000X2.400000*%
%ADD17O,2.000000X2.600000*%
%ADD18C,1.100000*%
%ADD19R,1.300000X0.900000*%
%ADD20R,0.900000X1.300000*%
%ADD21R,0.800000X0.900000*%
%ADD22R,2.400000X1.100000*%
%ADD23R,0.900000X0.800000*%
%ADD24R,1.500000X1.600000*%
%ADD25R,1.200000X1.200000*%
%ADD26R,1.600000X2.100000*%
%ADD27R,1.900000X1.900000*%
%ADD28R,1.350000X0.400000*%
%ADD29R,1.900000X1.800000*%
%ADD30R,2.500000X1.800000*%
%ADD31O,2.500000X1.800000*%
%ADD32C,4.200000*%
%ADD33C,0.150000*%
G04 APERTURE END LIST*
D10*
D11*
X136350000Y-99950000D03*
X136350000Y-99000000D03*
X136350000Y-98050000D03*
X133650000Y-98050000D03*
X133650000Y-99950000D03*
D12*
X124595000Y-102200000D03*
X125865000Y-102200000D03*
X127135000Y-102200000D03*
X128405000Y-102200000D03*
X128405000Y-96800000D03*
X127135000Y-96800000D03*
X125865000Y-96800000D03*
X124595000Y-96800000D03*
D13*
X126500000Y-99500000D03*
D14*
X145500000Y-98750000D03*
D15*
X145500000Y-95250000D03*
D16*
X133750000Y-91500000D03*
D17*
X130250000Y-91500000D03*
D18*
X134500000Y-106500000D03*
X137000000Y-106500000D03*
X139500000Y-106500000D03*
D19*
X130500000Y-102500000D03*
X130500000Y-100500000D03*
D20*
X132000000Y-96500000D03*
X134000000Y-96500000D03*
X137500000Y-96500000D03*
X135500000Y-96500000D03*
D21*
X124700000Y-90000000D03*
X126300000Y-90000000D03*
X124700000Y-88500000D03*
X126300000Y-88500000D03*
D22*
X140000000Y-97800000D03*
X140000000Y-95200000D03*
D21*
X126300000Y-93000000D03*
X124700000Y-93000000D03*
X126300000Y-91500000D03*
X124700000Y-91500000D03*
D23*
X130500000Y-105700000D03*
X130500000Y-107300000D03*
D21*
X134300000Y-102500000D03*
X132700000Y-102500000D03*
X137300000Y-104000000D03*
X135700000Y-104000000D03*
D24*
X125050000Y-106000000D03*
D25*
X128300000Y-107000000D03*
X128300000Y-105000000D03*
D21*
X135700000Y-102500000D03*
X137300000Y-102500000D03*
D26*
X122000000Y-94900000D03*
X122000000Y-101100000D03*
D27*
X119450000Y-96800000D03*
X119450000Y-99200000D03*
D28*
X122125000Y-96700000D03*
X122125000Y-97350000D03*
X122125000Y-98000000D03*
X122125000Y-98650000D03*
X122125000Y-99300000D03*
D29*
X119450000Y-94200000D03*
X119450000Y-101800000D03*
D30*
X142500000Y-88730000D03*
D31*
X142500000Y-91270000D03*
D32*
X121000000Y-90000000D03*
X147000000Y-106000000D03*
X147000000Y-90000000D03*
X121000000Y-106000000D03*
D33*
G36*
X143575000Y-91325000D02*
X141425000Y-91325000D01*
X141425000Y-89425000D01*
X143575000Y-89425000D01*
X143575000Y-91325000D01*
X143575000Y-91325000D01*
G37*
X143575000Y-91325000D02*
X141425000Y-91325000D01*
X141425000Y-89425000D01*
X143575000Y-89425000D01*
X143575000Y-91325000D01*
M02*
