%TF.FileFunction,Soldermask,Bot*%
%FSLAX46Y46*%
G04 Gerber Fmt 4.6, Leading zero omitted, Abs format (unit mm)*
G04 Created by KiCad (PCBNEW (after 2015-jan-16 BZR unknown)-product) date Mon 27 Apr 2015 12:49:16 PM CEST*
%MOMM*%
G01*
G04 APERTURE LIST*
%ADD10C,0.100000*%
%ADD11C,0.150000*%
%ADD12R,2.400000X2.000000*%
%ADD13O,2.600000X2.000000*%
%ADD14R,2.000000X2.400000*%
%ADD15O,2.000000X2.600000*%
%ADD16C,1.100000*%
%ADD17R,2.500000X1.800000*%
%ADD18O,2.500000X1.800000*%
%ADD19C,4.200000*%
G04 APERTURE END LIST*
D10*
D11*
X143357142Y-105500000D02*
X143285714Y-105428571D01*
X143142857Y-105214286D01*
X143071428Y-105071429D01*
X142999999Y-104857143D01*
X142928571Y-104500000D01*
X142928571Y-104214286D01*
X142999999Y-103857143D01*
X143071428Y-103642857D01*
X143142857Y-103500000D01*
X143285714Y-103285714D01*
X143357142Y-103214286D01*
X142285714Y-104857143D02*
X142142857Y-104928571D01*
X141857142Y-104928571D01*
X141714285Y-104857143D01*
X141642857Y-104714286D01*
X141642857Y-104642857D01*
X141714285Y-104500000D01*
X141857142Y-104428571D01*
X142071428Y-104428571D01*
X142214285Y-104357143D01*
X142285714Y-104214286D01*
X142285714Y-104142857D01*
X142214285Y-104000000D01*
X142071428Y-103928571D01*
X141857142Y-103928571D01*
X141714285Y-104000000D01*
X140357142Y-104928571D02*
X140357142Y-104142857D01*
X140428571Y-104000000D01*
X140571428Y-103928571D01*
X140857142Y-103928571D01*
X140999999Y-104000000D01*
X140357142Y-104857143D02*
X140499999Y-104928571D01*
X140857142Y-104928571D01*
X140999999Y-104857143D01*
X141071428Y-104714286D01*
X141071428Y-104571429D01*
X140999999Y-104428571D01*
X140857142Y-104357143D01*
X140499999Y-104357143D01*
X140357142Y-104285714D01*
X139857142Y-103928571D02*
X139285713Y-103928571D01*
X139642856Y-103428571D02*
X139642856Y-104714286D01*
X139571428Y-104857143D01*
X139428570Y-104928571D01*
X139285713Y-104928571D01*
X138214285Y-104857143D02*
X138357142Y-104928571D01*
X138642856Y-104928571D01*
X138785713Y-104857143D01*
X138857142Y-104714286D01*
X138857142Y-104142857D01*
X138785713Y-104000000D01*
X138642856Y-103928571D01*
X138357142Y-103928571D01*
X138214285Y-104000000D01*
X138142856Y-104142857D01*
X138142856Y-104285714D01*
X138857142Y-104428571D01*
X137285713Y-104928571D02*
X137428571Y-104857143D01*
X137499999Y-104714286D01*
X137499999Y-103428571D01*
X136499999Y-104928571D02*
X136642857Y-104857143D01*
X136714285Y-104714286D01*
X136714285Y-103428571D01*
X135928571Y-104928571D02*
X135928571Y-103928571D01*
X135928571Y-103428571D02*
X136000000Y-103500000D01*
X135928571Y-103571429D01*
X135857143Y-103500000D01*
X135928571Y-103428571D01*
X135928571Y-103571429D01*
X135428571Y-103928571D02*
X134857142Y-103928571D01*
X135214285Y-103428571D02*
X135214285Y-104714286D01*
X135142857Y-104857143D01*
X134999999Y-104928571D01*
X134857142Y-104928571D01*
X133785714Y-104857143D02*
X133928571Y-104928571D01*
X134214285Y-104928571D01*
X134357142Y-104857143D01*
X134428571Y-104714286D01*
X134428571Y-104142857D01*
X134357142Y-104000000D01*
X134214285Y-103928571D01*
X133928571Y-103928571D01*
X133785714Y-104000000D01*
X133714285Y-104142857D01*
X133714285Y-104285714D01*
X134428571Y-104428571D01*
X132642857Y-105500000D02*
X132714285Y-105428571D01*
X132857142Y-105214286D01*
X132928571Y-105071429D01*
X133000000Y-104857143D01*
X133071428Y-104500000D01*
X133071428Y-104214286D01*
X133000000Y-103857143D01*
X132928571Y-103642857D01*
X132857142Y-103500000D01*
X132714285Y-103285714D01*
X132642857Y-103214286D01*
D12*
X145500000Y-98750000D03*
D13*
X145500000Y-95250000D03*
D14*
X133750000Y-91500000D03*
D15*
X130250000Y-91500000D03*
D16*
X134500000Y-106500000D03*
X137000000Y-106500000D03*
X139500000Y-106500000D03*
D17*
X142500000Y-88730000D03*
D18*
X142500000Y-91270000D03*
D19*
X121000000Y-90000000D03*
X147000000Y-106000000D03*
X147000000Y-90000000D03*
X121000000Y-106000000D03*
M02*
