M48
;DRILL file {kicad (after 2015-jan-16 BZR unknown)-product} date Mon 27 Apr 2015 12:49:19 PM CEST
;FORMAT={-:-/ absolute / metric / decimal}
FMAT,2
METRIC,TZ
T1C0.300
T2C0.600
T3C1.000
T4C1.200
T5C2.500
%
G90
G05
M71
T1
X123.5Y-96.
X123.5Y-97.
X123.5Y-98.5
X123.5Y-99.5
X123.5Y-100.5
X124.5Y-98.5
X124.5Y-99.5
X124.5Y-100.5
X128.5Y-98.5
X128.5Y-99.5
X128.5Y-100.5
X128.75Y-103.75
X129.5Y-98.5
X129.5Y-99.5
X129.5Y-100.5
X129.75Y-103.75
X130.75Y-103.75
X133.Y-96.5
X134.25Y-95.
X135.25Y-95.
X136.25Y-95.
X137.5Y-99.
X137.5Y-100.
X138.5Y-99.
X138.5Y-100.
T2
X134.5Y-106.5
X137.Y-106.5
X139.5Y-106.5
T3
X142.5Y-88.73
X142.5Y-91.27
T4
X130.25Y-91.5
X133.75Y-91.5
X145.5Y-95.25
X145.5Y-98.75
T5
X121.Y-90.
X121.Y-106.
X147.Y-90.
X147.Y-106.
T0
M30
