%TF.FileFunction,Copper,L1,Top,Signal*%
%FSLAX46Y46*%
G04 Gerber Fmt 4.6, Leading zero omitted, Abs format (unit mm)*
G04 Created by KiCad (PCBNEW (after 2015-jan-16 BZR unknown)-product) date Mon 27 Apr 2015 12:49:16 PM CEST*
%MOMM*%
G01*
G04 APERTURE LIST*
%ADD10C,0.100000*%
%ADD11R,1.050000X0.600000*%
%ADD12R,0.600000X1.600000*%
%ADD13R,3.400000X2.700000*%
%ADD14R,2.400000X2.000000*%
%ADD15O,2.600000X2.000000*%
%ADD16R,2.000000X2.400000*%
%ADD17O,2.000000X2.600000*%
%ADD18C,1.100000*%
%ADD19R,1.300000X0.900000*%
%ADD20R,0.900000X1.300000*%
%ADD21R,0.800000X0.900000*%
%ADD22R,2.400000X1.100000*%
%ADD23R,0.900000X0.800000*%
%ADD24R,1.500000X1.600000*%
%ADD25R,1.200000X1.200000*%
%ADD26R,1.600000X2.100000*%
%ADD27R,1.900000X1.900000*%
%ADD28R,1.350000X0.400000*%
%ADD29R,1.900000X1.800000*%
%ADD30R,2.500000X1.800000*%
%ADD31O,2.500000X1.800000*%
%ADD32C,4.200000*%
%ADD33C,2.500000*%
%ADD34C,0.600000*%
%ADD35C,0.150000*%
%ADD36C,1.000000*%
G04 APERTURE END LIST*
D10*
D11*
X136350000Y-99950000D03*
X136350000Y-99000000D03*
X136350000Y-98050000D03*
X133650000Y-98050000D03*
X133650000Y-99950000D03*
D12*
X124595000Y-102200000D03*
X125865000Y-102200000D03*
X127135000Y-102200000D03*
X128405000Y-102200000D03*
X128405000Y-96800000D03*
X127135000Y-96800000D03*
X125865000Y-96800000D03*
X124595000Y-96800000D03*
D13*
X126500000Y-99500000D03*
D14*
X145500000Y-98750000D03*
D15*
X145500000Y-95250000D03*
D16*
X133750000Y-91500000D03*
D17*
X130250000Y-91500000D03*
D18*
X134500000Y-106500000D03*
X137000000Y-106500000D03*
X139500000Y-106500000D03*
D19*
X130500000Y-102500000D03*
X130500000Y-100500000D03*
D20*
X132000000Y-96500000D03*
X134000000Y-96500000D03*
X137500000Y-96500000D03*
X135500000Y-96500000D03*
D21*
X124700000Y-90000000D03*
X126300000Y-90000000D03*
X124700000Y-88500000D03*
X126300000Y-88500000D03*
D22*
X140000000Y-97800000D03*
X140000000Y-95200000D03*
D21*
X126300000Y-93000000D03*
X124700000Y-93000000D03*
X126300000Y-91500000D03*
X124700000Y-91500000D03*
D23*
X130500000Y-105700000D03*
X130500000Y-107300000D03*
D21*
X134300000Y-102500000D03*
X132700000Y-102500000D03*
X137300000Y-104000000D03*
X135700000Y-104000000D03*
D24*
X125050000Y-106000000D03*
D25*
X128300000Y-107000000D03*
X128300000Y-105000000D03*
D21*
X135700000Y-102500000D03*
X137300000Y-102500000D03*
D26*
X122000000Y-94900000D03*
X122000000Y-101100000D03*
D27*
X119450000Y-96800000D03*
X119450000Y-99200000D03*
D28*
X122125000Y-96700000D03*
X122125000Y-97350000D03*
X122125000Y-98000000D03*
X122125000Y-98650000D03*
X122125000Y-99300000D03*
D29*
X119450000Y-94200000D03*
X119450000Y-101800000D03*
D30*
X142500000Y-88730000D03*
D31*
X142500000Y-91270000D03*
D32*
X121000000Y-90000000D03*
D33*
X121000000Y-90000000D03*
D32*
X147000000Y-106000000D03*
D33*
X147000000Y-106000000D03*
D32*
X147000000Y-90000000D03*
D33*
X147000000Y-90000000D03*
D32*
X121000000Y-106000000D03*
D33*
X121000000Y-106000000D03*
D34*
X123500000Y-97000000D03*
X123500000Y-96000000D03*
X130750000Y-103750000D03*
X129750000Y-103750000D03*
X128750000Y-103750000D03*
X123500000Y-98500000D03*
X123500000Y-99500000D03*
X123500000Y-100500000D03*
X129500000Y-98500000D03*
X129500000Y-99500000D03*
X129500000Y-100500000D03*
X124500000Y-98500000D03*
X124500000Y-99500000D03*
X124500000Y-100500000D03*
X128500000Y-98500000D03*
X128500000Y-99500000D03*
X128500000Y-100500000D03*
X138500000Y-99000000D03*
X137500000Y-99000000D03*
X136250000Y-95000000D03*
X135250000Y-95000000D03*
X134250000Y-95000000D03*
X138500000Y-100000000D03*
X137500000Y-100000000D03*
X133000000Y-96500000D03*
D35*
X130500000Y-102500000D02*
X130750000Y-102750000D01*
X124700000Y-90000000D02*
X124700000Y-88500000D01*
X123500000Y-91200000D02*
X124700000Y-90000000D01*
X123500000Y-96000000D02*
X123500000Y-97000000D01*
X123500000Y-96000000D02*
X123500000Y-91200000D01*
X130750000Y-102750000D02*
X130750000Y-103750000D01*
X129750000Y-103750000D02*
X128750000Y-103750000D01*
X123700000Y-96800000D02*
X123500000Y-97000000D01*
X124595000Y-96800000D02*
X123700000Y-96800000D01*
X128405000Y-103405000D02*
X128750000Y-103750000D01*
X128405000Y-102200000D02*
X128405000Y-103405000D01*
X123200000Y-99300000D02*
X123500000Y-99000000D01*
X123500000Y-99000000D02*
X123500000Y-98500000D01*
X123500000Y-99500000D02*
X123500000Y-100500000D01*
X122125000Y-99300000D02*
X123200000Y-99300000D01*
X129500000Y-99500000D02*
X129500000Y-100500000D01*
X124500000Y-98500000D02*
X124500000Y-99500000D01*
X128500000Y-100500000D02*
X128500000Y-99500000D01*
X128500000Y-98500000D02*
X129500000Y-98500000D01*
X136350000Y-99000000D02*
X137500000Y-99000000D01*
X135250000Y-95000000D02*
X136250000Y-95000000D01*
X134000000Y-95250000D02*
X134250000Y-95000000D01*
X134000000Y-96500000D02*
X134000000Y-95250000D01*
X137500000Y-100000000D02*
X138500000Y-100000000D01*
X134000000Y-96500000D02*
X133000000Y-96500000D01*
X133650000Y-98650000D02*
X133650000Y-98050000D01*
X134950000Y-99950000D02*
X133650000Y-98650000D01*
X136350000Y-99950000D02*
X134950000Y-99950000D01*
D36*
X142270000Y-88730000D02*
X142500000Y-88730000D01*
X140000000Y-89100000D02*
X140370000Y-88730000D01*
X140370000Y-88730000D02*
X142500000Y-88730000D01*
X140000000Y-95200000D02*
X140000000Y-89100000D01*
D35*
X137500000Y-96500000D02*
X137500000Y-96450000D01*
D36*
X142500000Y-95750000D02*
X145500000Y-98750000D01*
X142500000Y-91270000D02*
X142500000Y-95750000D01*
D35*
X137300000Y-104300000D02*
X139500000Y-106500000D01*
X137300000Y-104000000D02*
X137300000Y-104300000D01*
X137300000Y-104000000D02*
X137300000Y-102500000D01*
X141750000Y-102500000D02*
X137300000Y-102500000D01*
X145500000Y-98750000D02*
X141750000Y-102500000D01*
X142500000Y-88730000D02*
X142500000Y-91270000D01*
X126300000Y-91500000D02*
X126300000Y-90000000D01*
X125500000Y-92200000D02*
X125500000Y-89300000D01*
X125500000Y-89300000D02*
X126300000Y-88500000D01*
X126300000Y-93000000D02*
X125500000Y-92200000D01*
X129000000Y-105700000D02*
X128300000Y-105000000D01*
X130500000Y-105700000D02*
X129000000Y-105700000D01*
X139750000Y-98050000D02*
X140000000Y-97800000D01*
X133650000Y-101850000D02*
X133650000Y-99950000D01*
X134300000Y-102500000D02*
X133650000Y-101850000D01*
X134300000Y-102500000D02*
X135700000Y-102500000D01*
X135700000Y-102500000D02*
X135700000Y-104000000D01*
X134500000Y-106500000D02*
X137000000Y-106500000D01*
X135700000Y-105200000D02*
X137000000Y-106500000D01*
X135700000Y-104000000D02*
X135700000Y-105200000D01*
X125865000Y-105185000D02*
X125050000Y-106000000D01*
X125865000Y-102200000D02*
X125865000Y-105185000D01*
X127300000Y-106000000D02*
X128300000Y-107000000D01*
X125050000Y-106000000D02*
X127300000Y-106000000D01*
X124700000Y-93700000D02*
X124700000Y-93000000D01*
X127135000Y-96135000D02*
X124700000Y-93700000D01*
X127135000Y-96800000D02*
X127135000Y-96135000D01*
X125865000Y-95365000D02*
X124000000Y-93500000D01*
X124000000Y-93500000D02*
X124000000Y-92200000D01*
X124000000Y-92200000D02*
X124700000Y-91500000D01*
X125865000Y-96800000D02*
X125865000Y-95365000D01*
G36*
X124425000Y-97425000D02*
X123075000Y-97425000D01*
X123075000Y-96925000D01*
X122807679Y-96925000D01*
X122800000Y-96923911D01*
X121575000Y-96923911D01*
X121575000Y-96575000D01*
X123075000Y-96575000D01*
X123075000Y-95575000D01*
X124425000Y-95575000D01*
X124425000Y-97425000D01*
X124425000Y-97425000D01*
G37*
X124425000Y-97425000D02*
X123075000Y-97425000D01*
X123075000Y-96925000D01*
X122807679Y-96925000D01*
X122800000Y-96923911D01*
X121575000Y-96923911D01*
X121575000Y-96575000D01*
X123075000Y-96575000D01*
X123075000Y-95575000D01*
X124425000Y-95575000D01*
X124425000Y-97425000D01*
G36*
X131075000Y-104175000D02*
X128907679Y-104175000D01*
X128900000Y-104173911D01*
X128175000Y-104173911D01*
X128175000Y-103013600D01*
X128729327Y-101535393D01*
X129318934Y-102125000D01*
X129826572Y-102125000D01*
X131075000Y-102989296D01*
X131075000Y-104175000D01*
X131075000Y-104175000D01*
G37*
X131075000Y-104175000D02*
X128907679Y-104175000D01*
X128900000Y-104173911D01*
X128175000Y-104173911D01*
X128175000Y-103013600D01*
X128729327Y-101535393D01*
X129318934Y-102125000D01*
X129826572Y-102125000D01*
X131075000Y-102989296D01*
X131075000Y-104175000D01*
G36*
X141125000Y-98275000D02*
X135925000Y-98275000D01*
X135925000Y-97825000D01*
X136850000Y-97825000D01*
X138331066Y-97825000D01*
X138831066Y-97325000D01*
X141125000Y-97325000D01*
X141125000Y-98275000D01*
X141125000Y-98275000D01*
G37*
X141125000Y-98275000D02*
X135925000Y-98275000D01*
X135925000Y-97825000D01*
X136850000Y-97825000D01*
X138331066Y-97825000D01*
X138831066Y-97325000D01*
X141125000Y-97325000D01*
X141125000Y-98275000D01*
G36*
X149725000Y-108725000D02*
X149375102Y-108725000D01*
X149375102Y-105767119D01*
X149375102Y-89767119D01*
X149284635Y-89310228D01*
X149107147Y-88879610D01*
X148849399Y-88491667D01*
X148521207Y-88161176D01*
X148135073Y-87900726D01*
X147705705Y-87720236D01*
X147249456Y-87626581D01*
X146783706Y-87623330D01*
X146326194Y-87710605D01*
X145894348Y-87885082D01*
X145504615Y-88140116D01*
X145171841Y-88465993D01*
X144908701Y-88850299D01*
X144725218Y-89278397D01*
X144628381Y-89733980D01*
X144621878Y-90199697D01*
X144705957Y-90657806D01*
X144877415Y-91090861D01*
X145129722Y-91482364D01*
X145453267Y-91817405D01*
X145835727Y-92083222D01*
X146262533Y-92269689D01*
X146717430Y-92369704D01*
X147183089Y-92379458D01*
X147641775Y-92298580D01*
X148076016Y-92130149D01*
X148469271Y-91880581D01*
X148806563Y-91559383D01*
X149075043Y-91178788D01*
X149264485Y-90753294D01*
X149367674Y-90299107D01*
X149375102Y-89767119D01*
X149375102Y-105767119D01*
X149284635Y-105310228D01*
X149107147Y-104879610D01*
X148849399Y-104491667D01*
X148521207Y-104161176D01*
X148135073Y-103900726D01*
X147705705Y-103720236D01*
X147249456Y-103626581D01*
X147119651Y-103625674D01*
X147119651Y-95636194D01*
X147119651Y-94863806D01*
X147115536Y-94805615D01*
X147003563Y-94557505D01*
X146845338Y-94336008D01*
X146646941Y-94149635D01*
X146415997Y-94005548D01*
X146161380Y-93909285D01*
X145892876Y-93864545D01*
X145675000Y-93960823D01*
X145675000Y-95075000D01*
X147069243Y-95075000D01*
X147119651Y-94863806D01*
X147119651Y-95636194D01*
X147069243Y-95425000D01*
X145675000Y-95425000D01*
X145675000Y-96539177D01*
X145892876Y-96635455D01*
X146161380Y-96590715D01*
X146415997Y-96494452D01*
X146646941Y-96350365D01*
X146845338Y-96163992D01*
X147003563Y-95942495D01*
X147115536Y-95694385D01*
X147119651Y-95636194D01*
X147119651Y-103625674D01*
X146926089Y-103624323D01*
X146926089Y-99750000D01*
X146926089Y-97750000D01*
X146923121Y-97713489D01*
X146904175Y-97652899D01*
X146869131Y-97599964D01*
X146820753Y-97558859D01*
X146762854Y-97532824D01*
X146700000Y-97523911D01*
X145325000Y-97523911D01*
X145325000Y-96539177D01*
X145325000Y-95425000D01*
X145325000Y-95075000D01*
X145325000Y-93960823D01*
X145107124Y-93864545D01*
X144838620Y-93909285D01*
X144584003Y-94005548D01*
X144353059Y-94149635D01*
X144154662Y-94336008D01*
X143996437Y-94557505D01*
X143884464Y-94805615D01*
X143880349Y-94863806D01*
X143930757Y-95075000D01*
X145325000Y-95075000D01*
X145325000Y-95425000D01*
X143930757Y-95425000D01*
X143880349Y-95636194D01*
X143884464Y-95694385D01*
X143996437Y-95942495D01*
X144154662Y-96163992D01*
X144353059Y-96350365D01*
X144584003Y-96494452D01*
X144838620Y-96590715D01*
X145107124Y-96635455D01*
X145325000Y-96539177D01*
X145325000Y-97523911D01*
X145299215Y-97523911D01*
X143225000Y-95449695D01*
X143225000Y-92328483D01*
X143285841Y-92310114D01*
X143479702Y-92207036D01*
X143649850Y-92068267D01*
X143789804Y-91899092D01*
X143894233Y-91705955D01*
X143959159Y-91496213D01*
X143982110Y-91277854D01*
X143962210Y-91059196D01*
X143900219Y-90848568D01*
X143825000Y-90704686D01*
X143825000Y-89841085D01*
X143847101Y-89834175D01*
X143900036Y-89799131D01*
X143941141Y-89750753D01*
X143967176Y-89692854D01*
X143976089Y-89630000D01*
X143976089Y-87830000D01*
X143973121Y-87793489D01*
X143954175Y-87732899D01*
X143919131Y-87679964D01*
X143870753Y-87638859D01*
X143812854Y-87612824D01*
X143750000Y-87603911D01*
X141250000Y-87603911D01*
X141213489Y-87606879D01*
X141152899Y-87625825D01*
X141099964Y-87660869D01*
X141058859Y-87709247D01*
X141032824Y-87767146D01*
X141023911Y-87830000D01*
X141023911Y-88005000D01*
X140370000Y-88005000D01*
X140303400Y-88011530D01*
X140236635Y-88017372D01*
X140232972Y-88018436D01*
X140229180Y-88018808D01*
X140165076Y-88038161D01*
X140100758Y-88056848D01*
X140097374Y-88058601D01*
X140093724Y-88059704D01*
X140034568Y-88091157D01*
X139975137Y-88121964D01*
X139972159Y-88124340D01*
X139968791Y-88126132D01*
X139916843Y-88168499D01*
X139864556Y-88210240D01*
X139859256Y-88215466D01*
X139859140Y-88215561D01*
X139859050Y-88215668D01*
X139857348Y-88217348D01*
X139487348Y-88587348D01*
X139444880Y-88639049D01*
X139401793Y-88690399D01*
X139399955Y-88693742D01*
X139397537Y-88696686D01*
X139365910Y-88755668D01*
X139333627Y-88814392D01*
X139332473Y-88818027D01*
X139330673Y-88821386D01*
X139311090Y-88885434D01*
X139290843Y-88949264D01*
X139290418Y-88953049D01*
X139289303Y-88956698D01*
X139282529Y-89023381D01*
X139275071Y-89089877D01*
X139275018Y-89097323D01*
X139275004Y-89097469D01*
X139275016Y-89097604D01*
X139275000Y-89100000D01*
X139275000Y-94423911D01*
X138800000Y-94423911D01*
X138786603Y-94425000D01*
X138706802Y-94425000D01*
X138652831Y-94478970D01*
X138649964Y-94480869D01*
X138644487Y-94487314D01*
X137507891Y-95623911D01*
X137050000Y-95623911D01*
X137036603Y-95625000D01*
X136825000Y-95625000D01*
X136825000Y-95842320D01*
X136823911Y-95850000D01*
X136823911Y-97150000D01*
X136825000Y-97163396D01*
X136825000Y-97375000D01*
X137042320Y-97375000D01*
X137050000Y-97376089D01*
X137950000Y-97376089D01*
X137963396Y-97375000D01*
X138043198Y-97375000D01*
X138097168Y-97321029D01*
X138100036Y-97319131D01*
X138105512Y-97312685D01*
X139442109Y-95976089D01*
X141200000Y-95976089D01*
X141213396Y-95975000D01*
X141425000Y-95975000D01*
X141425000Y-95757679D01*
X141426089Y-95750000D01*
X141426089Y-94650000D01*
X141425000Y-94636603D01*
X141425000Y-94425000D01*
X141207679Y-94425000D01*
X141200000Y-94423911D01*
X140725000Y-94423911D01*
X140725000Y-89455000D01*
X141023911Y-89455000D01*
X141023911Y-89630000D01*
X141026879Y-89666511D01*
X141045825Y-89727101D01*
X141080869Y-89780036D01*
X141129247Y-89821141D01*
X141175000Y-89841714D01*
X141175000Y-90706001D01*
X141105767Y-90834045D01*
X141040841Y-91043787D01*
X141017890Y-91262146D01*
X141037790Y-91480804D01*
X141099781Y-91691432D01*
X141201503Y-91886009D01*
X141339081Y-92057121D01*
X141507275Y-92198253D01*
X141699678Y-92304027D01*
X141775000Y-92327920D01*
X141775000Y-95750000D01*
X141781530Y-95816599D01*
X141787372Y-95883365D01*
X141788436Y-95887027D01*
X141788808Y-95890820D01*
X141808161Y-95954923D01*
X141826848Y-96019242D01*
X141828601Y-96022625D01*
X141829704Y-96026276D01*
X141861157Y-96085431D01*
X141891964Y-96144863D01*
X141894340Y-96147840D01*
X141896132Y-96151209D01*
X141938499Y-96203156D01*
X141980240Y-96255444D01*
X141985466Y-96260743D01*
X141985561Y-96260860D01*
X141985668Y-96260949D01*
X141987348Y-96262652D01*
X144073911Y-98349215D01*
X144073911Y-99750000D01*
X144074048Y-99751687D01*
X141625736Y-102200000D01*
X141426089Y-102200000D01*
X141426089Y-98350000D01*
X141426089Y-97250000D01*
X141425000Y-97236603D01*
X141425000Y-97025000D01*
X141207679Y-97025000D01*
X141200000Y-97023911D01*
X138800000Y-97023911D01*
X138786603Y-97025000D01*
X138706802Y-97025000D01*
X138652831Y-97078970D01*
X138649964Y-97080869D01*
X138644487Y-97087314D01*
X138206802Y-97525000D01*
X136882679Y-97525000D01*
X136875000Y-97523911D01*
X136180000Y-97523911D01*
X136180000Y-97172653D01*
X136180000Y-96607500D01*
X136180000Y-96392500D01*
X136180000Y-95827347D01*
X136171161Y-95782911D01*
X136153823Y-95741054D01*
X136128653Y-95703384D01*
X136096616Y-95671347D01*
X136058946Y-95646177D01*
X136017089Y-95628839D01*
X135972653Y-95620000D01*
X135927347Y-95620000D01*
X135607500Y-95620000D01*
X135550000Y-95677500D01*
X135550000Y-96450000D01*
X136122500Y-96450000D01*
X136180000Y-96392500D01*
X136180000Y-96607500D01*
X136122500Y-96550000D01*
X135550000Y-96550000D01*
X135550000Y-97322500D01*
X135607500Y-97380000D01*
X135927347Y-97380000D01*
X135972653Y-97380000D01*
X136017089Y-97371161D01*
X136058946Y-97353823D01*
X136096616Y-97328653D01*
X136128653Y-97296616D01*
X136153823Y-97258946D01*
X136171161Y-97217089D01*
X136180000Y-97172653D01*
X136180000Y-97523911D01*
X135825000Y-97523911D01*
X135811603Y-97525000D01*
X135625000Y-97525000D01*
X135625000Y-97648948D01*
X135607824Y-97687146D01*
X135598911Y-97750000D01*
X135598911Y-98350000D01*
X135601879Y-98386511D01*
X135620825Y-98447101D01*
X135625000Y-98453407D01*
X135625000Y-98575000D01*
X135631903Y-98575000D01*
X135621177Y-98591054D01*
X135603839Y-98632911D01*
X135595000Y-98677347D01*
X135595000Y-98892500D01*
X135652500Y-98950000D01*
X136300000Y-98950000D01*
X136300000Y-98930000D01*
X136400000Y-98930000D01*
X136400000Y-98950000D01*
X137047500Y-98950000D01*
X137105000Y-98892500D01*
X137105000Y-98677347D01*
X137096161Y-98632911D01*
X137078823Y-98591054D01*
X137068096Y-98575000D01*
X138792320Y-98575000D01*
X138800000Y-98576089D01*
X141200000Y-98576089D01*
X141213396Y-98575000D01*
X141425000Y-98575000D01*
X141425000Y-98357679D01*
X141426089Y-98350000D01*
X141426089Y-102200000D01*
X137926089Y-102200000D01*
X137926089Y-102050000D01*
X137923121Y-102013489D01*
X137904175Y-101952899D01*
X137869131Y-101899964D01*
X137820753Y-101858859D01*
X137762854Y-101832824D01*
X137700000Y-101823911D01*
X136900000Y-101823911D01*
X136863489Y-101826879D01*
X136802899Y-101845825D01*
X136749964Y-101880869D01*
X136708859Y-101929247D01*
X136682824Y-101987146D01*
X136673911Y-102050000D01*
X136673911Y-102950000D01*
X136676879Y-102986511D01*
X136695825Y-103047101D01*
X136730869Y-103100036D01*
X136779247Y-103141141D01*
X136837146Y-103167176D01*
X136900000Y-103176089D01*
X137000000Y-103176089D01*
X137000000Y-103323911D01*
X136900000Y-103323911D01*
X136863489Y-103326879D01*
X136802899Y-103345825D01*
X136749964Y-103380869D01*
X136708859Y-103429247D01*
X136682824Y-103487146D01*
X136673911Y-103550000D01*
X136673911Y-104450000D01*
X136676879Y-104486511D01*
X136695825Y-104547101D01*
X136730869Y-104600036D01*
X136779247Y-104641141D01*
X136837146Y-104667176D01*
X136900000Y-104676089D01*
X137251825Y-104676089D01*
X138782472Y-106206736D01*
X138757703Y-106264529D01*
X138726103Y-106413194D01*
X138723981Y-106565164D01*
X138751417Y-106714653D01*
X138807367Y-106855965D01*
X138889699Y-106983719D01*
X138995277Y-107093048D01*
X139120079Y-107179788D01*
X139259353Y-107240635D01*
X139407793Y-107273272D01*
X139559745Y-107276455D01*
X139709421Y-107250063D01*
X139851121Y-107195101D01*
X139979446Y-107113663D01*
X140089510Y-107008851D01*
X140177119Y-106884657D01*
X140238937Y-106745812D01*
X140272609Y-106597603D01*
X140275033Y-106424007D01*
X140245513Y-106274916D01*
X140187595Y-106134399D01*
X140103488Y-106007807D01*
X139996394Y-105899963D01*
X139870392Y-105814974D01*
X139730283Y-105756077D01*
X139581402Y-105725516D01*
X139429420Y-105724455D01*
X139280127Y-105752934D01*
X139206817Y-105782553D01*
X137919652Y-104495388D01*
X137926089Y-104450000D01*
X137926089Y-103550000D01*
X137923121Y-103513489D01*
X137904175Y-103452899D01*
X137869131Y-103399964D01*
X137820753Y-103358859D01*
X137762854Y-103332824D01*
X137700000Y-103323911D01*
X137600000Y-103323911D01*
X137600000Y-103176089D01*
X137700000Y-103176089D01*
X137736511Y-103173121D01*
X137797101Y-103154175D01*
X137850036Y-103119131D01*
X137891141Y-103070753D01*
X137917176Y-103012854D01*
X137926089Y-102950000D01*
X137926089Y-102800000D01*
X141750000Y-102800000D01*
X141777611Y-102797292D01*
X141805185Y-102794880D01*
X141806694Y-102794441D01*
X141808270Y-102794287D01*
X141834845Y-102786263D01*
X141861410Y-102778546D01*
X141862810Y-102777820D01*
X141864321Y-102777364D01*
X141888790Y-102764352D01*
X141913391Y-102751601D01*
X141914624Y-102750616D01*
X141916017Y-102749876D01*
X141937465Y-102732382D01*
X141959149Y-102715074D01*
X141961347Y-102712905D01*
X141961390Y-102712871D01*
X141961422Y-102712831D01*
X141962132Y-102712132D01*
X144698175Y-99976089D01*
X146700000Y-99976089D01*
X146736511Y-99973121D01*
X146797101Y-99954175D01*
X146850036Y-99919131D01*
X146891141Y-99870753D01*
X146917176Y-99812854D01*
X146926089Y-99750000D01*
X146926089Y-103624323D01*
X146783706Y-103623330D01*
X146326194Y-103710605D01*
X145894348Y-103885082D01*
X145504615Y-104140116D01*
X145171841Y-104465993D01*
X144908701Y-104850299D01*
X144725218Y-105278397D01*
X144628381Y-105733980D01*
X144621878Y-106199697D01*
X144705957Y-106657806D01*
X144877415Y-107090861D01*
X145129722Y-107482364D01*
X145453267Y-107817405D01*
X145835727Y-108083222D01*
X146262533Y-108269689D01*
X146717430Y-108369704D01*
X147183089Y-108379458D01*
X147641775Y-108298580D01*
X148076016Y-108130149D01*
X148469271Y-107880581D01*
X148806563Y-107559383D01*
X149075043Y-107178788D01*
X149264485Y-106753294D01*
X149367674Y-106299107D01*
X149375102Y-105767119D01*
X149375102Y-108725000D01*
X137775033Y-108725000D01*
X137775033Y-106424007D01*
X137745513Y-106274916D01*
X137687595Y-106134399D01*
X137603488Y-106007807D01*
X137496394Y-105899963D01*
X137370392Y-105814974D01*
X137230283Y-105756077D01*
X137081402Y-105725516D01*
X136929420Y-105724455D01*
X136780127Y-105752934D01*
X136706817Y-105782553D01*
X136000000Y-105075736D01*
X136000000Y-104676089D01*
X136100000Y-104676089D01*
X136136511Y-104673121D01*
X136197101Y-104654175D01*
X136250036Y-104619131D01*
X136291141Y-104570753D01*
X136317176Y-104512854D01*
X136326089Y-104450000D01*
X136326089Y-103550000D01*
X136323121Y-103513489D01*
X136304175Y-103452899D01*
X136269131Y-103399964D01*
X136220753Y-103358859D01*
X136162854Y-103332824D01*
X136100000Y-103323911D01*
X136000000Y-103323911D01*
X136000000Y-103176089D01*
X136100000Y-103176089D01*
X136136511Y-103173121D01*
X136197101Y-103154175D01*
X136250036Y-103119131D01*
X136291141Y-103070753D01*
X136317176Y-103012854D01*
X136326089Y-102950000D01*
X136326089Y-102050000D01*
X136323121Y-102013489D01*
X136304175Y-101952899D01*
X136269131Y-101899964D01*
X136220753Y-101858859D01*
X136162854Y-101832824D01*
X136100000Y-101823911D01*
X135300000Y-101823911D01*
X135263489Y-101826879D01*
X135202899Y-101845825D01*
X135149964Y-101880869D01*
X135108859Y-101929247D01*
X135082824Y-101987146D01*
X135073911Y-102050000D01*
X135073911Y-102200000D01*
X134926089Y-102200000D01*
X134926089Y-102050000D01*
X134923121Y-102013489D01*
X134904175Y-101952899D01*
X134869131Y-101899964D01*
X134820753Y-101858859D01*
X134762854Y-101832824D01*
X134700000Y-101823911D01*
X134048175Y-101823911D01*
X133950000Y-101725736D01*
X133950000Y-100476089D01*
X134175000Y-100476089D01*
X134211511Y-100473121D01*
X134272101Y-100454175D01*
X134325036Y-100419131D01*
X134366141Y-100370753D01*
X134392176Y-100312854D01*
X134401089Y-100250000D01*
X134401089Y-99825353D01*
X134737868Y-100162132D01*
X134759304Y-100179740D01*
X134780510Y-100197534D01*
X134781888Y-100198291D01*
X134783111Y-100199296D01*
X134807550Y-100212399D01*
X134831817Y-100225741D01*
X134833322Y-100226218D01*
X134834711Y-100226963D01*
X134861181Y-100235055D01*
X134887626Y-100243444D01*
X134889195Y-100243620D01*
X134890703Y-100244081D01*
X134918241Y-100246878D01*
X134945811Y-100249971D01*
X134948897Y-100249992D01*
X134948953Y-100249998D01*
X134949004Y-100249993D01*
X134950000Y-100250000D01*
X135598911Y-100250000D01*
X135601879Y-100286511D01*
X135620825Y-100347101D01*
X135655869Y-100400036D01*
X135704247Y-100441141D01*
X135762146Y-100467176D01*
X135825000Y-100476089D01*
X136875000Y-100476089D01*
X136911511Y-100473121D01*
X136972101Y-100454175D01*
X137025036Y-100419131D01*
X137066141Y-100370753D01*
X137092176Y-100312854D01*
X137101089Y-100250000D01*
X137101089Y-99650000D01*
X137098121Y-99613489D01*
X137079175Y-99552899D01*
X137044131Y-99499964D01*
X137020179Y-99479613D01*
X137021616Y-99478653D01*
X137053653Y-99446616D01*
X137078823Y-99408946D01*
X137096161Y-99367089D01*
X137105000Y-99322653D01*
X137105000Y-99107500D01*
X137047500Y-99050000D01*
X136400000Y-99050000D01*
X136400000Y-99070000D01*
X136300000Y-99070000D01*
X136300000Y-99050000D01*
X135652500Y-99050000D01*
X135595000Y-99107500D01*
X135595000Y-99322653D01*
X135603839Y-99367089D01*
X135621177Y-99408946D01*
X135646347Y-99446616D01*
X135678355Y-99478624D01*
X135674964Y-99480869D01*
X135633859Y-99529247D01*
X135607824Y-99587146D01*
X135598911Y-99650000D01*
X135450000Y-99650000D01*
X135450000Y-97322500D01*
X135450000Y-96550000D01*
X135450000Y-96450000D01*
X135450000Y-95677500D01*
X135392500Y-95620000D01*
X135072653Y-95620000D01*
X135027347Y-95620000D01*
X134982911Y-95628839D01*
X134941054Y-95646177D01*
X134903384Y-95671347D01*
X134871347Y-95703384D01*
X134846177Y-95741054D01*
X134828839Y-95782911D01*
X134820000Y-95827347D01*
X134820000Y-96392500D01*
X134877500Y-96450000D01*
X135450000Y-96450000D01*
X135450000Y-96550000D01*
X134877500Y-96550000D01*
X134820000Y-96607500D01*
X134820000Y-97172653D01*
X134828839Y-97217089D01*
X134846177Y-97258946D01*
X134871347Y-97296616D01*
X134903384Y-97328653D01*
X134941054Y-97353823D01*
X134982911Y-97371161D01*
X135027347Y-97380000D01*
X135072653Y-97380000D01*
X135392500Y-97380000D01*
X135450000Y-97322500D01*
X135450000Y-99650000D01*
X135074264Y-99650000D01*
X134680000Y-99255736D01*
X134680000Y-97172653D01*
X134680000Y-96607500D01*
X134680000Y-96392500D01*
X134680000Y-95827347D01*
X134671161Y-95782911D01*
X134653823Y-95741054D01*
X134628653Y-95703384D01*
X134596616Y-95671347D01*
X134558946Y-95646177D01*
X134517089Y-95628839D01*
X134472653Y-95620000D01*
X134427347Y-95620000D01*
X134107500Y-95620000D01*
X134050000Y-95677500D01*
X134050000Y-96450000D01*
X134622500Y-96450000D01*
X134680000Y-96392500D01*
X134680000Y-96607500D01*
X134622500Y-96550000D01*
X134050000Y-96550000D01*
X134050000Y-97322500D01*
X134107500Y-97380000D01*
X134427347Y-97380000D01*
X134472653Y-97380000D01*
X134517089Y-97371161D01*
X134558946Y-97353823D01*
X134596616Y-97328653D01*
X134628653Y-97296616D01*
X134653823Y-97258946D01*
X134671161Y-97217089D01*
X134680000Y-97172653D01*
X134680000Y-99255736D01*
X134000353Y-98576089D01*
X134175000Y-98576089D01*
X134188396Y-98575000D01*
X134375000Y-98575000D01*
X134375000Y-98451051D01*
X134392176Y-98412854D01*
X134401089Y-98350000D01*
X134401089Y-97750000D01*
X134398121Y-97713489D01*
X134379175Y-97652899D01*
X134375000Y-97646592D01*
X134375000Y-97525000D01*
X134182679Y-97525000D01*
X134175000Y-97523911D01*
X133950000Y-97523911D01*
X133950000Y-97322500D01*
X133950000Y-96550000D01*
X133950000Y-96450000D01*
X133950000Y-95677500D01*
X133892500Y-95620000D01*
X133572653Y-95620000D01*
X133527347Y-95620000D01*
X133482911Y-95628839D01*
X133441054Y-95646177D01*
X133403384Y-95671347D01*
X133371347Y-95703384D01*
X133346177Y-95741054D01*
X133328839Y-95782911D01*
X133320000Y-95827347D01*
X133320000Y-96392500D01*
X133377500Y-96450000D01*
X133950000Y-96450000D01*
X133950000Y-96550000D01*
X133377500Y-96550000D01*
X133320000Y-96607500D01*
X133320000Y-97172653D01*
X133328839Y-97217089D01*
X133346177Y-97258946D01*
X133371347Y-97296616D01*
X133403384Y-97328653D01*
X133441054Y-97353823D01*
X133482911Y-97371161D01*
X133527347Y-97380000D01*
X133572653Y-97380000D01*
X133892500Y-97380000D01*
X133950000Y-97322500D01*
X133950000Y-97523911D01*
X133392109Y-97523911D01*
X132676089Y-96807891D01*
X132676089Y-95942109D01*
X134975000Y-93643198D01*
X134975000Y-92707679D01*
X134976089Y-92700000D01*
X134976089Y-90300000D01*
X134975000Y-90286603D01*
X134975000Y-90075000D01*
X134757679Y-90075000D01*
X134750000Y-90073911D01*
X132750000Y-90073911D01*
X132736603Y-90075000D01*
X132525000Y-90075000D01*
X132525000Y-90292320D01*
X132523911Y-90300000D01*
X132523911Y-92607891D01*
X131635455Y-93496347D01*
X131635455Y-91892876D01*
X131635455Y-91107124D01*
X131590715Y-90838620D01*
X131494452Y-90584003D01*
X131350365Y-90353059D01*
X131163992Y-90154662D01*
X130942495Y-89996437D01*
X130694385Y-89884464D01*
X130636194Y-89880349D01*
X130425000Y-89930757D01*
X130425000Y-91325000D01*
X131539177Y-91325000D01*
X131635455Y-91107124D01*
X131635455Y-91892876D01*
X131539177Y-91675000D01*
X130425000Y-91675000D01*
X130425000Y-93069243D01*
X130636194Y-93119651D01*
X130694385Y-93115536D01*
X130942495Y-93003563D01*
X131163992Y-92845338D01*
X131350365Y-92646941D01*
X131494452Y-92415997D01*
X131590715Y-92161380D01*
X131635455Y-91892876D01*
X131635455Y-93496347D01*
X130075000Y-95056802D01*
X130075000Y-93069243D01*
X130075000Y-91675000D01*
X130075000Y-91325000D01*
X130075000Y-89930757D01*
X129863806Y-89880349D01*
X129805615Y-89884464D01*
X129557505Y-89996437D01*
X129336008Y-90154662D01*
X129149635Y-90353059D01*
X129005548Y-90584003D01*
X128909285Y-90838620D01*
X128864545Y-91107124D01*
X128960823Y-91325000D01*
X130075000Y-91325000D01*
X130075000Y-91675000D01*
X128960823Y-91675000D01*
X128864545Y-91892876D01*
X128909285Y-92161380D01*
X129005548Y-92415997D01*
X129149635Y-92646941D01*
X129336008Y-92845338D01*
X129557505Y-93003563D01*
X129805615Y-93115536D01*
X129863806Y-93119651D01*
X130075000Y-93069243D01*
X130075000Y-95056802D01*
X129356802Y-95775000D01*
X128712679Y-95775000D01*
X128705000Y-95773911D01*
X128105000Y-95773911D01*
X128091603Y-95775000D01*
X127875000Y-95775000D01*
X127875000Y-97825000D01*
X128097320Y-97825000D01*
X128105000Y-97826089D01*
X128705000Y-97826089D01*
X128718396Y-97825000D01*
X130556802Y-97825000D01*
X131306802Y-98575000D01*
X133117320Y-98575000D01*
X133125000Y-98576089D01*
X133350000Y-98576089D01*
X133350000Y-98650000D01*
X133352707Y-98677611D01*
X133355120Y-98705185D01*
X133355558Y-98706694D01*
X133355713Y-98708270D01*
X133363736Y-98734845D01*
X133371454Y-98761410D01*
X133372179Y-98762810D01*
X133372636Y-98764321D01*
X133385647Y-98788790D01*
X133398399Y-98813391D01*
X133399383Y-98814624D01*
X133400124Y-98816017D01*
X133417617Y-98837465D01*
X133434926Y-98859149D01*
X133437094Y-98861347D01*
X133437129Y-98861390D01*
X133437168Y-98861422D01*
X133437868Y-98862132D01*
X133999647Y-99423911D01*
X133125000Y-99423911D01*
X133088489Y-99426879D01*
X133027899Y-99445825D01*
X132974964Y-99480869D01*
X132933859Y-99529247D01*
X132907824Y-99587146D01*
X132898911Y-99650000D01*
X132898911Y-100250000D01*
X132901879Y-100286511D01*
X132920825Y-100347101D01*
X132955869Y-100400036D01*
X133004247Y-100441141D01*
X133062146Y-100467176D01*
X133125000Y-100476089D01*
X133350000Y-100476089D01*
X133350000Y-101850000D01*
X133352707Y-101877611D01*
X133355120Y-101905185D01*
X133355558Y-101906694D01*
X133355713Y-101908270D01*
X133363736Y-101934845D01*
X133371454Y-101961410D01*
X133372179Y-101962810D01*
X133372636Y-101964321D01*
X133385647Y-101988790D01*
X133398399Y-102013391D01*
X133399383Y-102014624D01*
X133400124Y-102016017D01*
X133417617Y-102037465D01*
X133434926Y-102059149D01*
X133437094Y-102061347D01*
X133437129Y-102061390D01*
X133437168Y-102061422D01*
X133437868Y-102062132D01*
X133673911Y-102298175D01*
X133673911Y-102950000D01*
X133676879Y-102986511D01*
X133695825Y-103047101D01*
X133730869Y-103100036D01*
X133779247Y-103141141D01*
X133837146Y-103167176D01*
X133900000Y-103176089D01*
X134700000Y-103176089D01*
X134736511Y-103173121D01*
X134797101Y-103154175D01*
X134850036Y-103119131D01*
X134891141Y-103070753D01*
X134917176Y-103012854D01*
X134926089Y-102950000D01*
X134926089Y-102800000D01*
X135073911Y-102800000D01*
X135073911Y-102950000D01*
X135076879Y-102986511D01*
X135095825Y-103047101D01*
X135130869Y-103100036D01*
X135179247Y-103141141D01*
X135237146Y-103167176D01*
X135300000Y-103176089D01*
X135400000Y-103176089D01*
X135400000Y-103323911D01*
X135300000Y-103323911D01*
X135263489Y-103326879D01*
X135202899Y-103345825D01*
X135149964Y-103380869D01*
X135108859Y-103429247D01*
X135082824Y-103487146D01*
X135073911Y-103550000D01*
X135073911Y-104450000D01*
X135076879Y-104486511D01*
X135095825Y-104547101D01*
X135130869Y-104600036D01*
X135179247Y-104641141D01*
X135237146Y-104667176D01*
X135300000Y-104676089D01*
X135400000Y-104676089D01*
X135400000Y-105200000D01*
X135402707Y-105227611D01*
X135405120Y-105255185D01*
X135405558Y-105256694D01*
X135405713Y-105258270D01*
X135413736Y-105284845D01*
X135421454Y-105311410D01*
X135422179Y-105312810D01*
X135422636Y-105314321D01*
X135435647Y-105338790D01*
X135448399Y-105363391D01*
X135449383Y-105364624D01*
X135450124Y-105366017D01*
X135467617Y-105387465D01*
X135484926Y-105409149D01*
X135487094Y-105411347D01*
X135487129Y-105411390D01*
X135487168Y-105411422D01*
X135487868Y-105412132D01*
X136275736Y-106200000D01*
X135214634Y-106200000D01*
X135187595Y-106134399D01*
X135103488Y-106007807D01*
X134996394Y-105899963D01*
X134870392Y-105814974D01*
X134730283Y-105756077D01*
X134581402Y-105725516D01*
X134429420Y-105724455D01*
X134280127Y-105752934D01*
X134139208Y-105809869D01*
X134012032Y-105893091D01*
X133903443Y-105999429D01*
X133817576Y-106124834D01*
X133757703Y-106264529D01*
X133726103Y-106413194D01*
X133723981Y-106565164D01*
X133751417Y-106714653D01*
X133807367Y-106855965D01*
X133889699Y-106983719D01*
X133995277Y-107093048D01*
X134120079Y-107179788D01*
X134259353Y-107240635D01*
X134407793Y-107273272D01*
X134559745Y-107276455D01*
X134709421Y-107250063D01*
X134851121Y-107195101D01*
X134979446Y-107113663D01*
X135089510Y-107008851D01*
X135177119Y-106884657D01*
X135214810Y-106800000D01*
X136285208Y-106800000D01*
X136307367Y-106855965D01*
X136389699Y-106983719D01*
X136495277Y-107093048D01*
X136620079Y-107179788D01*
X136759353Y-107240635D01*
X136907793Y-107273272D01*
X137059745Y-107276455D01*
X137209421Y-107250063D01*
X137351121Y-107195101D01*
X137479446Y-107113663D01*
X137589510Y-107008851D01*
X137677119Y-106884657D01*
X137738937Y-106745812D01*
X137772609Y-106597603D01*
X137775033Y-106424007D01*
X137775033Y-108725000D01*
X133330000Y-108725000D01*
X133330000Y-102972653D01*
X133330000Y-102607500D01*
X133330000Y-102392500D01*
X133330000Y-102027347D01*
X133321161Y-101982911D01*
X133303823Y-101941054D01*
X133278653Y-101903384D01*
X133246616Y-101871347D01*
X133208946Y-101846177D01*
X133167089Y-101828839D01*
X133122653Y-101820000D01*
X133077347Y-101820000D01*
X132807500Y-101820000D01*
X132750000Y-101877500D01*
X132750000Y-102450000D01*
X133272500Y-102450000D01*
X133330000Y-102392500D01*
X133330000Y-102607500D01*
X133272500Y-102550000D01*
X132750000Y-102550000D01*
X132750000Y-103122500D01*
X132807500Y-103180000D01*
X133077347Y-103180000D01*
X133122653Y-103180000D01*
X133167089Y-103171161D01*
X133208946Y-103153823D01*
X133246616Y-103128653D01*
X133278653Y-103096616D01*
X133303823Y-103058946D01*
X133321161Y-103017089D01*
X133330000Y-102972653D01*
X133330000Y-108725000D01*
X132650000Y-108725000D01*
X132650000Y-103122500D01*
X132650000Y-102550000D01*
X132650000Y-102450000D01*
X132650000Y-101877500D01*
X132592500Y-101820000D01*
X132322653Y-101820000D01*
X132277347Y-101820000D01*
X132232911Y-101828839D01*
X132191054Y-101846177D01*
X132153384Y-101871347D01*
X132121347Y-101903384D01*
X132096177Y-101941054D01*
X132078839Y-101982911D01*
X132070000Y-102027347D01*
X132070000Y-102392500D01*
X132127500Y-102450000D01*
X132650000Y-102450000D01*
X132650000Y-102550000D01*
X132127500Y-102550000D01*
X132070000Y-102607500D01*
X132070000Y-102972653D01*
X132078839Y-103017089D01*
X132096177Y-103058946D01*
X132121347Y-103096616D01*
X132153384Y-103128653D01*
X132191054Y-103153823D01*
X132232911Y-103171161D01*
X132277347Y-103180000D01*
X132322653Y-103180000D01*
X132592500Y-103180000D01*
X132650000Y-103122500D01*
X132650000Y-108725000D01*
X131380000Y-108725000D01*
X131380000Y-100972653D01*
X131380000Y-100927347D01*
X131380000Y-100607500D01*
X131380000Y-100392500D01*
X131380000Y-100072653D01*
X131380000Y-100027347D01*
X131371161Y-99982911D01*
X131353823Y-99941054D01*
X131328653Y-99903384D01*
X131296616Y-99871347D01*
X131258946Y-99846177D01*
X131217089Y-99828839D01*
X131172653Y-99820000D01*
X130607500Y-99820000D01*
X130550000Y-99877500D01*
X130550000Y-100450000D01*
X131322500Y-100450000D01*
X131380000Y-100392500D01*
X131380000Y-100607500D01*
X131322500Y-100550000D01*
X130550000Y-100550000D01*
X130550000Y-101122500D01*
X130607500Y-101180000D01*
X131172653Y-101180000D01*
X131217089Y-101171161D01*
X131258946Y-101153823D01*
X131296616Y-101128653D01*
X131328653Y-101096616D01*
X131353823Y-101058946D01*
X131371161Y-101017089D01*
X131380000Y-100972653D01*
X131380000Y-108725000D01*
X131376089Y-108725000D01*
X131376089Y-102950000D01*
X131376089Y-102050000D01*
X131373121Y-102013489D01*
X131354175Y-101952899D01*
X131319131Y-101899964D01*
X131270753Y-101858859D01*
X131212854Y-101832824D01*
X131150000Y-101823911D01*
X130450000Y-101823911D01*
X130450000Y-101122500D01*
X130450000Y-100550000D01*
X130450000Y-100450000D01*
X130450000Y-99877500D01*
X130392500Y-99820000D01*
X129827347Y-99820000D01*
X129782911Y-99828839D01*
X129741054Y-99846177D01*
X129703384Y-99871347D01*
X129671347Y-99903384D01*
X129646177Y-99941054D01*
X129628839Y-99982911D01*
X129620000Y-100027347D01*
X129620000Y-100072653D01*
X129620000Y-100392500D01*
X129677500Y-100450000D01*
X130450000Y-100450000D01*
X130450000Y-100550000D01*
X129677500Y-100550000D01*
X129620000Y-100607500D01*
X129620000Y-100927347D01*
X129620000Y-100972653D01*
X129628839Y-101017089D01*
X129646177Y-101058946D01*
X129671347Y-101096616D01*
X129703384Y-101128653D01*
X129741054Y-101153823D01*
X129782911Y-101171161D01*
X129827347Y-101180000D01*
X130392500Y-101180000D01*
X130450000Y-101122500D01*
X130450000Y-101823911D01*
X129850000Y-101823911D01*
X129836603Y-101825000D01*
X129443198Y-101825000D01*
X128885822Y-101267624D01*
X128874131Y-101249964D01*
X128834426Y-101216228D01*
X128612018Y-100993820D01*
X128544483Y-101173911D01*
X128105000Y-101173911D01*
X128068489Y-101176879D01*
X128007899Y-101195825D01*
X127954964Y-101230869D01*
X127913859Y-101279247D01*
X127887824Y-101337146D01*
X127878911Y-101400000D01*
X127878911Y-102948770D01*
X127875000Y-102959200D01*
X127875000Y-104173911D01*
X127700000Y-104173911D01*
X127665000Y-104176756D01*
X127665000Y-103022653D01*
X127665000Y-102307500D01*
X127665000Y-102092500D01*
X127665000Y-101377347D01*
X127661089Y-101357685D01*
X127661089Y-97600000D01*
X127661089Y-96000000D01*
X127658121Y-95963489D01*
X127639175Y-95902899D01*
X127604131Y-95849964D01*
X127555753Y-95808859D01*
X127497854Y-95782824D01*
X127435000Y-95773911D01*
X127198175Y-95773911D01*
X125100326Y-93676062D01*
X125136511Y-93673121D01*
X125197101Y-93654175D01*
X125250036Y-93619131D01*
X125291141Y-93570753D01*
X125317176Y-93512854D01*
X125326089Y-93450000D01*
X125326089Y-92550000D01*
X125323121Y-92513489D01*
X125304175Y-92452899D01*
X125269131Y-92399964D01*
X125220753Y-92358859D01*
X125162854Y-92332824D01*
X125100000Y-92323911D01*
X124300353Y-92323911D01*
X124448175Y-92176089D01*
X125100000Y-92176089D01*
X125136511Y-92173121D01*
X125197101Y-92154175D01*
X125200000Y-92152255D01*
X125200000Y-92200000D01*
X125202707Y-92227611D01*
X125205120Y-92255185D01*
X125205558Y-92256694D01*
X125205713Y-92258270D01*
X125213736Y-92284845D01*
X125221454Y-92311410D01*
X125222179Y-92312810D01*
X125222636Y-92314321D01*
X125235647Y-92338790D01*
X125248399Y-92363391D01*
X125249383Y-92364624D01*
X125250124Y-92366017D01*
X125267617Y-92387465D01*
X125284926Y-92409149D01*
X125287094Y-92411347D01*
X125287129Y-92411390D01*
X125287168Y-92411422D01*
X125287868Y-92412132D01*
X125673911Y-92798175D01*
X125673911Y-93450000D01*
X125676879Y-93486511D01*
X125695825Y-93547101D01*
X125730869Y-93600036D01*
X125779247Y-93641141D01*
X125837146Y-93667176D01*
X125900000Y-93676089D01*
X126700000Y-93676089D01*
X126736511Y-93673121D01*
X126797101Y-93654175D01*
X126850036Y-93619131D01*
X126891141Y-93570753D01*
X126917176Y-93512854D01*
X126926089Y-93450000D01*
X126926089Y-92550000D01*
X126923121Y-92513489D01*
X126904175Y-92452899D01*
X126869131Y-92399964D01*
X126820753Y-92358859D01*
X126762854Y-92332824D01*
X126700000Y-92323911D01*
X126048175Y-92323911D01*
X125900353Y-92176089D01*
X126700000Y-92176089D01*
X126736511Y-92173121D01*
X126797101Y-92154175D01*
X126850036Y-92119131D01*
X126891141Y-92070753D01*
X126917176Y-92012854D01*
X126926089Y-91950000D01*
X126926089Y-91050000D01*
X126923121Y-91013489D01*
X126904175Y-90952899D01*
X126869131Y-90899964D01*
X126820753Y-90858859D01*
X126762854Y-90832824D01*
X126700000Y-90823911D01*
X126600000Y-90823911D01*
X126600000Y-90676089D01*
X126700000Y-90676089D01*
X126736511Y-90673121D01*
X126797101Y-90654175D01*
X126850036Y-90619131D01*
X126891141Y-90570753D01*
X126917176Y-90512854D01*
X126926089Y-90450000D01*
X126926089Y-89550000D01*
X126923121Y-89513489D01*
X126904175Y-89452899D01*
X126869131Y-89399964D01*
X126820753Y-89358859D01*
X126762854Y-89332824D01*
X126700000Y-89323911D01*
X125900353Y-89323911D01*
X126048175Y-89176089D01*
X126700000Y-89176089D01*
X126736511Y-89173121D01*
X126797101Y-89154175D01*
X126850036Y-89119131D01*
X126891141Y-89070753D01*
X126917176Y-89012854D01*
X126926089Y-88950000D01*
X126926089Y-88050000D01*
X126923121Y-88013489D01*
X126904175Y-87952899D01*
X126869131Y-87899964D01*
X126820753Y-87858859D01*
X126762854Y-87832824D01*
X126700000Y-87823911D01*
X125900000Y-87823911D01*
X125863489Y-87826879D01*
X125802899Y-87845825D01*
X125749964Y-87880869D01*
X125708859Y-87929247D01*
X125682824Y-87987146D01*
X125673911Y-88050000D01*
X125673911Y-88701825D01*
X125287868Y-89087868D01*
X125270282Y-89109277D01*
X125252466Y-89130510D01*
X125251706Y-89131892D01*
X125250705Y-89133111D01*
X125237621Y-89157511D01*
X125224259Y-89181817D01*
X125223781Y-89183322D01*
X125223037Y-89184711D01*
X125214944Y-89211181D01*
X125206556Y-89237626D01*
X125206379Y-89239195D01*
X125205919Y-89240703D01*
X125203121Y-89268241D01*
X125200029Y-89295811D01*
X125200007Y-89298897D01*
X125200002Y-89298953D01*
X125200006Y-89299004D01*
X125200000Y-89300000D01*
X125200000Y-89349527D01*
X125162854Y-89332824D01*
X125100000Y-89323911D01*
X125000000Y-89323911D01*
X125000000Y-89176089D01*
X125100000Y-89176089D01*
X125136511Y-89173121D01*
X125197101Y-89154175D01*
X125250036Y-89119131D01*
X125291141Y-89070753D01*
X125317176Y-89012854D01*
X125326089Y-88950000D01*
X125326089Y-88050000D01*
X125323121Y-88013489D01*
X125304175Y-87952899D01*
X125269131Y-87899964D01*
X125220753Y-87858859D01*
X125162854Y-87832824D01*
X125100000Y-87823911D01*
X124300000Y-87823911D01*
X124263489Y-87826879D01*
X124202899Y-87845825D01*
X124149964Y-87880869D01*
X124108859Y-87929247D01*
X124082824Y-87987146D01*
X124073911Y-88050000D01*
X124073911Y-88950000D01*
X124076879Y-88986511D01*
X124095825Y-89047101D01*
X124130869Y-89100036D01*
X124179247Y-89141141D01*
X124237146Y-89167176D01*
X124300000Y-89176089D01*
X124400000Y-89176089D01*
X124400000Y-89323911D01*
X124300000Y-89323911D01*
X124263489Y-89326879D01*
X124202899Y-89345825D01*
X124149964Y-89380869D01*
X124108859Y-89429247D01*
X124082824Y-89487146D01*
X124073911Y-89550000D01*
X124073911Y-90201825D01*
X123375102Y-90900634D01*
X123375102Y-89767119D01*
X123284635Y-89310228D01*
X123107147Y-88879610D01*
X122849399Y-88491667D01*
X122521207Y-88161176D01*
X122135073Y-87900726D01*
X121705705Y-87720236D01*
X121249456Y-87626581D01*
X120783706Y-87623330D01*
X120326194Y-87710605D01*
X119894348Y-87885082D01*
X119504615Y-88140116D01*
X119171841Y-88465993D01*
X118908701Y-88850299D01*
X118725218Y-89278397D01*
X118628381Y-89733980D01*
X118621878Y-90199697D01*
X118705957Y-90657806D01*
X118877415Y-91090861D01*
X119129722Y-91482364D01*
X119453267Y-91817405D01*
X119835727Y-92083222D01*
X120262533Y-92269689D01*
X120717430Y-92369704D01*
X121183089Y-92379458D01*
X121641775Y-92298580D01*
X122076016Y-92130149D01*
X122469271Y-91880581D01*
X122806563Y-91559383D01*
X123075043Y-91178788D01*
X123264485Y-90753294D01*
X123367674Y-90299107D01*
X123375102Y-89767119D01*
X123375102Y-90900634D01*
X123287868Y-90987868D01*
X123270282Y-91009277D01*
X123252466Y-91030510D01*
X123251706Y-91031892D01*
X123250705Y-91033111D01*
X123237621Y-91057511D01*
X123224259Y-91081817D01*
X123223781Y-91083322D01*
X123223037Y-91084711D01*
X123214944Y-91111181D01*
X123206556Y-91137626D01*
X123206379Y-91139195D01*
X123205919Y-91140703D01*
X123203121Y-91168241D01*
X123200029Y-91195811D01*
X123200007Y-91198897D01*
X123200002Y-91198953D01*
X123200006Y-91199004D01*
X123200000Y-91200000D01*
X123200000Y-95275000D01*
X123030000Y-95275000D01*
X123030000Y-95007500D01*
X123030000Y-94792500D01*
X123030000Y-93827347D01*
X123021161Y-93782911D01*
X123003823Y-93741054D01*
X122978653Y-93703384D01*
X122946616Y-93671347D01*
X122908946Y-93646177D01*
X122867089Y-93628839D01*
X122822653Y-93620000D01*
X122777347Y-93620000D01*
X122107500Y-93620000D01*
X122050000Y-93677500D01*
X122050000Y-94850000D01*
X122972500Y-94850000D01*
X123030000Y-94792500D01*
X123030000Y-95007500D01*
X122972500Y-94950000D01*
X122050000Y-94950000D01*
X122050000Y-96122500D01*
X122107500Y-96180000D01*
X122775000Y-96180000D01*
X122775000Y-96273911D01*
X121950000Y-96273911D01*
X121950000Y-96122500D01*
X121950000Y-94950000D01*
X121950000Y-94850000D01*
X121950000Y-93677500D01*
X121892500Y-93620000D01*
X121222653Y-93620000D01*
X121177347Y-93620000D01*
X121132911Y-93628839D01*
X121091054Y-93646177D01*
X121053384Y-93671347D01*
X121021347Y-93703384D01*
X120996177Y-93741054D01*
X120978839Y-93782911D01*
X120970000Y-93827347D01*
X120970000Y-94792500D01*
X121027500Y-94850000D01*
X121950000Y-94850000D01*
X121950000Y-94950000D01*
X121027500Y-94950000D01*
X120970000Y-95007500D01*
X120970000Y-95972653D01*
X120978839Y-96017089D01*
X120996177Y-96058946D01*
X121021347Y-96096616D01*
X121053384Y-96128653D01*
X121091054Y-96153823D01*
X121132911Y-96171161D01*
X121177347Y-96180000D01*
X121222653Y-96180000D01*
X121892500Y-96180000D01*
X121950000Y-96122500D01*
X121950000Y-96273911D01*
X121450000Y-96273911D01*
X121436603Y-96275000D01*
X121275000Y-96275000D01*
X121275000Y-96360250D01*
X121258859Y-96379247D01*
X121232824Y-96437146D01*
X121223911Y-96500000D01*
X121223911Y-96900000D01*
X121226879Y-96936511D01*
X121245825Y-96997101D01*
X121263494Y-97023791D01*
X121258859Y-97029247D01*
X121232824Y-97087146D01*
X121223911Y-97150000D01*
X121223911Y-97550000D01*
X121226879Y-97586511D01*
X121245825Y-97647101D01*
X121263494Y-97673791D01*
X121258859Y-97679247D01*
X121232824Y-97737146D01*
X121223911Y-97800000D01*
X121223911Y-98200000D01*
X121226879Y-98236511D01*
X121245825Y-98297101D01*
X121263494Y-98323791D01*
X121258859Y-98329247D01*
X121232824Y-98387146D01*
X121223911Y-98450000D01*
X121223911Y-98850000D01*
X121226879Y-98886511D01*
X121245825Y-98947101D01*
X121260616Y-98969443D01*
X121246177Y-98991054D01*
X121228839Y-99032911D01*
X121220000Y-99077347D01*
X121220000Y-99192500D01*
X121277500Y-99250000D01*
X122075000Y-99250000D01*
X122075000Y-99230000D01*
X122175000Y-99230000D01*
X122175000Y-99250000D01*
X122972500Y-99250000D01*
X123030000Y-99192500D01*
X123030000Y-99077347D01*
X123021161Y-99032911D01*
X123003823Y-98991054D01*
X122990646Y-98971334D01*
X122991141Y-98970753D01*
X123017176Y-98912854D01*
X123026089Y-98850000D01*
X123026089Y-98450000D01*
X123023121Y-98413489D01*
X123004175Y-98352899D01*
X122986505Y-98326208D01*
X122991141Y-98320753D01*
X123017176Y-98262854D01*
X123026089Y-98200000D01*
X123026089Y-97800000D01*
X123023121Y-97763489D01*
X123011085Y-97725000D01*
X124109294Y-97725000D01*
X124125869Y-97750036D01*
X124174247Y-97791141D01*
X124232146Y-97817176D01*
X124295000Y-97826089D01*
X124895000Y-97826089D01*
X124931511Y-97823121D01*
X124992101Y-97804175D01*
X125045036Y-97769131D01*
X125086141Y-97720753D01*
X125112176Y-97662854D01*
X125121089Y-97600000D01*
X125121089Y-96000000D01*
X125118121Y-95963489D01*
X125099175Y-95902899D01*
X125064131Y-95849964D01*
X125015753Y-95808859D01*
X124957854Y-95782824D01*
X124895000Y-95773911D01*
X124725000Y-95773911D01*
X124725000Y-95275000D01*
X123800000Y-95275000D01*
X123800000Y-93724264D01*
X125565000Y-95489264D01*
X125565000Y-95773911D01*
X125528489Y-95776879D01*
X125467899Y-95795825D01*
X125414964Y-95830869D01*
X125373859Y-95879247D01*
X125347824Y-95937146D01*
X125338911Y-96000000D01*
X125338911Y-97600000D01*
X125341879Y-97636511D01*
X125360825Y-97697101D01*
X125395869Y-97750036D01*
X125444247Y-97791141D01*
X125502146Y-97817176D01*
X125565000Y-97826089D01*
X126165000Y-97826089D01*
X126201511Y-97823121D01*
X126262101Y-97804175D01*
X126315036Y-97769131D01*
X126356141Y-97720753D01*
X126382176Y-97662854D01*
X126391089Y-97600000D01*
X126391089Y-96000000D01*
X126388121Y-95963489D01*
X126369175Y-95902899D01*
X126334131Y-95849964D01*
X126285753Y-95808859D01*
X126227854Y-95782824D01*
X126165000Y-95773911D01*
X126165000Y-95589264D01*
X126608911Y-96033175D01*
X126608911Y-97600000D01*
X126611879Y-97636511D01*
X126630825Y-97697101D01*
X126665869Y-97750036D01*
X126714247Y-97791141D01*
X126772146Y-97817176D01*
X126835000Y-97826089D01*
X127435000Y-97826089D01*
X127471511Y-97823121D01*
X127532101Y-97804175D01*
X127585036Y-97769131D01*
X127626141Y-97720753D01*
X127652176Y-97662854D01*
X127661089Y-97600000D01*
X127661089Y-101357685D01*
X127656161Y-101332911D01*
X127638823Y-101291054D01*
X127613653Y-101253384D01*
X127581616Y-101221347D01*
X127543946Y-101196177D01*
X127502089Y-101178839D01*
X127457653Y-101170000D01*
X127412347Y-101170000D01*
X127242500Y-101170000D01*
X127185000Y-101227500D01*
X127185000Y-102150000D01*
X127607500Y-102150000D01*
X127665000Y-102092500D01*
X127665000Y-102307500D01*
X127607500Y-102250000D01*
X127185000Y-102250000D01*
X127185000Y-103172500D01*
X127242500Y-103230000D01*
X127412347Y-103230000D01*
X127457653Y-103230000D01*
X127502089Y-103221161D01*
X127543946Y-103203823D01*
X127581616Y-103178653D01*
X127613653Y-103146616D01*
X127638823Y-103108946D01*
X127656161Y-103067089D01*
X127665000Y-103022653D01*
X127665000Y-104176756D01*
X127663489Y-104176879D01*
X127602899Y-104195825D01*
X127549964Y-104230869D01*
X127508859Y-104279247D01*
X127482824Y-104337146D01*
X127473911Y-104400000D01*
X127473911Y-105600000D01*
X127476879Y-105636511D01*
X127495825Y-105697101D01*
X127530869Y-105750036D01*
X127579247Y-105791141D01*
X127637146Y-105817176D01*
X127700000Y-105826089D01*
X128701825Y-105826089D01*
X128787868Y-105912132D01*
X128809299Y-105929736D01*
X128830510Y-105947534D01*
X128831889Y-105948292D01*
X128833110Y-105949295D01*
X128857532Y-105962389D01*
X128881817Y-105975741D01*
X128883322Y-105976218D01*
X128884711Y-105976963D01*
X128911152Y-105985046D01*
X128937626Y-105993444D01*
X128939198Y-105993620D01*
X128940702Y-105994080D01*
X128968156Y-105996868D01*
X128995811Y-105999971D01*
X128998907Y-105999992D01*
X128998952Y-105999997D01*
X128998993Y-105999993D01*
X129000000Y-106000000D01*
X129823911Y-106000000D01*
X129823911Y-106100000D01*
X129826879Y-106136511D01*
X129845825Y-106197101D01*
X129880869Y-106250036D01*
X129929247Y-106291141D01*
X129987146Y-106317176D01*
X130050000Y-106326089D01*
X130950000Y-106326089D01*
X130986511Y-106323121D01*
X131047101Y-106304175D01*
X131100036Y-106269131D01*
X131141141Y-106220753D01*
X131167176Y-106162854D01*
X131176089Y-106100000D01*
X131176089Y-105300000D01*
X131173121Y-105263489D01*
X131154175Y-105202899D01*
X131119131Y-105149964D01*
X131070753Y-105108859D01*
X131012854Y-105082824D01*
X130950000Y-105073911D01*
X130050000Y-105073911D01*
X130013489Y-105076879D01*
X129952899Y-105095825D01*
X129899964Y-105130869D01*
X129858859Y-105179247D01*
X129832824Y-105237146D01*
X129823911Y-105300000D01*
X129823911Y-105400000D01*
X129126089Y-105400000D01*
X129126089Y-104475000D01*
X131375000Y-104475000D01*
X131375000Y-102957679D01*
X131376089Y-102950000D01*
X131376089Y-108725000D01*
X131180000Y-108725000D01*
X131180000Y-107722653D01*
X131180000Y-107677347D01*
X131180000Y-107407500D01*
X131180000Y-107192500D01*
X131180000Y-106922653D01*
X131180000Y-106877347D01*
X131171161Y-106832911D01*
X131153823Y-106791054D01*
X131128653Y-106753384D01*
X131096616Y-106721347D01*
X131058946Y-106696177D01*
X131017089Y-106678839D01*
X130972653Y-106670000D01*
X130607500Y-106670000D01*
X130550000Y-106727500D01*
X130550000Y-107250000D01*
X131122500Y-107250000D01*
X131180000Y-107192500D01*
X131180000Y-107407500D01*
X131122500Y-107350000D01*
X130550000Y-107350000D01*
X130550000Y-107872500D01*
X130607500Y-107930000D01*
X130972653Y-107930000D01*
X131017089Y-107921161D01*
X131058946Y-107903823D01*
X131096616Y-107878653D01*
X131128653Y-107846616D01*
X131153823Y-107808946D01*
X131171161Y-107767089D01*
X131180000Y-107722653D01*
X131180000Y-108725000D01*
X130450000Y-108725000D01*
X130450000Y-107872500D01*
X130450000Y-107350000D01*
X130450000Y-107250000D01*
X130450000Y-106727500D01*
X130392500Y-106670000D01*
X130027347Y-106670000D01*
X129982911Y-106678839D01*
X129941054Y-106696177D01*
X129903384Y-106721347D01*
X129871347Y-106753384D01*
X129846177Y-106791054D01*
X129828839Y-106832911D01*
X129820000Y-106877347D01*
X129820000Y-106922653D01*
X129820000Y-107192500D01*
X129877500Y-107250000D01*
X130450000Y-107250000D01*
X130450000Y-107350000D01*
X129877500Y-107350000D01*
X129820000Y-107407500D01*
X129820000Y-107677347D01*
X129820000Y-107722653D01*
X129828839Y-107767089D01*
X129846177Y-107808946D01*
X129871347Y-107846616D01*
X129903384Y-107878653D01*
X129941054Y-107903823D01*
X129982911Y-107921161D01*
X130027347Y-107930000D01*
X130392500Y-107930000D01*
X130450000Y-107872500D01*
X130450000Y-108725000D01*
X129126089Y-108725000D01*
X129126089Y-107600000D01*
X129126089Y-106400000D01*
X129123121Y-106363489D01*
X129104175Y-106302899D01*
X129069131Y-106249964D01*
X129020753Y-106208859D01*
X128962854Y-106182824D01*
X128900000Y-106173911D01*
X127898175Y-106173911D01*
X127512132Y-105787868D01*
X127490722Y-105770282D01*
X127469490Y-105752466D01*
X127468107Y-105751706D01*
X127466889Y-105750705D01*
X127442488Y-105737621D01*
X127418183Y-105724259D01*
X127416677Y-105723781D01*
X127415289Y-105723037D01*
X127388818Y-105714944D01*
X127362374Y-105706556D01*
X127360804Y-105706379D01*
X127359297Y-105705919D01*
X127331758Y-105703121D01*
X127304189Y-105700029D01*
X127301102Y-105700007D01*
X127301047Y-105700002D01*
X127300995Y-105700006D01*
X127300000Y-105700000D01*
X127085000Y-105700000D01*
X127085000Y-103172500D01*
X127085000Y-102250000D01*
X127085000Y-102150000D01*
X127085000Y-101227500D01*
X127027500Y-101170000D01*
X126857653Y-101170000D01*
X126812347Y-101170000D01*
X126767911Y-101178839D01*
X126726054Y-101196177D01*
X126688384Y-101221347D01*
X126656347Y-101253384D01*
X126631177Y-101291054D01*
X126613839Y-101332911D01*
X126605000Y-101377347D01*
X126605000Y-102092500D01*
X126662500Y-102150000D01*
X127085000Y-102150000D01*
X127085000Y-102250000D01*
X126662500Y-102250000D01*
X126605000Y-102307500D01*
X126605000Y-103022653D01*
X126613839Y-103067089D01*
X126631177Y-103108946D01*
X126656347Y-103146616D01*
X126688384Y-103178653D01*
X126726054Y-103203823D01*
X126767911Y-103221161D01*
X126812347Y-103230000D01*
X126857653Y-103230000D01*
X127027500Y-103230000D01*
X127085000Y-103172500D01*
X127085000Y-105700000D01*
X126026089Y-105700000D01*
X126026089Y-105448175D01*
X126077132Y-105397132D01*
X126094717Y-105375722D01*
X126112534Y-105354490D01*
X126113293Y-105353107D01*
X126114295Y-105351889D01*
X126127378Y-105327488D01*
X126140741Y-105303183D01*
X126141218Y-105301677D01*
X126141963Y-105300289D01*
X126150055Y-105273818D01*
X126158444Y-105247374D01*
X126158620Y-105245804D01*
X126159081Y-105244297D01*
X126161878Y-105216758D01*
X126164971Y-105189189D01*
X126164992Y-105186102D01*
X126164998Y-105186047D01*
X126164993Y-105185995D01*
X126165000Y-105185000D01*
X126165000Y-103226089D01*
X126201511Y-103223121D01*
X126262101Y-103204175D01*
X126315036Y-103169131D01*
X126356141Y-103120753D01*
X126382176Y-103062854D01*
X126391089Y-103000000D01*
X126391089Y-101400000D01*
X126388121Y-101363489D01*
X126369175Y-101302899D01*
X126334131Y-101249964D01*
X126285753Y-101208859D01*
X126227854Y-101182824D01*
X126165000Y-101173911D01*
X125565000Y-101173911D01*
X125528489Y-101176879D01*
X125467899Y-101195825D01*
X125414964Y-101230869D01*
X125373859Y-101279247D01*
X125347824Y-101337146D01*
X125338911Y-101400000D01*
X125338911Y-103000000D01*
X125341879Y-103036511D01*
X125360825Y-103097101D01*
X125395869Y-103150036D01*
X125444247Y-103191141D01*
X125502146Y-103217176D01*
X125565000Y-103226089D01*
X125565000Y-104973911D01*
X125125000Y-104973911D01*
X125125000Y-103022653D01*
X125125000Y-102307500D01*
X125125000Y-102092500D01*
X125125000Y-101377347D01*
X125116161Y-101332911D01*
X125098823Y-101291054D01*
X125073653Y-101253384D01*
X125041616Y-101221347D01*
X125003946Y-101196177D01*
X124962089Y-101178839D01*
X124917653Y-101170000D01*
X124872347Y-101170000D01*
X124702500Y-101170000D01*
X124645000Y-101227500D01*
X124645000Y-102150000D01*
X125067500Y-102150000D01*
X125125000Y-102092500D01*
X125125000Y-102307500D01*
X125067500Y-102250000D01*
X124645000Y-102250000D01*
X124645000Y-103172500D01*
X124702500Y-103230000D01*
X124872347Y-103230000D01*
X124917653Y-103230000D01*
X124962089Y-103221161D01*
X125003946Y-103203823D01*
X125041616Y-103178653D01*
X125073653Y-103146616D01*
X125098823Y-103108946D01*
X125116161Y-103067089D01*
X125125000Y-103022653D01*
X125125000Y-104973911D01*
X124545000Y-104973911D01*
X124545000Y-103172500D01*
X124545000Y-102250000D01*
X124545000Y-102150000D01*
X124545000Y-101227500D01*
X124487500Y-101170000D01*
X124317653Y-101170000D01*
X124272347Y-101170000D01*
X124227911Y-101178839D01*
X124186054Y-101196177D01*
X124148384Y-101221347D01*
X124116347Y-101253384D01*
X124091177Y-101291054D01*
X124073839Y-101332911D01*
X124065000Y-101377347D01*
X124065000Y-102092500D01*
X124122500Y-102150000D01*
X124545000Y-102150000D01*
X124545000Y-102250000D01*
X124122500Y-102250000D01*
X124065000Y-102307500D01*
X124065000Y-103022653D01*
X124073839Y-103067089D01*
X124091177Y-103108946D01*
X124116347Y-103146616D01*
X124148384Y-103178653D01*
X124186054Y-103203823D01*
X124227911Y-103221161D01*
X124272347Y-103230000D01*
X124317653Y-103230000D01*
X124487500Y-103230000D01*
X124545000Y-103172500D01*
X124545000Y-104973911D01*
X124300000Y-104973911D01*
X124263489Y-104976879D01*
X124202899Y-104995825D01*
X124149964Y-105030869D01*
X124108859Y-105079247D01*
X124082824Y-105137146D01*
X124073911Y-105200000D01*
X124073911Y-106800000D01*
X124076879Y-106836511D01*
X124095825Y-106897101D01*
X124130869Y-106950036D01*
X124179247Y-106991141D01*
X124237146Y-107017176D01*
X124300000Y-107026089D01*
X125800000Y-107026089D01*
X125836511Y-107023121D01*
X125897101Y-107004175D01*
X125950036Y-106969131D01*
X125991141Y-106920753D01*
X126017176Y-106862854D01*
X126026089Y-106800000D01*
X126026089Y-106300000D01*
X127175736Y-106300000D01*
X127473911Y-106598175D01*
X127473911Y-107600000D01*
X127476879Y-107636511D01*
X127495825Y-107697101D01*
X127530869Y-107750036D01*
X127579247Y-107791141D01*
X127637146Y-107817176D01*
X127700000Y-107826089D01*
X128900000Y-107826089D01*
X128936511Y-107823121D01*
X128997101Y-107804175D01*
X129050036Y-107769131D01*
X129091141Y-107720753D01*
X129117176Y-107662854D01*
X129126089Y-107600000D01*
X129126089Y-108725000D01*
X123375102Y-108725000D01*
X123375102Y-105767119D01*
X123284635Y-105310228D01*
X123107147Y-104879610D01*
X123030000Y-104763494D01*
X123030000Y-102172653D01*
X123030000Y-101207500D01*
X123030000Y-100992500D01*
X123030000Y-100027347D01*
X123030000Y-99522653D01*
X123030000Y-99407500D01*
X122972500Y-99350000D01*
X122175000Y-99350000D01*
X122175000Y-99672500D01*
X122232500Y-99730000D01*
X122777347Y-99730000D01*
X122822653Y-99730000D01*
X122867089Y-99721161D01*
X122908946Y-99703823D01*
X122946616Y-99678653D01*
X122978653Y-99646616D01*
X123003823Y-99608946D01*
X123021161Y-99567089D01*
X123030000Y-99522653D01*
X123030000Y-100027347D01*
X123021161Y-99982911D01*
X123003823Y-99941054D01*
X122978653Y-99903384D01*
X122946616Y-99871347D01*
X122908946Y-99846177D01*
X122867089Y-99828839D01*
X122822653Y-99820000D01*
X122777347Y-99820000D01*
X122107500Y-99820000D01*
X122075000Y-99852500D01*
X122075000Y-99672500D01*
X122075000Y-99350000D01*
X121277500Y-99350000D01*
X121220000Y-99407500D01*
X121220000Y-99522653D01*
X121228839Y-99567089D01*
X121246177Y-99608946D01*
X121271347Y-99646616D01*
X121303384Y-99678653D01*
X121341054Y-99703823D01*
X121382911Y-99721161D01*
X121427347Y-99730000D01*
X121472653Y-99730000D01*
X122017500Y-99730000D01*
X122075000Y-99672500D01*
X122075000Y-99852500D01*
X122050000Y-99877500D01*
X122050000Y-101050000D01*
X122972500Y-101050000D01*
X123030000Y-100992500D01*
X123030000Y-101207500D01*
X122972500Y-101150000D01*
X122050000Y-101150000D01*
X122050000Y-102322500D01*
X122107500Y-102380000D01*
X122777347Y-102380000D01*
X122822653Y-102380000D01*
X122867089Y-102371161D01*
X122908946Y-102353823D01*
X122946616Y-102328653D01*
X122978653Y-102296616D01*
X123003823Y-102258946D01*
X123021161Y-102217089D01*
X123030000Y-102172653D01*
X123030000Y-104763494D01*
X122849399Y-104491667D01*
X122521207Y-104161176D01*
X122135073Y-103900726D01*
X121950000Y-103822928D01*
X121950000Y-102322500D01*
X121950000Y-101150000D01*
X121950000Y-101050000D01*
X121950000Y-99877500D01*
X121892500Y-99820000D01*
X121222653Y-99820000D01*
X121177347Y-99820000D01*
X121132911Y-99828839D01*
X121091054Y-99846177D01*
X121053384Y-99871347D01*
X121021347Y-99903384D01*
X120996177Y-99941054D01*
X120978839Y-99982911D01*
X120970000Y-100027347D01*
X120970000Y-100992500D01*
X121027500Y-101050000D01*
X121950000Y-101050000D01*
X121950000Y-101150000D01*
X121027500Y-101150000D01*
X120970000Y-101207500D01*
X120970000Y-102172653D01*
X120978839Y-102217089D01*
X120996177Y-102258946D01*
X121021347Y-102296616D01*
X121053384Y-102328653D01*
X121091054Y-102353823D01*
X121132911Y-102371161D01*
X121177347Y-102380000D01*
X121222653Y-102380000D01*
X121892500Y-102380000D01*
X121950000Y-102322500D01*
X121950000Y-103822928D01*
X121705705Y-103720236D01*
X121249456Y-103626581D01*
X120783706Y-103623330D01*
X120326194Y-103710605D01*
X119894348Y-103885082D01*
X119504615Y-104140116D01*
X119171841Y-104465993D01*
X118908701Y-104850299D01*
X118725218Y-105278397D01*
X118628381Y-105733980D01*
X118621878Y-106199697D01*
X118705957Y-106657806D01*
X118877415Y-107090861D01*
X119129722Y-107482364D01*
X119453267Y-107817405D01*
X119835727Y-108083222D01*
X120262533Y-108269689D01*
X120717430Y-108369704D01*
X121183089Y-108379458D01*
X121641775Y-108298580D01*
X122076016Y-108130149D01*
X122469271Y-107880581D01*
X122806563Y-107559383D01*
X123075043Y-107178788D01*
X123264485Y-106753294D01*
X123367674Y-106299107D01*
X123375102Y-105767119D01*
X123375102Y-108725000D01*
X118275000Y-108725000D01*
X118275000Y-102713396D01*
X118276879Y-102736511D01*
X118295825Y-102797101D01*
X118330869Y-102850036D01*
X118379247Y-102891141D01*
X118437146Y-102917176D01*
X118500000Y-102926089D01*
X120400000Y-102926089D01*
X120436511Y-102923121D01*
X120497101Y-102904175D01*
X120550036Y-102869131D01*
X120591141Y-102820753D01*
X120617176Y-102762854D01*
X120626089Y-102700000D01*
X120626089Y-100900000D01*
X120623121Y-100863489D01*
X120604175Y-100802899D01*
X120569131Y-100749964D01*
X120520753Y-100708859D01*
X120462854Y-100682824D01*
X120400000Y-100673911D01*
X118500000Y-100673911D01*
X118463489Y-100676879D01*
X118402899Y-100695825D01*
X118349964Y-100730869D01*
X118308859Y-100779247D01*
X118282824Y-100837146D01*
X118275000Y-100892320D01*
X118275000Y-100163396D01*
X118276879Y-100186511D01*
X118295825Y-100247101D01*
X118330869Y-100300036D01*
X118379247Y-100341141D01*
X118437146Y-100367176D01*
X118500000Y-100376089D01*
X120400000Y-100376089D01*
X120436511Y-100373121D01*
X120497101Y-100354175D01*
X120550036Y-100319131D01*
X120591141Y-100270753D01*
X120617176Y-100212854D01*
X120626089Y-100150000D01*
X120626089Y-98250000D01*
X120623121Y-98213489D01*
X120604175Y-98152899D01*
X120569131Y-98099964D01*
X120520753Y-98058859D01*
X120462854Y-98032824D01*
X120400000Y-98023911D01*
X118500000Y-98023911D01*
X118463489Y-98026879D01*
X118402899Y-98045825D01*
X118349964Y-98080869D01*
X118308859Y-98129247D01*
X118282824Y-98187146D01*
X118275000Y-98242320D01*
X118275000Y-97763396D01*
X118276879Y-97786511D01*
X118295825Y-97847101D01*
X118330869Y-97900036D01*
X118379247Y-97941141D01*
X118437146Y-97967176D01*
X118500000Y-97976089D01*
X120400000Y-97976089D01*
X120436511Y-97973121D01*
X120497101Y-97954175D01*
X120550036Y-97919131D01*
X120591141Y-97870753D01*
X120617176Y-97812854D01*
X120626089Y-97750000D01*
X120626089Y-95850000D01*
X120623121Y-95813489D01*
X120604175Y-95752899D01*
X120569131Y-95699964D01*
X120520753Y-95658859D01*
X120462854Y-95632824D01*
X120400000Y-95623911D01*
X118500000Y-95623911D01*
X118463489Y-95626879D01*
X118402899Y-95645825D01*
X118349964Y-95680869D01*
X118308859Y-95729247D01*
X118282824Y-95787146D01*
X118275000Y-95842320D01*
X118275000Y-95113396D01*
X118276879Y-95136511D01*
X118295825Y-95197101D01*
X118330869Y-95250036D01*
X118379247Y-95291141D01*
X118437146Y-95317176D01*
X118500000Y-95326089D01*
X120400000Y-95326089D01*
X120436511Y-95323121D01*
X120497101Y-95304175D01*
X120550036Y-95269131D01*
X120591141Y-95220753D01*
X120617176Y-95162854D01*
X120626089Y-95100000D01*
X120626089Y-93300000D01*
X120623121Y-93263489D01*
X120604175Y-93202899D01*
X120569131Y-93149964D01*
X120520753Y-93108859D01*
X120462854Y-93082824D01*
X120400000Y-93073911D01*
X118500000Y-93073911D01*
X118463489Y-93076879D01*
X118402899Y-93095825D01*
X118349964Y-93130869D01*
X118308859Y-93179247D01*
X118282824Y-93237146D01*
X118275000Y-93292320D01*
X118275000Y-87275000D01*
X149725000Y-87275000D01*
X149725000Y-108725000D01*
X149725000Y-108725000D01*
G37*
X149725000Y-108725000D02*
X149375102Y-108725000D01*
X149375102Y-105767119D01*
X149375102Y-89767119D01*
X149284635Y-89310228D01*
X149107147Y-88879610D01*
X148849399Y-88491667D01*
X148521207Y-88161176D01*
X148135073Y-87900726D01*
X147705705Y-87720236D01*
X147249456Y-87626581D01*
X146783706Y-87623330D01*
X146326194Y-87710605D01*
X145894348Y-87885082D01*
X145504615Y-88140116D01*
X145171841Y-88465993D01*
X144908701Y-88850299D01*
X144725218Y-89278397D01*
X144628381Y-89733980D01*
X144621878Y-90199697D01*
X144705957Y-90657806D01*
X144877415Y-91090861D01*
X145129722Y-91482364D01*
X145453267Y-91817405D01*
X145835727Y-92083222D01*
X146262533Y-92269689D01*
X146717430Y-92369704D01*
X147183089Y-92379458D01*
X147641775Y-92298580D01*
X148076016Y-92130149D01*
X148469271Y-91880581D01*
X148806563Y-91559383D01*
X149075043Y-91178788D01*
X149264485Y-90753294D01*
X149367674Y-90299107D01*
X149375102Y-89767119D01*
X149375102Y-105767119D01*
X149284635Y-105310228D01*
X149107147Y-104879610D01*
X148849399Y-104491667D01*
X148521207Y-104161176D01*
X148135073Y-103900726D01*
X147705705Y-103720236D01*
X147249456Y-103626581D01*
X147119651Y-103625674D01*
X147119651Y-95636194D01*
X147119651Y-94863806D01*
X147115536Y-94805615D01*
X147003563Y-94557505D01*
X146845338Y-94336008D01*
X146646941Y-94149635D01*
X146415997Y-94005548D01*
X146161380Y-93909285D01*
X145892876Y-93864545D01*
X145675000Y-93960823D01*
X145675000Y-95075000D01*
X147069243Y-95075000D01*
X147119651Y-94863806D01*
X147119651Y-95636194D01*
X147069243Y-95425000D01*
X145675000Y-95425000D01*
X145675000Y-96539177D01*
X145892876Y-96635455D01*
X146161380Y-96590715D01*
X146415997Y-96494452D01*
X146646941Y-96350365D01*
X146845338Y-96163992D01*
X147003563Y-95942495D01*
X147115536Y-95694385D01*
X147119651Y-95636194D01*
X147119651Y-103625674D01*
X146926089Y-103624323D01*
X146926089Y-99750000D01*
X146926089Y-97750000D01*
X146923121Y-97713489D01*
X146904175Y-97652899D01*
X146869131Y-97599964D01*
X146820753Y-97558859D01*
X146762854Y-97532824D01*
X146700000Y-97523911D01*
X145325000Y-97523911D01*
X145325000Y-96539177D01*
X145325000Y-95425000D01*
X145325000Y-95075000D01*
X145325000Y-93960823D01*
X145107124Y-93864545D01*
X144838620Y-93909285D01*
X144584003Y-94005548D01*
X144353059Y-94149635D01*
X144154662Y-94336008D01*
X143996437Y-94557505D01*
X143884464Y-94805615D01*
X143880349Y-94863806D01*
X143930757Y-95075000D01*
X145325000Y-95075000D01*
X145325000Y-95425000D01*
X143930757Y-95425000D01*
X143880349Y-95636194D01*
X143884464Y-95694385D01*
X143996437Y-95942495D01*
X144154662Y-96163992D01*
X144353059Y-96350365D01*
X144584003Y-96494452D01*
X144838620Y-96590715D01*
X145107124Y-96635455D01*
X145325000Y-96539177D01*
X145325000Y-97523911D01*
X145299215Y-97523911D01*
X143225000Y-95449695D01*
X143225000Y-92328483D01*
X143285841Y-92310114D01*
X143479702Y-92207036D01*
X143649850Y-92068267D01*
X143789804Y-91899092D01*
X143894233Y-91705955D01*
X143959159Y-91496213D01*
X143982110Y-91277854D01*
X143962210Y-91059196D01*
X143900219Y-90848568D01*
X143825000Y-90704686D01*
X143825000Y-89841085D01*
X143847101Y-89834175D01*
X143900036Y-89799131D01*
X143941141Y-89750753D01*
X143967176Y-89692854D01*
X143976089Y-89630000D01*
X143976089Y-87830000D01*
X143973121Y-87793489D01*
X143954175Y-87732899D01*
X143919131Y-87679964D01*
X143870753Y-87638859D01*
X143812854Y-87612824D01*
X143750000Y-87603911D01*
X141250000Y-87603911D01*
X141213489Y-87606879D01*
X141152899Y-87625825D01*
X141099964Y-87660869D01*
X141058859Y-87709247D01*
X141032824Y-87767146D01*
X141023911Y-87830000D01*
X141023911Y-88005000D01*
X140370000Y-88005000D01*
X140303400Y-88011530D01*
X140236635Y-88017372D01*
X140232972Y-88018436D01*
X140229180Y-88018808D01*
X140165076Y-88038161D01*
X140100758Y-88056848D01*
X140097374Y-88058601D01*
X140093724Y-88059704D01*
X140034568Y-88091157D01*
X139975137Y-88121964D01*
X139972159Y-88124340D01*
X139968791Y-88126132D01*
X139916843Y-88168499D01*
X139864556Y-88210240D01*
X139859256Y-88215466D01*
X139859140Y-88215561D01*
X139859050Y-88215668D01*
X139857348Y-88217348D01*
X139487348Y-88587348D01*
X139444880Y-88639049D01*
X139401793Y-88690399D01*
X139399955Y-88693742D01*
X139397537Y-88696686D01*
X139365910Y-88755668D01*
X139333627Y-88814392D01*
X139332473Y-88818027D01*
X139330673Y-88821386D01*
X139311090Y-88885434D01*
X139290843Y-88949264D01*
X139290418Y-88953049D01*
X139289303Y-88956698D01*
X139282529Y-89023381D01*
X139275071Y-89089877D01*
X139275018Y-89097323D01*
X139275004Y-89097469D01*
X139275016Y-89097604D01*
X139275000Y-89100000D01*
X139275000Y-94423911D01*
X138800000Y-94423911D01*
X138786603Y-94425000D01*
X138706802Y-94425000D01*
X138652831Y-94478970D01*
X138649964Y-94480869D01*
X138644487Y-94487314D01*
X137507891Y-95623911D01*
X137050000Y-95623911D01*
X137036603Y-95625000D01*
X136825000Y-95625000D01*
X136825000Y-95842320D01*
X136823911Y-95850000D01*
X136823911Y-97150000D01*
X136825000Y-97163396D01*
X136825000Y-97375000D01*
X137042320Y-97375000D01*
X137050000Y-97376089D01*
X137950000Y-97376089D01*
X137963396Y-97375000D01*
X138043198Y-97375000D01*
X138097168Y-97321029D01*
X138100036Y-97319131D01*
X138105512Y-97312685D01*
X139442109Y-95976089D01*
X141200000Y-95976089D01*
X141213396Y-95975000D01*
X141425000Y-95975000D01*
X141425000Y-95757679D01*
X141426089Y-95750000D01*
X141426089Y-94650000D01*
X141425000Y-94636603D01*
X141425000Y-94425000D01*
X141207679Y-94425000D01*
X141200000Y-94423911D01*
X140725000Y-94423911D01*
X140725000Y-89455000D01*
X141023911Y-89455000D01*
X141023911Y-89630000D01*
X141026879Y-89666511D01*
X141045825Y-89727101D01*
X141080869Y-89780036D01*
X141129247Y-89821141D01*
X141175000Y-89841714D01*
X141175000Y-90706001D01*
X141105767Y-90834045D01*
X141040841Y-91043787D01*
X141017890Y-91262146D01*
X141037790Y-91480804D01*
X141099781Y-91691432D01*
X141201503Y-91886009D01*
X141339081Y-92057121D01*
X141507275Y-92198253D01*
X141699678Y-92304027D01*
X141775000Y-92327920D01*
X141775000Y-95750000D01*
X141781530Y-95816599D01*
X141787372Y-95883365D01*
X141788436Y-95887027D01*
X141788808Y-95890820D01*
X141808161Y-95954923D01*
X141826848Y-96019242D01*
X141828601Y-96022625D01*
X141829704Y-96026276D01*
X141861157Y-96085431D01*
X141891964Y-96144863D01*
X141894340Y-96147840D01*
X141896132Y-96151209D01*
X141938499Y-96203156D01*
X141980240Y-96255444D01*
X141985466Y-96260743D01*
X141985561Y-96260860D01*
X141985668Y-96260949D01*
X141987348Y-96262652D01*
X144073911Y-98349215D01*
X144073911Y-99750000D01*
X144074048Y-99751687D01*
X141625736Y-102200000D01*
X141426089Y-102200000D01*
X141426089Y-98350000D01*
X141426089Y-97250000D01*
X141425000Y-97236603D01*
X141425000Y-97025000D01*
X141207679Y-97025000D01*
X141200000Y-97023911D01*
X138800000Y-97023911D01*
X138786603Y-97025000D01*
X138706802Y-97025000D01*
X138652831Y-97078970D01*
X138649964Y-97080869D01*
X138644487Y-97087314D01*
X138206802Y-97525000D01*
X136882679Y-97525000D01*
X136875000Y-97523911D01*
X136180000Y-97523911D01*
X136180000Y-97172653D01*
X136180000Y-96607500D01*
X136180000Y-96392500D01*
X136180000Y-95827347D01*
X136171161Y-95782911D01*
X136153823Y-95741054D01*
X136128653Y-95703384D01*
X136096616Y-95671347D01*
X136058946Y-95646177D01*
X136017089Y-95628839D01*
X135972653Y-95620000D01*
X135927347Y-95620000D01*
X135607500Y-95620000D01*
X135550000Y-95677500D01*
X135550000Y-96450000D01*
X136122500Y-96450000D01*
X136180000Y-96392500D01*
X136180000Y-96607500D01*
X136122500Y-96550000D01*
X135550000Y-96550000D01*
X135550000Y-97322500D01*
X135607500Y-97380000D01*
X135927347Y-97380000D01*
X135972653Y-97380000D01*
X136017089Y-97371161D01*
X136058946Y-97353823D01*
X136096616Y-97328653D01*
X136128653Y-97296616D01*
X136153823Y-97258946D01*
X136171161Y-97217089D01*
X136180000Y-97172653D01*
X136180000Y-97523911D01*
X135825000Y-97523911D01*
X135811603Y-97525000D01*
X135625000Y-97525000D01*
X135625000Y-97648948D01*
X135607824Y-97687146D01*
X135598911Y-97750000D01*
X135598911Y-98350000D01*
X135601879Y-98386511D01*
X135620825Y-98447101D01*
X135625000Y-98453407D01*
X135625000Y-98575000D01*
X135631903Y-98575000D01*
X135621177Y-98591054D01*
X135603839Y-98632911D01*
X135595000Y-98677347D01*
X135595000Y-98892500D01*
X135652500Y-98950000D01*
X136300000Y-98950000D01*
X136300000Y-98930000D01*
X136400000Y-98930000D01*
X136400000Y-98950000D01*
X137047500Y-98950000D01*
X137105000Y-98892500D01*
X137105000Y-98677347D01*
X137096161Y-98632911D01*
X137078823Y-98591054D01*
X137068096Y-98575000D01*
X138792320Y-98575000D01*
X138800000Y-98576089D01*
X141200000Y-98576089D01*
X141213396Y-98575000D01*
X141425000Y-98575000D01*
X141425000Y-98357679D01*
X141426089Y-98350000D01*
X141426089Y-102200000D01*
X137926089Y-102200000D01*
X137926089Y-102050000D01*
X137923121Y-102013489D01*
X137904175Y-101952899D01*
X137869131Y-101899964D01*
X137820753Y-101858859D01*
X137762854Y-101832824D01*
X137700000Y-101823911D01*
X136900000Y-101823911D01*
X136863489Y-101826879D01*
X136802899Y-101845825D01*
X136749964Y-101880869D01*
X136708859Y-101929247D01*
X136682824Y-101987146D01*
X136673911Y-102050000D01*
X136673911Y-102950000D01*
X136676879Y-102986511D01*
X136695825Y-103047101D01*
X136730869Y-103100036D01*
X136779247Y-103141141D01*
X136837146Y-103167176D01*
X136900000Y-103176089D01*
X137000000Y-103176089D01*
X137000000Y-103323911D01*
X136900000Y-103323911D01*
X136863489Y-103326879D01*
X136802899Y-103345825D01*
X136749964Y-103380869D01*
X136708859Y-103429247D01*
X136682824Y-103487146D01*
X136673911Y-103550000D01*
X136673911Y-104450000D01*
X136676879Y-104486511D01*
X136695825Y-104547101D01*
X136730869Y-104600036D01*
X136779247Y-104641141D01*
X136837146Y-104667176D01*
X136900000Y-104676089D01*
X137251825Y-104676089D01*
X138782472Y-106206736D01*
X138757703Y-106264529D01*
X138726103Y-106413194D01*
X138723981Y-106565164D01*
X138751417Y-106714653D01*
X138807367Y-106855965D01*
X138889699Y-106983719D01*
X138995277Y-107093048D01*
X139120079Y-107179788D01*
X139259353Y-107240635D01*
X139407793Y-107273272D01*
X139559745Y-107276455D01*
X139709421Y-107250063D01*
X139851121Y-107195101D01*
X139979446Y-107113663D01*
X140089510Y-107008851D01*
X140177119Y-106884657D01*
X140238937Y-106745812D01*
X140272609Y-106597603D01*
X140275033Y-106424007D01*
X140245513Y-106274916D01*
X140187595Y-106134399D01*
X140103488Y-106007807D01*
X139996394Y-105899963D01*
X139870392Y-105814974D01*
X139730283Y-105756077D01*
X139581402Y-105725516D01*
X139429420Y-105724455D01*
X139280127Y-105752934D01*
X139206817Y-105782553D01*
X137919652Y-104495388D01*
X137926089Y-104450000D01*
X137926089Y-103550000D01*
X137923121Y-103513489D01*
X137904175Y-103452899D01*
X137869131Y-103399964D01*
X137820753Y-103358859D01*
X137762854Y-103332824D01*
X137700000Y-103323911D01*
X137600000Y-103323911D01*
X137600000Y-103176089D01*
X137700000Y-103176089D01*
X137736511Y-103173121D01*
X137797101Y-103154175D01*
X137850036Y-103119131D01*
X137891141Y-103070753D01*
X137917176Y-103012854D01*
X137926089Y-102950000D01*
X137926089Y-102800000D01*
X141750000Y-102800000D01*
X141777611Y-102797292D01*
X141805185Y-102794880D01*
X141806694Y-102794441D01*
X141808270Y-102794287D01*
X141834845Y-102786263D01*
X141861410Y-102778546D01*
X141862810Y-102777820D01*
X141864321Y-102777364D01*
X141888790Y-102764352D01*
X141913391Y-102751601D01*
X141914624Y-102750616D01*
X141916017Y-102749876D01*
X141937465Y-102732382D01*
X141959149Y-102715074D01*
X141961347Y-102712905D01*
X141961390Y-102712871D01*
X141961422Y-102712831D01*
X141962132Y-102712132D01*
X144698175Y-99976089D01*
X146700000Y-99976089D01*
X146736511Y-99973121D01*
X146797101Y-99954175D01*
X146850036Y-99919131D01*
X146891141Y-99870753D01*
X146917176Y-99812854D01*
X146926089Y-99750000D01*
X146926089Y-103624323D01*
X146783706Y-103623330D01*
X146326194Y-103710605D01*
X145894348Y-103885082D01*
X145504615Y-104140116D01*
X145171841Y-104465993D01*
X144908701Y-104850299D01*
X144725218Y-105278397D01*
X144628381Y-105733980D01*
X144621878Y-106199697D01*
X144705957Y-106657806D01*
X144877415Y-107090861D01*
X145129722Y-107482364D01*
X145453267Y-107817405D01*
X145835727Y-108083222D01*
X146262533Y-108269689D01*
X146717430Y-108369704D01*
X147183089Y-108379458D01*
X147641775Y-108298580D01*
X148076016Y-108130149D01*
X148469271Y-107880581D01*
X148806563Y-107559383D01*
X149075043Y-107178788D01*
X149264485Y-106753294D01*
X149367674Y-106299107D01*
X149375102Y-105767119D01*
X149375102Y-108725000D01*
X137775033Y-108725000D01*
X137775033Y-106424007D01*
X137745513Y-106274916D01*
X137687595Y-106134399D01*
X137603488Y-106007807D01*
X137496394Y-105899963D01*
X137370392Y-105814974D01*
X137230283Y-105756077D01*
X137081402Y-105725516D01*
X136929420Y-105724455D01*
X136780127Y-105752934D01*
X136706817Y-105782553D01*
X136000000Y-105075736D01*
X136000000Y-104676089D01*
X136100000Y-104676089D01*
X136136511Y-104673121D01*
X136197101Y-104654175D01*
X136250036Y-104619131D01*
X136291141Y-104570753D01*
X136317176Y-104512854D01*
X136326089Y-104450000D01*
X136326089Y-103550000D01*
X136323121Y-103513489D01*
X136304175Y-103452899D01*
X136269131Y-103399964D01*
X136220753Y-103358859D01*
X136162854Y-103332824D01*
X136100000Y-103323911D01*
X136000000Y-103323911D01*
X136000000Y-103176089D01*
X136100000Y-103176089D01*
X136136511Y-103173121D01*
X136197101Y-103154175D01*
X136250036Y-103119131D01*
X136291141Y-103070753D01*
X136317176Y-103012854D01*
X136326089Y-102950000D01*
X136326089Y-102050000D01*
X136323121Y-102013489D01*
X136304175Y-101952899D01*
X136269131Y-101899964D01*
X136220753Y-101858859D01*
X136162854Y-101832824D01*
X136100000Y-101823911D01*
X135300000Y-101823911D01*
X135263489Y-101826879D01*
X135202899Y-101845825D01*
X135149964Y-101880869D01*
X135108859Y-101929247D01*
X135082824Y-101987146D01*
X135073911Y-102050000D01*
X135073911Y-102200000D01*
X134926089Y-102200000D01*
X134926089Y-102050000D01*
X134923121Y-102013489D01*
X134904175Y-101952899D01*
X134869131Y-101899964D01*
X134820753Y-101858859D01*
X134762854Y-101832824D01*
X134700000Y-101823911D01*
X134048175Y-101823911D01*
X133950000Y-101725736D01*
X133950000Y-100476089D01*
X134175000Y-100476089D01*
X134211511Y-100473121D01*
X134272101Y-100454175D01*
X134325036Y-100419131D01*
X134366141Y-100370753D01*
X134392176Y-100312854D01*
X134401089Y-100250000D01*
X134401089Y-99825353D01*
X134737868Y-100162132D01*
X134759304Y-100179740D01*
X134780510Y-100197534D01*
X134781888Y-100198291D01*
X134783111Y-100199296D01*
X134807550Y-100212399D01*
X134831817Y-100225741D01*
X134833322Y-100226218D01*
X134834711Y-100226963D01*
X134861181Y-100235055D01*
X134887626Y-100243444D01*
X134889195Y-100243620D01*
X134890703Y-100244081D01*
X134918241Y-100246878D01*
X134945811Y-100249971D01*
X134948897Y-100249992D01*
X134948953Y-100249998D01*
X134949004Y-100249993D01*
X134950000Y-100250000D01*
X135598911Y-100250000D01*
X135601879Y-100286511D01*
X135620825Y-100347101D01*
X135655869Y-100400036D01*
X135704247Y-100441141D01*
X135762146Y-100467176D01*
X135825000Y-100476089D01*
X136875000Y-100476089D01*
X136911511Y-100473121D01*
X136972101Y-100454175D01*
X137025036Y-100419131D01*
X137066141Y-100370753D01*
X137092176Y-100312854D01*
X137101089Y-100250000D01*
X137101089Y-99650000D01*
X137098121Y-99613489D01*
X137079175Y-99552899D01*
X137044131Y-99499964D01*
X137020179Y-99479613D01*
X137021616Y-99478653D01*
X137053653Y-99446616D01*
X137078823Y-99408946D01*
X137096161Y-99367089D01*
X137105000Y-99322653D01*
X137105000Y-99107500D01*
X137047500Y-99050000D01*
X136400000Y-99050000D01*
X136400000Y-99070000D01*
X136300000Y-99070000D01*
X136300000Y-99050000D01*
X135652500Y-99050000D01*
X135595000Y-99107500D01*
X135595000Y-99322653D01*
X135603839Y-99367089D01*
X135621177Y-99408946D01*
X135646347Y-99446616D01*
X135678355Y-99478624D01*
X135674964Y-99480869D01*
X135633859Y-99529247D01*
X135607824Y-99587146D01*
X135598911Y-99650000D01*
X135450000Y-99650000D01*
X135450000Y-97322500D01*
X135450000Y-96550000D01*
X135450000Y-96450000D01*
X135450000Y-95677500D01*
X135392500Y-95620000D01*
X135072653Y-95620000D01*
X135027347Y-95620000D01*
X134982911Y-95628839D01*
X134941054Y-95646177D01*
X134903384Y-95671347D01*
X134871347Y-95703384D01*
X134846177Y-95741054D01*
X134828839Y-95782911D01*
X134820000Y-95827347D01*
X134820000Y-96392500D01*
X134877500Y-96450000D01*
X135450000Y-96450000D01*
X135450000Y-96550000D01*
X134877500Y-96550000D01*
X134820000Y-96607500D01*
X134820000Y-97172653D01*
X134828839Y-97217089D01*
X134846177Y-97258946D01*
X134871347Y-97296616D01*
X134903384Y-97328653D01*
X134941054Y-97353823D01*
X134982911Y-97371161D01*
X135027347Y-97380000D01*
X135072653Y-97380000D01*
X135392500Y-97380000D01*
X135450000Y-97322500D01*
X135450000Y-99650000D01*
X135074264Y-99650000D01*
X134680000Y-99255736D01*
X134680000Y-97172653D01*
X134680000Y-96607500D01*
X134680000Y-96392500D01*
X134680000Y-95827347D01*
X134671161Y-95782911D01*
X134653823Y-95741054D01*
X134628653Y-95703384D01*
X134596616Y-95671347D01*
X134558946Y-95646177D01*
X134517089Y-95628839D01*
X134472653Y-95620000D01*
X134427347Y-95620000D01*
X134107500Y-95620000D01*
X134050000Y-95677500D01*
X134050000Y-96450000D01*
X134622500Y-96450000D01*
X134680000Y-96392500D01*
X134680000Y-96607500D01*
X134622500Y-96550000D01*
X134050000Y-96550000D01*
X134050000Y-97322500D01*
X134107500Y-97380000D01*
X134427347Y-97380000D01*
X134472653Y-97380000D01*
X134517089Y-97371161D01*
X134558946Y-97353823D01*
X134596616Y-97328653D01*
X134628653Y-97296616D01*
X134653823Y-97258946D01*
X134671161Y-97217089D01*
X134680000Y-97172653D01*
X134680000Y-99255736D01*
X134000353Y-98576089D01*
X134175000Y-98576089D01*
X134188396Y-98575000D01*
X134375000Y-98575000D01*
X134375000Y-98451051D01*
X134392176Y-98412854D01*
X134401089Y-98350000D01*
X134401089Y-97750000D01*
X134398121Y-97713489D01*
X134379175Y-97652899D01*
X134375000Y-97646592D01*
X134375000Y-97525000D01*
X134182679Y-97525000D01*
X134175000Y-97523911D01*
X133950000Y-97523911D01*
X133950000Y-97322500D01*
X133950000Y-96550000D01*
X133950000Y-96450000D01*
X133950000Y-95677500D01*
X133892500Y-95620000D01*
X133572653Y-95620000D01*
X133527347Y-95620000D01*
X133482911Y-95628839D01*
X133441054Y-95646177D01*
X133403384Y-95671347D01*
X133371347Y-95703384D01*
X133346177Y-95741054D01*
X133328839Y-95782911D01*
X133320000Y-95827347D01*
X133320000Y-96392500D01*
X133377500Y-96450000D01*
X133950000Y-96450000D01*
X133950000Y-96550000D01*
X133377500Y-96550000D01*
X133320000Y-96607500D01*
X133320000Y-97172653D01*
X133328839Y-97217089D01*
X133346177Y-97258946D01*
X133371347Y-97296616D01*
X133403384Y-97328653D01*
X133441054Y-97353823D01*
X133482911Y-97371161D01*
X133527347Y-97380000D01*
X133572653Y-97380000D01*
X133892500Y-97380000D01*
X133950000Y-97322500D01*
X133950000Y-97523911D01*
X133392109Y-97523911D01*
X132676089Y-96807891D01*
X132676089Y-95942109D01*
X134975000Y-93643198D01*
X134975000Y-92707679D01*
X134976089Y-92700000D01*
X134976089Y-90300000D01*
X134975000Y-90286603D01*
X134975000Y-90075000D01*
X134757679Y-90075000D01*
X134750000Y-90073911D01*
X132750000Y-90073911D01*
X132736603Y-90075000D01*
X132525000Y-90075000D01*
X132525000Y-90292320D01*
X132523911Y-90300000D01*
X132523911Y-92607891D01*
X131635455Y-93496347D01*
X131635455Y-91892876D01*
X131635455Y-91107124D01*
X131590715Y-90838620D01*
X131494452Y-90584003D01*
X131350365Y-90353059D01*
X131163992Y-90154662D01*
X130942495Y-89996437D01*
X130694385Y-89884464D01*
X130636194Y-89880349D01*
X130425000Y-89930757D01*
X130425000Y-91325000D01*
X131539177Y-91325000D01*
X131635455Y-91107124D01*
X131635455Y-91892876D01*
X131539177Y-91675000D01*
X130425000Y-91675000D01*
X130425000Y-93069243D01*
X130636194Y-93119651D01*
X130694385Y-93115536D01*
X130942495Y-93003563D01*
X131163992Y-92845338D01*
X131350365Y-92646941D01*
X131494452Y-92415997D01*
X131590715Y-92161380D01*
X131635455Y-91892876D01*
X131635455Y-93496347D01*
X130075000Y-95056802D01*
X130075000Y-93069243D01*
X130075000Y-91675000D01*
X130075000Y-91325000D01*
X130075000Y-89930757D01*
X129863806Y-89880349D01*
X129805615Y-89884464D01*
X129557505Y-89996437D01*
X129336008Y-90154662D01*
X129149635Y-90353059D01*
X129005548Y-90584003D01*
X128909285Y-90838620D01*
X128864545Y-91107124D01*
X128960823Y-91325000D01*
X130075000Y-91325000D01*
X130075000Y-91675000D01*
X128960823Y-91675000D01*
X128864545Y-91892876D01*
X128909285Y-92161380D01*
X129005548Y-92415997D01*
X129149635Y-92646941D01*
X129336008Y-92845338D01*
X129557505Y-93003563D01*
X129805615Y-93115536D01*
X129863806Y-93119651D01*
X130075000Y-93069243D01*
X130075000Y-95056802D01*
X129356802Y-95775000D01*
X128712679Y-95775000D01*
X128705000Y-95773911D01*
X128105000Y-95773911D01*
X128091603Y-95775000D01*
X127875000Y-95775000D01*
X127875000Y-97825000D01*
X128097320Y-97825000D01*
X128105000Y-97826089D01*
X128705000Y-97826089D01*
X128718396Y-97825000D01*
X130556802Y-97825000D01*
X131306802Y-98575000D01*
X133117320Y-98575000D01*
X133125000Y-98576089D01*
X133350000Y-98576089D01*
X133350000Y-98650000D01*
X133352707Y-98677611D01*
X133355120Y-98705185D01*
X133355558Y-98706694D01*
X133355713Y-98708270D01*
X133363736Y-98734845D01*
X133371454Y-98761410D01*
X133372179Y-98762810D01*
X133372636Y-98764321D01*
X133385647Y-98788790D01*
X133398399Y-98813391D01*
X133399383Y-98814624D01*
X133400124Y-98816017D01*
X133417617Y-98837465D01*
X133434926Y-98859149D01*
X133437094Y-98861347D01*
X133437129Y-98861390D01*
X133437168Y-98861422D01*
X133437868Y-98862132D01*
X133999647Y-99423911D01*
X133125000Y-99423911D01*
X133088489Y-99426879D01*
X133027899Y-99445825D01*
X132974964Y-99480869D01*
X132933859Y-99529247D01*
X132907824Y-99587146D01*
X132898911Y-99650000D01*
X132898911Y-100250000D01*
X132901879Y-100286511D01*
X132920825Y-100347101D01*
X132955869Y-100400036D01*
X133004247Y-100441141D01*
X133062146Y-100467176D01*
X133125000Y-100476089D01*
X133350000Y-100476089D01*
X133350000Y-101850000D01*
X133352707Y-101877611D01*
X133355120Y-101905185D01*
X133355558Y-101906694D01*
X133355713Y-101908270D01*
X133363736Y-101934845D01*
X133371454Y-101961410D01*
X133372179Y-101962810D01*
X133372636Y-101964321D01*
X133385647Y-101988790D01*
X133398399Y-102013391D01*
X133399383Y-102014624D01*
X133400124Y-102016017D01*
X133417617Y-102037465D01*
X133434926Y-102059149D01*
X133437094Y-102061347D01*
X133437129Y-102061390D01*
X133437168Y-102061422D01*
X133437868Y-102062132D01*
X133673911Y-102298175D01*
X133673911Y-102950000D01*
X133676879Y-102986511D01*
X133695825Y-103047101D01*
X133730869Y-103100036D01*
X133779247Y-103141141D01*
X133837146Y-103167176D01*
X133900000Y-103176089D01*
X134700000Y-103176089D01*
X134736511Y-103173121D01*
X134797101Y-103154175D01*
X134850036Y-103119131D01*
X134891141Y-103070753D01*
X134917176Y-103012854D01*
X134926089Y-102950000D01*
X134926089Y-102800000D01*
X135073911Y-102800000D01*
X135073911Y-102950000D01*
X135076879Y-102986511D01*
X135095825Y-103047101D01*
X135130869Y-103100036D01*
X135179247Y-103141141D01*
X135237146Y-103167176D01*
X135300000Y-103176089D01*
X135400000Y-103176089D01*
X135400000Y-103323911D01*
X135300000Y-103323911D01*
X135263489Y-103326879D01*
X135202899Y-103345825D01*
X135149964Y-103380869D01*
X135108859Y-103429247D01*
X135082824Y-103487146D01*
X135073911Y-103550000D01*
X135073911Y-104450000D01*
X135076879Y-104486511D01*
X135095825Y-104547101D01*
X135130869Y-104600036D01*
X135179247Y-104641141D01*
X135237146Y-104667176D01*
X135300000Y-104676089D01*
X135400000Y-104676089D01*
X135400000Y-105200000D01*
X135402707Y-105227611D01*
X135405120Y-105255185D01*
X135405558Y-105256694D01*
X135405713Y-105258270D01*
X135413736Y-105284845D01*
X135421454Y-105311410D01*
X135422179Y-105312810D01*
X135422636Y-105314321D01*
X135435647Y-105338790D01*
X135448399Y-105363391D01*
X135449383Y-105364624D01*
X135450124Y-105366017D01*
X135467617Y-105387465D01*
X135484926Y-105409149D01*
X135487094Y-105411347D01*
X135487129Y-105411390D01*
X135487168Y-105411422D01*
X135487868Y-105412132D01*
X136275736Y-106200000D01*
X135214634Y-106200000D01*
X135187595Y-106134399D01*
X135103488Y-106007807D01*
X134996394Y-105899963D01*
X134870392Y-105814974D01*
X134730283Y-105756077D01*
X134581402Y-105725516D01*
X134429420Y-105724455D01*
X134280127Y-105752934D01*
X134139208Y-105809869D01*
X134012032Y-105893091D01*
X133903443Y-105999429D01*
X133817576Y-106124834D01*
X133757703Y-106264529D01*
X133726103Y-106413194D01*
X133723981Y-106565164D01*
X133751417Y-106714653D01*
X133807367Y-106855965D01*
X133889699Y-106983719D01*
X133995277Y-107093048D01*
X134120079Y-107179788D01*
X134259353Y-107240635D01*
X134407793Y-107273272D01*
X134559745Y-107276455D01*
X134709421Y-107250063D01*
X134851121Y-107195101D01*
X134979446Y-107113663D01*
X135089510Y-107008851D01*
X135177119Y-106884657D01*
X135214810Y-106800000D01*
X136285208Y-106800000D01*
X136307367Y-106855965D01*
X136389699Y-106983719D01*
X136495277Y-107093048D01*
X136620079Y-107179788D01*
X136759353Y-107240635D01*
X136907793Y-107273272D01*
X137059745Y-107276455D01*
X137209421Y-107250063D01*
X137351121Y-107195101D01*
X137479446Y-107113663D01*
X137589510Y-107008851D01*
X137677119Y-106884657D01*
X137738937Y-106745812D01*
X137772609Y-106597603D01*
X137775033Y-106424007D01*
X137775033Y-108725000D01*
X133330000Y-108725000D01*
X133330000Y-102972653D01*
X133330000Y-102607500D01*
X133330000Y-102392500D01*
X133330000Y-102027347D01*
X133321161Y-101982911D01*
X133303823Y-101941054D01*
X133278653Y-101903384D01*
X133246616Y-101871347D01*
X133208946Y-101846177D01*
X133167089Y-101828839D01*
X133122653Y-101820000D01*
X133077347Y-101820000D01*
X132807500Y-101820000D01*
X132750000Y-101877500D01*
X132750000Y-102450000D01*
X133272500Y-102450000D01*
X133330000Y-102392500D01*
X133330000Y-102607500D01*
X133272500Y-102550000D01*
X132750000Y-102550000D01*
X132750000Y-103122500D01*
X132807500Y-103180000D01*
X133077347Y-103180000D01*
X133122653Y-103180000D01*
X133167089Y-103171161D01*
X133208946Y-103153823D01*
X133246616Y-103128653D01*
X133278653Y-103096616D01*
X133303823Y-103058946D01*
X133321161Y-103017089D01*
X133330000Y-102972653D01*
X133330000Y-108725000D01*
X132650000Y-108725000D01*
X132650000Y-103122500D01*
X132650000Y-102550000D01*
X132650000Y-102450000D01*
X132650000Y-101877500D01*
X132592500Y-101820000D01*
X132322653Y-101820000D01*
X132277347Y-101820000D01*
X132232911Y-101828839D01*
X132191054Y-101846177D01*
X132153384Y-101871347D01*
X132121347Y-101903384D01*
X132096177Y-101941054D01*
X132078839Y-101982911D01*
X132070000Y-102027347D01*
X132070000Y-102392500D01*
X132127500Y-102450000D01*
X132650000Y-102450000D01*
X132650000Y-102550000D01*
X132127500Y-102550000D01*
X132070000Y-102607500D01*
X132070000Y-102972653D01*
X132078839Y-103017089D01*
X132096177Y-103058946D01*
X132121347Y-103096616D01*
X132153384Y-103128653D01*
X132191054Y-103153823D01*
X132232911Y-103171161D01*
X132277347Y-103180000D01*
X132322653Y-103180000D01*
X132592500Y-103180000D01*
X132650000Y-103122500D01*
X132650000Y-108725000D01*
X131380000Y-108725000D01*
X131380000Y-100972653D01*
X131380000Y-100927347D01*
X131380000Y-100607500D01*
X131380000Y-100392500D01*
X131380000Y-100072653D01*
X131380000Y-100027347D01*
X131371161Y-99982911D01*
X131353823Y-99941054D01*
X131328653Y-99903384D01*
X131296616Y-99871347D01*
X131258946Y-99846177D01*
X131217089Y-99828839D01*
X131172653Y-99820000D01*
X130607500Y-99820000D01*
X130550000Y-99877500D01*
X130550000Y-100450000D01*
X131322500Y-100450000D01*
X131380000Y-100392500D01*
X131380000Y-100607500D01*
X131322500Y-100550000D01*
X130550000Y-100550000D01*
X130550000Y-101122500D01*
X130607500Y-101180000D01*
X131172653Y-101180000D01*
X131217089Y-101171161D01*
X131258946Y-101153823D01*
X131296616Y-101128653D01*
X131328653Y-101096616D01*
X131353823Y-101058946D01*
X131371161Y-101017089D01*
X131380000Y-100972653D01*
X131380000Y-108725000D01*
X131376089Y-108725000D01*
X131376089Y-102950000D01*
X131376089Y-102050000D01*
X131373121Y-102013489D01*
X131354175Y-101952899D01*
X131319131Y-101899964D01*
X131270753Y-101858859D01*
X131212854Y-101832824D01*
X131150000Y-101823911D01*
X130450000Y-101823911D01*
X130450000Y-101122500D01*
X130450000Y-100550000D01*
X130450000Y-100450000D01*
X130450000Y-99877500D01*
X130392500Y-99820000D01*
X129827347Y-99820000D01*
X129782911Y-99828839D01*
X129741054Y-99846177D01*
X129703384Y-99871347D01*
X129671347Y-99903384D01*
X129646177Y-99941054D01*
X129628839Y-99982911D01*
X129620000Y-100027347D01*
X129620000Y-100072653D01*
X129620000Y-100392500D01*
X129677500Y-100450000D01*
X130450000Y-100450000D01*
X130450000Y-100550000D01*
X129677500Y-100550000D01*
X129620000Y-100607500D01*
X129620000Y-100927347D01*
X129620000Y-100972653D01*
X129628839Y-101017089D01*
X129646177Y-101058946D01*
X129671347Y-101096616D01*
X129703384Y-101128653D01*
X129741054Y-101153823D01*
X129782911Y-101171161D01*
X129827347Y-101180000D01*
X130392500Y-101180000D01*
X130450000Y-101122500D01*
X130450000Y-101823911D01*
X129850000Y-101823911D01*
X129836603Y-101825000D01*
X129443198Y-101825000D01*
X128885822Y-101267624D01*
X128874131Y-101249964D01*
X128834426Y-101216228D01*
X128612018Y-100993820D01*
X128544483Y-101173911D01*
X128105000Y-101173911D01*
X128068489Y-101176879D01*
X128007899Y-101195825D01*
X127954964Y-101230869D01*
X127913859Y-101279247D01*
X127887824Y-101337146D01*
X127878911Y-101400000D01*
X127878911Y-102948770D01*
X127875000Y-102959200D01*
X127875000Y-104173911D01*
X127700000Y-104173911D01*
X127665000Y-104176756D01*
X127665000Y-103022653D01*
X127665000Y-102307500D01*
X127665000Y-102092500D01*
X127665000Y-101377347D01*
X127661089Y-101357685D01*
X127661089Y-97600000D01*
X127661089Y-96000000D01*
X127658121Y-95963489D01*
X127639175Y-95902899D01*
X127604131Y-95849964D01*
X127555753Y-95808859D01*
X127497854Y-95782824D01*
X127435000Y-95773911D01*
X127198175Y-95773911D01*
X125100326Y-93676062D01*
X125136511Y-93673121D01*
X125197101Y-93654175D01*
X125250036Y-93619131D01*
X125291141Y-93570753D01*
X125317176Y-93512854D01*
X125326089Y-93450000D01*
X125326089Y-92550000D01*
X125323121Y-92513489D01*
X125304175Y-92452899D01*
X125269131Y-92399964D01*
X125220753Y-92358859D01*
X125162854Y-92332824D01*
X125100000Y-92323911D01*
X124300353Y-92323911D01*
X124448175Y-92176089D01*
X125100000Y-92176089D01*
X125136511Y-92173121D01*
X125197101Y-92154175D01*
X125200000Y-92152255D01*
X125200000Y-92200000D01*
X125202707Y-92227611D01*
X125205120Y-92255185D01*
X125205558Y-92256694D01*
X125205713Y-92258270D01*
X125213736Y-92284845D01*
X125221454Y-92311410D01*
X125222179Y-92312810D01*
X125222636Y-92314321D01*
X125235647Y-92338790D01*
X125248399Y-92363391D01*
X125249383Y-92364624D01*
X125250124Y-92366017D01*
X125267617Y-92387465D01*
X125284926Y-92409149D01*
X125287094Y-92411347D01*
X125287129Y-92411390D01*
X125287168Y-92411422D01*
X125287868Y-92412132D01*
X125673911Y-92798175D01*
X125673911Y-93450000D01*
X125676879Y-93486511D01*
X125695825Y-93547101D01*
X125730869Y-93600036D01*
X125779247Y-93641141D01*
X125837146Y-93667176D01*
X125900000Y-93676089D01*
X126700000Y-93676089D01*
X126736511Y-93673121D01*
X126797101Y-93654175D01*
X126850036Y-93619131D01*
X126891141Y-93570753D01*
X126917176Y-93512854D01*
X126926089Y-93450000D01*
X126926089Y-92550000D01*
X126923121Y-92513489D01*
X126904175Y-92452899D01*
X126869131Y-92399964D01*
X126820753Y-92358859D01*
X126762854Y-92332824D01*
X126700000Y-92323911D01*
X126048175Y-92323911D01*
X125900353Y-92176089D01*
X126700000Y-92176089D01*
X126736511Y-92173121D01*
X126797101Y-92154175D01*
X126850036Y-92119131D01*
X126891141Y-92070753D01*
X126917176Y-92012854D01*
X126926089Y-91950000D01*
X126926089Y-91050000D01*
X126923121Y-91013489D01*
X126904175Y-90952899D01*
X126869131Y-90899964D01*
X126820753Y-90858859D01*
X126762854Y-90832824D01*
X126700000Y-90823911D01*
X126600000Y-90823911D01*
X126600000Y-90676089D01*
X126700000Y-90676089D01*
X126736511Y-90673121D01*
X126797101Y-90654175D01*
X126850036Y-90619131D01*
X126891141Y-90570753D01*
X126917176Y-90512854D01*
X126926089Y-90450000D01*
X126926089Y-89550000D01*
X126923121Y-89513489D01*
X126904175Y-89452899D01*
X126869131Y-89399964D01*
X126820753Y-89358859D01*
X126762854Y-89332824D01*
X126700000Y-89323911D01*
X125900353Y-89323911D01*
X126048175Y-89176089D01*
X126700000Y-89176089D01*
X126736511Y-89173121D01*
X126797101Y-89154175D01*
X126850036Y-89119131D01*
X126891141Y-89070753D01*
X126917176Y-89012854D01*
X126926089Y-88950000D01*
X126926089Y-88050000D01*
X126923121Y-88013489D01*
X126904175Y-87952899D01*
X126869131Y-87899964D01*
X126820753Y-87858859D01*
X126762854Y-87832824D01*
X126700000Y-87823911D01*
X125900000Y-87823911D01*
X125863489Y-87826879D01*
X125802899Y-87845825D01*
X125749964Y-87880869D01*
X125708859Y-87929247D01*
X125682824Y-87987146D01*
X125673911Y-88050000D01*
X125673911Y-88701825D01*
X125287868Y-89087868D01*
X125270282Y-89109277D01*
X125252466Y-89130510D01*
X125251706Y-89131892D01*
X125250705Y-89133111D01*
X125237621Y-89157511D01*
X125224259Y-89181817D01*
X125223781Y-89183322D01*
X125223037Y-89184711D01*
X125214944Y-89211181D01*
X125206556Y-89237626D01*
X125206379Y-89239195D01*
X125205919Y-89240703D01*
X125203121Y-89268241D01*
X125200029Y-89295811D01*
X125200007Y-89298897D01*
X125200002Y-89298953D01*
X125200006Y-89299004D01*
X125200000Y-89300000D01*
X125200000Y-89349527D01*
X125162854Y-89332824D01*
X125100000Y-89323911D01*
X125000000Y-89323911D01*
X125000000Y-89176089D01*
X125100000Y-89176089D01*
X125136511Y-89173121D01*
X125197101Y-89154175D01*
X125250036Y-89119131D01*
X125291141Y-89070753D01*
X125317176Y-89012854D01*
X125326089Y-88950000D01*
X125326089Y-88050000D01*
X125323121Y-88013489D01*
X125304175Y-87952899D01*
X125269131Y-87899964D01*
X125220753Y-87858859D01*
X125162854Y-87832824D01*
X125100000Y-87823911D01*
X124300000Y-87823911D01*
X124263489Y-87826879D01*
X124202899Y-87845825D01*
X124149964Y-87880869D01*
X124108859Y-87929247D01*
X124082824Y-87987146D01*
X124073911Y-88050000D01*
X124073911Y-88950000D01*
X124076879Y-88986511D01*
X124095825Y-89047101D01*
X124130869Y-89100036D01*
X124179247Y-89141141D01*
X124237146Y-89167176D01*
X124300000Y-89176089D01*
X124400000Y-89176089D01*
X124400000Y-89323911D01*
X124300000Y-89323911D01*
X124263489Y-89326879D01*
X124202899Y-89345825D01*
X124149964Y-89380869D01*
X124108859Y-89429247D01*
X124082824Y-89487146D01*
X124073911Y-89550000D01*
X124073911Y-90201825D01*
X123375102Y-90900634D01*
X123375102Y-89767119D01*
X123284635Y-89310228D01*
X123107147Y-88879610D01*
X122849399Y-88491667D01*
X122521207Y-88161176D01*
X122135073Y-87900726D01*
X121705705Y-87720236D01*
X121249456Y-87626581D01*
X120783706Y-87623330D01*
X120326194Y-87710605D01*
X119894348Y-87885082D01*
X119504615Y-88140116D01*
X119171841Y-88465993D01*
X118908701Y-88850299D01*
X118725218Y-89278397D01*
X118628381Y-89733980D01*
X118621878Y-90199697D01*
X118705957Y-90657806D01*
X118877415Y-91090861D01*
X119129722Y-91482364D01*
X119453267Y-91817405D01*
X119835727Y-92083222D01*
X120262533Y-92269689D01*
X120717430Y-92369704D01*
X121183089Y-92379458D01*
X121641775Y-92298580D01*
X122076016Y-92130149D01*
X122469271Y-91880581D01*
X122806563Y-91559383D01*
X123075043Y-91178788D01*
X123264485Y-90753294D01*
X123367674Y-90299107D01*
X123375102Y-89767119D01*
X123375102Y-90900634D01*
X123287868Y-90987868D01*
X123270282Y-91009277D01*
X123252466Y-91030510D01*
X123251706Y-91031892D01*
X123250705Y-91033111D01*
X123237621Y-91057511D01*
X123224259Y-91081817D01*
X123223781Y-91083322D01*
X123223037Y-91084711D01*
X123214944Y-91111181D01*
X123206556Y-91137626D01*
X123206379Y-91139195D01*
X123205919Y-91140703D01*
X123203121Y-91168241D01*
X123200029Y-91195811D01*
X123200007Y-91198897D01*
X123200002Y-91198953D01*
X123200006Y-91199004D01*
X123200000Y-91200000D01*
X123200000Y-95275000D01*
X123030000Y-95275000D01*
X123030000Y-95007500D01*
X123030000Y-94792500D01*
X123030000Y-93827347D01*
X123021161Y-93782911D01*
X123003823Y-93741054D01*
X122978653Y-93703384D01*
X122946616Y-93671347D01*
X122908946Y-93646177D01*
X122867089Y-93628839D01*
X122822653Y-93620000D01*
X122777347Y-93620000D01*
X122107500Y-93620000D01*
X122050000Y-93677500D01*
X122050000Y-94850000D01*
X122972500Y-94850000D01*
X123030000Y-94792500D01*
X123030000Y-95007500D01*
X122972500Y-94950000D01*
X122050000Y-94950000D01*
X122050000Y-96122500D01*
X122107500Y-96180000D01*
X122775000Y-96180000D01*
X122775000Y-96273911D01*
X121950000Y-96273911D01*
X121950000Y-96122500D01*
X121950000Y-94950000D01*
X121950000Y-94850000D01*
X121950000Y-93677500D01*
X121892500Y-93620000D01*
X121222653Y-93620000D01*
X121177347Y-93620000D01*
X121132911Y-93628839D01*
X121091054Y-93646177D01*
X121053384Y-93671347D01*
X121021347Y-93703384D01*
X120996177Y-93741054D01*
X120978839Y-93782911D01*
X120970000Y-93827347D01*
X120970000Y-94792500D01*
X121027500Y-94850000D01*
X121950000Y-94850000D01*
X121950000Y-94950000D01*
X121027500Y-94950000D01*
X120970000Y-95007500D01*
X120970000Y-95972653D01*
X120978839Y-96017089D01*
X120996177Y-96058946D01*
X121021347Y-96096616D01*
X121053384Y-96128653D01*
X121091054Y-96153823D01*
X121132911Y-96171161D01*
X121177347Y-96180000D01*
X121222653Y-96180000D01*
X121892500Y-96180000D01*
X121950000Y-96122500D01*
X121950000Y-96273911D01*
X121450000Y-96273911D01*
X121436603Y-96275000D01*
X121275000Y-96275000D01*
X121275000Y-96360250D01*
X121258859Y-96379247D01*
X121232824Y-96437146D01*
X121223911Y-96500000D01*
X121223911Y-96900000D01*
X121226879Y-96936511D01*
X121245825Y-96997101D01*
X121263494Y-97023791D01*
X121258859Y-97029247D01*
X121232824Y-97087146D01*
X121223911Y-97150000D01*
X121223911Y-97550000D01*
X121226879Y-97586511D01*
X121245825Y-97647101D01*
X121263494Y-97673791D01*
X121258859Y-97679247D01*
X121232824Y-97737146D01*
X121223911Y-97800000D01*
X121223911Y-98200000D01*
X121226879Y-98236511D01*
X121245825Y-98297101D01*
X121263494Y-98323791D01*
X121258859Y-98329247D01*
X121232824Y-98387146D01*
X121223911Y-98450000D01*
X121223911Y-98850000D01*
X121226879Y-98886511D01*
X121245825Y-98947101D01*
X121260616Y-98969443D01*
X121246177Y-98991054D01*
X121228839Y-99032911D01*
X121220000Y-99077347D01*
X121220000Y-99192500D01*
X121277500Y-99250000D01*
X122075000Y-99250000D01*
X122075000Y-99230000D01*
X122175000Y-99230000D01*
X122175000Y-99250000D01*
X122972500Y-99250000D01*
X123030000Y-99192500D01*
X123030000Y-99077347D01*
X123021161Y-99032911D01*
X123003823Y-98991054D01*
X122990646Y-98971334D01*
X122991141Y-98970753D01*
X123017176Y-98912854D01*
X123026089Y-98850000D01*
X123026089Y-98450000D01*
X123023121Y-98413489D01*
X123004175Y-98352899D01*
X122986505Y-98326208D01*
X122991141Y-98320753D01*
X123017176Y-98262854D01*
X123026089Y-98200000D01*
X123026089Y-97800000D01*
X123023121Y-97763489D01*
X123011085Y-97725000D01*
X124109294Y-97725000D01*
X124125869Y-97750036D01*
X124174247Y-97791141D01*
X124232146Y-97817176D01*
X124295000Y-97826089D01*
X124895000Y-97826089D01*
X124931511Y-97823121D01*
X124992101Y-97804175D01*
X125045036Y-97769131D01*
X125086141Y-97720753D01*
X125112176Y-97662854D01*
X125121089Y-97600000D01*
X125121089Y-96000000D01*
X125118121Y-95963489D01*
X125099175Y-95902899D01*
X125064131Y-95849964D01*
X125015753Y-95808859D01*
X124957854Y-95782824D01*
X124895000Y-95773911D01*
X124725000Y-95773911D01*
X124725000Y-95275000D01*
X123800000Y-95275000D01*
X123800000Y-93724264D01*
X125565000Y-95489264D01*
X125565000Y-95773911D01*
X125528489Y-95776879D01*
X125467899Y-95795825D01*
X125414964Y-95830869D01*
X125373859Y-95879247D01*
X125347824Y-95937146D01*
X125338911Y-96000000D01*
X125338911Y-97600000D01*
X125341879Y-97636511D01*
X125360825Y-97697101D01*
X125395869Y-97750036D01*
X125444247Y-97791141D01*
X125502146Y-97817176D01*
X125565000Y-97826089D01*
X126165000Y-97826089D01*
X126201511Y-97823121D01*
X126262101Y-97804175D01*
X126315036Y-97769131D01*
X126356141Y-97720753D01*
X126382176Y-97662854D01*
X126391089Y-97600000D01*
X126391089Y-96000000D01*
X126388121Y-95963489D01*
X126369175Y-95902899D01*
X126334131Y-95849964D01*
X126285753Y-95808859D01*
X126227854Y-95782824D01*
X126165000Y-95773911D01*
X126165000Y-95589264D01*
X126608911Y-96033175D01*
X126608911Y-97600000D01*
X126611879Y-97636511D01*
X126630825Y-97697101D01*
X126665869Y-97750036D01*
X126714247Y-97791141D01*
X126772146Y-97817176D01*
X126835000Y-97826089D01*
X127435000Y-97826089D01*
X127471511Y-97823121D01*
X127532101Y-97804175D01*
X127585036Y-97769131D01*
X127626141Y-97720753D01*
X127652176Y-97662854D01*
X127661089Y-97600000D01*
X127661089Y-101357685D01*
X127656161Y-101332911D01*
X127638823Y-101291054D01*
X127613653Y-101253384D01*
X127581616Y-101221347D01*
X127543946Y-101196177D01*
X127502089Y-101178839D01*
X127457653Y-101170000D01*
X127412347Y-101170000D01*
X127242500Y-101170000D01*
X127185000Y-101227500D01*
X127185000Y-102150000D01*
X127607500Y-102150000D01*
X127665000Y-102092500D01*
X127665000Y-102307500D01*
X127607500Y-102250000D01*
X127185000Y-102250000D01*
X127185000Y-103172500D01*
X127242500Y-103230000D01*
X127412347Y-103230000D01*
X127457653Y-103230000D01*
X127502089Y-103221161D01*
X127543946Y-103203823D01*
X127581616Y-103178653D01*
X127613653Y-103146616D01*
X127638823Y-103108946D01*
X127656161Y-103067089D01*
X127665000Y-103022653D01*
X127665000Y-104176756D01*
X127663489Y-104176879D01*
X127602899Y-104195825D01*
X127549964Y-104230869D01*
X127508859Y-104279247D01*
X127482824Y-104337146D01*
X127473911Y-104400000D01*
X127473911Y-105600000D01*
X127476879Y-105636511D01*
X127495825Y-105697101D01*
X127530869Y-105750036D01*
X127579247Y-105791141D01*
X127637146Y-105817176D01*
X127700000Y-105826089D01*
X128701825Y-105826089D01*
X128787868Y-105912132D01*
X128809299Y-105929736D01*
X128830510Y-105947534D01*
X128831889Y-105948292D01*
X128833110Y-105949295D01*
X128857532Y-105962389D01*
X128881817Y-105975741D01*
X128883322Y-105976218D01*
X128884711Y-105976963D01*
X128911152Y-105985046D01*
X128937626Y-105993444D01*
X128939198Y-105993620D01*
X128940702Y-105994080D01*
X128968156Y-105996868D01*
X128995811Y-105999971D01*
X128998907Y-105999992D01*
X128998952Y-105999997D01*
X128998993Y-105999993D01*
X129000000Y-106000000D01*
X129823911Y-106000000D01*
X129823911Y-106100000D01*
X129826879Y-106136511D01*
X129845825Y-106197101D01*
X129880869Y-106250036D01*
X129929247Y-106291141D01*
X129987146Y-106317176D01*
X130050000Y-106326089D01*
X130950000Y-106326089D01*
X130986511Y-106323121D01*
X131047101Y-106304175D01*
X131100036Y-106269131D01*
X131141141Y-106220753D01*
X131167176Y-106162854D01*
X131176089Y-106100000D01*
X131176089Y-105300000D01*
X131173121Y-105263489D01*
X131154175Y-105202899D01*
X131119131Y-105149964D01*
X131070753Y-105108859D01*
X131012854Y-105082824D01*
X130950000Y-105073911D01*
X130050000Y-105073911D01*
X130013489Y-105076879D01*
X129952899Y-105095825D01*
X129899964Y-105130869D01*
X129858859Y-105179247D01*
X129832824Y-105237146D01*
X129823911Y-105300000D01*
X129823911Y-105400000D01*
X129126089Y-105400000D01*
X129126089Y-104475000D01*
X131375000Y-104475000D01*
X131375000Y-102957679D01*
X131376089Y-102950000D01*
X131376089Y-108725000D01*
X131180000Y-108725000D01*
X131180000Y-107722653D01*
X131180000Y-107677347D01*
X131180000Y-107407500D01*
X131180000Y-107192500D01*
X131180000Y-106922653D01*
X131180000Y-106877347D01*
X131171161Y-106832911D01*
X131153823Y-106791054D01*
X131128653Y-106753384D01*
X131096616Y-106721347D01*
X131058946Y-106696177D01*
X131017089Y-106678839D01*
X130972653Y-106670000D01*
X130607500Y-106670000D01*
X130550000Y-106727500D01*
X130550000Y-107250000D01*
X131122500Y-107250000D01*
X131180000Y-107192500D01*
X131180000Y-107407500D01*
X131122500Y-107350000D01*
X130550000Y-107350000D01*
X130550000Y-107872500D01*
X130607500Y-107930000D01*
X130972653Y-107930000D01*
X131017089Y-107921161D01*
X131058946Y-107903823D01*
X131096616Y-107878653D01*
X131128653Y-107846616D01*
X131153823Y-107808946D01*
X131171161Y-107767089D01*
X131180000Y-107722653D01*
X131180000Y-108725000D01*
X130450000Y-108725000D01*
X130450000Y-107872500D01*
X130450000Y-107350000D01*
X130450000Y-107250000D01*
X130450000Y-106727500D01*
X130392500Y-106670000D01*
X130027347Y-106670000D01*
X129982911Y-106678839D01*
X129941054Y-106696177D01*
X129903384Y-106721347D01*
X129871347Y-106753384D01*
X129846177Y-106791054D01*
X129828839Y-106832911D01*
X129820000Y-106877347D01*
X129820000Y-106922653D01*
X129820000Y-107192500D01*
X129877500Y-107250000D01*
X130450000Y-107250000D01*
X130450000Y-107350000D01*
X129877500Y-107350000D01*
X129820000Y-107407500D01*
X129820000Y-107677347D01*
X129820000Y-107722653D01*
X129828839Y-107767089D01*
X129846177Y-107808946D01*
X129871347Y-107846616D01*
X129903384Y-107878653D01*
X129941054Y-107903823D01*
X129982911Y-107921161D01*
X130027347Y-107930000D01*
X130392500Y-107930000D01*
X130450000Y-107872500D01*
X130450000Y-108725000D01*
X129126089Y-108725000D01*
X129126089Y-107600000D01*
X129126089Y-106400000D01*
X129123121Y-106363489D01*
X129104175Y-106302899D01*
X129069131Y-106249964D01*
X129020753Y-106208859D01*
X128962854Y-106182824D01*
X128900000Y-106173911D01*
X127898175Y-106173911D01*
X127512132Y-105787868D01*
X127490722Y-105770282D01*
X127469490Y-105752466D01*
X127468107Y-105751706D01*
X127466889Y-105750705D01*
X127442488Y-105737621D01*
X127418183Y-105724259D01*
X127416677Y-105723781D01*
X127415289Y-105723037D01*
X127388818Y-105714944D01*
X127362374Y-105706556D01*
X127360804Y-105706379D01*
X127359297Y-105705919D01*
X127331758Y-105703121D01*
X127304189Y-105700029D01*
X127301102Y-105700007D01*
X127301047Y-105700002D01*
X127300995Y-105700006D01*
X127300000Y-105700000D01*
X127085000Y-105700000D01*
X127085000Y-103172500D01*
X127085000Y-102250000D01*
X127085000Y-102150000D01*
X127085000Y-101227500D01*
X127027500Y-101170000D01*
X126857653Y-101170000D01*
X126812347Y-101170000D01*
X126767911Y-101178839D01*
X126726054Y-101196177D01*
X126688384Y-101221347D01*
X126656347Y-101253384D01*
X126631177Y-101291054D01*
X126613839Y-101332911D01*
X126605000Y-101377347D01*
X126605000Y-102092500D01*
X126662500Y-102150000D01*
X127085000Y-102150000D01*
X127085000Y-102250000D01*
X126662500Y-102250000D01*
X126605000Y-102307500D01*
X126605000Y-103022653D01*
X126613839Y-103067089D01*
X126631177Y-103108946D01*
X126656347Y-103146616D01*
X126688384Y-103178653D01*
X126726054Y-103203823D01*
X126767911Y-103221161D01*
X126812347Y-103230000D01*
X126857653Y-103230000D01*
X127027500Y-103230000D01*
X127085000Y-103172500D01*
X127085000Y-105700000D01*
X126026089Y-105700000D01*
X126026089Y-105448175D01*
X126077132Y-105397132D01*
X126094717Y-105375722D01*
X126112534Y-105354490D01*
X126113293Y-105353107D01*
X126114295Y-105351889D01*
X126127378Y-105327488D01*
X126140741Y-105303183D01*
X126141218Y-105301677D01*
X126141963Y-105300289D01*
X126150055Y-105273818D01*
X126158444Y-105247374D01*
X126158620Y-105245804D01*
X126159081Y-105244297D01*
X126161878Y-105216758D01*
X126164971Y-105189189D01*
X126164992Y-105186102D01*
X126164998Y-105186047D01*
X126164993Y-105185995D01*
X126165000Y-105185000D01*
X126165000Y-103226089D01*
X126201511Y-103223121D01*
X126262101Y-103204175D01*
X126315036Y-103169131D01*
X126356141Y-103120753D01*
X126382176Y-103062854D01*
X126391089Y-103000000D01*
X126391089Y-101400000D01*
X126388121Y-101363489D01*
X126369175Y-101302899D01*
X126334131Y-101249964D01*
X126285753Y-101208859D01*
X126227854Y-101182824D01*
X126165000Y-101173911D01*
X125565000Y-101173911D01*
X125528489Y-101176879D01*
X125467899Y-101195825D01*
X125414964Y-101230869D01*
X125373859Y-101279247D01*
X125347824Y-101337146D01*
X125338911Y-101400000D01*
X125338911Y-103000000D01*
X125341879Y-103036511D01*
X125360825Y-103097101D01*
X125395869Y-103150036D01*
X125444247Y-103191141D01*
X125502146Y-103217176D01*
X125565000Y-103226089D01*
X125565000Y-104973911D01*
X125125000Y-104973911D01*
X125125000Y-103022653D01*
X125125000Y-102307500D01*
X125125000Y-102092500D01*
X125125000Y-101377347D01*
X125116161Y-101332911D01*
X125098823Y-101291054D01*
X125073653Y-101253384D01*
X125041616Y-101221347D01*
X125003946Y-101196177D01*
X124962089Y-101178839D01*
X124917653Y-101170000D01*
X124872347Y-101170000D01*
X124702500Y-101170000D01*
X124645000Y-101227500D01*
X124645000Y-102150000D01*
X125067500Y-102150000D01*
X125125000Y-102092500D01*
X125125000Y-102307500D01*
X125067500Y-102250000D01*
X124645000Y-102250000D01*
X124645000Y-103172500D01*
X124702500Y-103230000D01*
X124872347Y-103230000D01*
X124917653Y-103230000D01*
X124962089Y-103221161D01*
X125003946Y-103203823D01*
X125041616Y-103178653D01*
X125073653Y-103146616D01*
X125098823Y-103108946D01*
X125116161Y-103067089D01*
X125125000Y-103022653D01*
X125125000Y-104973911D01*
X124545000Y-104973911D01*
X124545000Y-103172500D01*
X124545000Y-102250000D01*
X124545000Y-102150000D01*
X124545000Y-101227500D01*
X124487500Y-101170000D01*
X124317653Y-101170000D01*
X124272347Y-101170000D01*
X124227911Y-101178839D01*
X124186054Y-101196177D01*
X124148384Y-101221347D01*
X124116347Y-101253384D01*
X124091177Y-101291054D01*
X124073839Y-101332911D01*
X124065000Y-101377347D01*
X124065000Y-102092500D01*
X124122500Y-102150000D01*
X124545000Y-102150000D01*
X124545000Y-102250000D01*
X124122500Y-102250000D01*
X124065000Y-102307500D01*
X124065000Y-103022653D01*
X124073839Y-103067089D01*
X124091177Y-103108946D01*
X124116347Y-103146616D01*
X124148384Y-103178653D01*
X124186054Y-103203823D01*
X124227911Y-103221161D01*
X124272347Y-103230000D01*
X124317653Y-103230000D01*
X124487500Y-103230000D01*
X124545000Y-103172500D01*
X124545000Y-104973911D01*
X124300000Y-104973911D01*
X124263489Y-104976879D01*
X124202899Y-104995825D01*
X124149964Y-105030869D01*
X124108859Y-105079247D01*
X124082824Y-105137146D01*
X124073911Y-105200000D01*
X124073911Y-106800000D01*
X124076879Y-106836511D01*
X124095825Y-106897101D01*
X124130869Y-106950036D01*
X124179247Y-106991141D01*
X124237146Y-107017176D01*
X124300000Y-107026089D01*
X125800000Y-107026089D01*
X125836511Y-107023121D01*
X125897101Y-107004175D01*
X125950036Y-106969131D01*
X125991141Y-106920753D01*
X126017176Y-106862854D01*
X126026089Y-106800000D01*
X126026089Y-106300000D01*
X127175736Y-106300000D01*
X127473911Y-106598175D01*
X127473911Y-107600000D01*
X127476879Y-107636511D01*
X127495825Y-107697101D01*
X127530869Y-107750036D01*
X127579247Y-107791141D01*
X127637146Y-107817176D01*
X127700000Y-107826089D01*
X128900000Y-107826089D01*
X128936511Y-107823121D01*
X128997101Y-107804175D01*
X129050036Y-107769131D01*
X129091141Y-107720753D01*
X129117176Y-107662854D01*
X129126089Y-107600000D01*
X129126089Y-108725000D01*
X123375102Y-108725000D01*
X123375102Y-105767119D01*
X123284635Y-105310228D01*
X123107147Y-104879610D01*
X123030000Y-104763494D01*
X123030000Y-102172653D01*
X123030000Y-101207500D01*
X123030000Y-100992500D01*
X123030000Y-100027347D01*
X123030000Y-99522653D01*
X123030000Y-99407500D01*
X122972500Y-99350000D01*
X122175000Y-99350000D01*
X122175000Y-99672500D01*
X122232500Y-99730000D01*
X122777347Y-99730000D01*
X122822653Y-99730000D01*
X122867089Y-99721161D01*
X122908946Y-99703823D01*
X122946616Y-99678653D01*
X122978653Y-99646616D01*
X123003823Y-99608946D01*
X123021161Y-99567089D01*
X123030000Y-99522653D01*
X123030000Y-100027347D01*
X123021161Y-99982911D01*
X123003823Y-99941054D01*
X122978653Y-99903384D01*
X122946616Y-99871347D01*
X122908946Y-99846177D01*
X122867089Y-99828839D01*
X122822653Y-99820000D01*
X122777347Y-99820000D01*
X122107500Y-99820000D01*
X122075000Y-99852500D01*
X122075000Y-99672500D01*
X122075000Y-99350000D01*
X121277500Y-99350000D01*
X121220000Y-99407500D01*
X121220000Y-99522653D01*
X121228839Y-99567089D01*
X121246177Y-99608946D01*
X121271347Y-99646616D01*
X121303384Y-99678653D01*
X121341054Y-99703823D01*
X121382911Y-99721161D01*
X121427347Y-99730000D01*
X121472653Y-99730000D01*
X122017500Y-99730000D01*
X122075000Y-99672500D01*
X122075000Y-99852500D01*
X122050000Y-99877500D01*
X122050000Y-101050000D01*
X122972500Y-101050000D01*
X123030000Y-100992500D01*
X123030000Y-101207500D01*
X122972500Y-101150000D01*
X122050000Y-101150000D01*
X122050000Y-102322500D01*
X122107500Y-102380000D01*
X122777347Y-102380000D01*
X122822653Y-102380000D01*
X122867089Y-102371161D01*
X122908946Y-102353823D01*
X122946616Y-102328653D01*
X122978653Y-102296616D01*
X123003823Y-102258946D01*
X123021161Y-102217089D01*
X123030000Y-102172653D01*
X123030000Y-104763494D01*
X122849399Y-104491667D01*
X122521207Y-104161176D01*
X122135073Y-103900726D01*
X121950000Y-103822928D01*
X121950000Y-102322500D01*
X121950000Y-101150000D01*
X121950000Y-101050000D01*
X121950000Y-99877500D01*
X121892500Y-99820000D01*
X121222653Y-99820000D01*
X121177347Y-99820000D01*
X121132911Y-99828839D01*
X121091054Y-99846177D01*
X121053384Y-99871347D01*
X121021347Y-99903384D01*
X120996177Y-99941054D01*
X120978839Y-99982911D01*
X120970000Y-100027347D01*
X120970000Y-100992500D01*
X121027500Y-101050000D01*
X121950000Y-101050000D01*
X121950000Y-101150000D01*
X121027500Y-101150000D01*
X120970000Y-101207500D01*
X120970000Y-102172653D01*
X120978839Y-102217089D01*
X120996177Y-102258946D01*
X121021347Y-102296616D01*
X121053384Y-102328653D01*
X121091054Y-102353823D01*
X121132911Y-102371161D01*
X121177347Y-102380000D01*
X121222653Y-102380000D01*
X121892500Y-102380000D01*
X121950000Y-102322500D01*
X121950000Y-103822928D01*
X121705705Y-103720236D01*
X121249456Y-103626581D01*
X120783706Y-103623330D01*
X120326194Y-103710605D01*
X119894348Y-103885082D01*
X119504615Y-104140116D01*
X119171841Y-104465993D01*
X118908701Y-104850299D01*
X118725218Y-105278397D01*
X118628381Y-105733980D01*
X118621878Y-106199697D01*
X118705957Y-106657806D01*
X118877415Y-107090861D01*
X119129722Y-107482364D01*
X119453267Y-107817405D01*
X119835727Y-108083222D01*
X120262533Y-108269689D01*
X120717430Y-108369704D01*
X121183089Y-108379458D01*
X121641775Y-108298580D01*
X122076016Y-108130149D01*
X122469271Y-107880581D01*
X122806563Y-107559383D01*
X123075043Y-107178788D01*
X123264485Y-106753294D01*
X123367674Y-106299107D01*
X123375102Y-105767119D01*
X123375102Y-108725000D01*
X118275000Y-108725000D01*
X118275000Y-102713396D01*
X118276879Y-102736511D01*
X118295825Y-102797101D01*
X118330869Y-102850036D01*
X118379247Y-102891141D01*
X118437146Y-102917176D01*
X118500000Y-102926089D01*
X120400000Y-102926089D01*
X120436511Y-102923121D01*
X120497101Y-102904175D01*
X120550036Y-102869131D01*
X120591141Y-102820753D01*
X120617176Y-102762854D01*
X120626089Y-102700000D01*
X120626089Y-100900000D01*
X120623121Y-100863489D01*
X120604175Y-100802899D01*
X120569131Y-100749964D01*
X120520753Y-100708859D01*
X120462854Y-100682824D01*
X120400000Y-100673911D01*
X118500000Y-100673911D01*
X118463489Y-100676879D01*
X118402899Y-100695825D01*
X118349964Y-100730869D01*
X118308859Y-100779247D01*
X118282824Y-100837146D01*
X118275000Y-100892320D01*
X118275000Y-100163396D01*
X118276879Y-100186511D01*
X118295825Y-100247101D01*
X118330869Y-100300036D01*
X118379247Y-100341141D01*
X118437146Y-100367176D01*
X118500000Y-100376089D01*
X120400000Y-100376089D01*
X120436511Y-100373121D01*
X120497101Y-100354175D01*
X120550036Y-100319131D01*
X120591141Y-100270753D01*
X120617176Y-100212854D01*
X120626089Y-100150000D01*
X120626089Y-98250000D01*
X120623121Y-98213489D01*
X120604175Y-98152899D01*
X120569131Y-98099964D01*
X120520753Y-98058859D01*
X120462854Y-98032824D01*
X120400000Y-98023911D01*
X118500000Y-98023911D01*
X118463489Y-98026879D01*
X118402899Y-98045825D01*
X118349964Y-98080869D01*
X118308859Y-98129247D01*
X118282824Y-98187146D01*
X118275000Y-98242320D01*
X118275000Y-97763396D01*
X118276879Y-97786511D01*
X118295825Y-97847101D01*
X118330869Y-97900036D01*
X118379247Y-97941141D01*
X118437146Y-97967176D01*
X118500000Y-97976089D01*
X120400000Y-97976089D01*
X120436511Y-97973121D01*
X120497101Y-97954175D01*
X120550036Y-97919131D01*
X120591141Y-97870753D01*
X120617176Y-97812854D01*
X120626089Y-97750000D01*
X120626089Y-95850000D01*
X120623121Y-95813489D01*
X120604175Y-95752899D01*
X120569131Y-95699964D01*
X120520753Y-95658859D01*
X120462854Y-95632824D01*
X120400000Y-95623911D01*
X118500000Y-95623911D01*
X118463489Y-95626879D01*
X118402899Y-95645825D01*
X118349964Y-95680869D01*
X118308859Y-95729247D01*
X118282824Y-95787146D01*
X118275000Y-95842320D01*
X118275000Y-95113396D01*
X118276879Y-95136511D01*
X118295825Y-95197101D01*
X118330869Y-95250036D01*
X118379247Y-95291141D01*
X118437146Y-95317176D01*
X118500000Y-95326089D01*
X120400000Y-95326089D01*
X120436511Y-95323121D01*
X120497101Y-95304175D01*
X120550036Y-95269131D01*
X120591141Y-95220753D01*
X120617176Y-95162854D01*
X120626089Y-95100000D01*
X120626089Y-93300000D01*
X120623121Y-93263489D01*
X120604175Y-93202899D01*
X120569131Y-93149964D01*
X120520753Y-93108859D01*
X120462854Y-93082824D01*
X120400000Y-93073911D01*
X118500000Y-93073911D01*
X118463489Y-93076879D01*
X118402899Y-93095825D01*
X118349964Y-93130869D01*
X118308859Y-93179247D01*
X118282824Y-93237146D01*
X118275000Y-93292320D01*
X118275000Y-87275000D01*
X149725000Y-87275000D01*
X149725000Y-108725000D01*
G36*
X141125000Y-95675000D02*
X139318934Y-95675000D01*
X137918934Y-97075000D01*
X137125000Y-97075000D01*
X137125000Y-95925000D01*
X137631066Y-95925000D01*
X138831066Y-94725000D01*
X141125000Y-94725000D01*
X141125000Y-95675000D01*
X141125000Y-95675000D01*
G37*
X141125000Y-95675000D02*
X139318934Y-95675000D01*
X137918934Y-97075000D01*
X137125000Y-97075000D01*
X137125000Y-95925000D01*
X137631066Y-95925000D01*
X138831066Y-94725000D01*
X141125000Y-94725000D01*
X141125000Y-95675000D01*
G36*
X134675000Y-93518934D02*
X132375000Y-95818934D01*
X132375000Y-96931066D01*
X133268934Y-97825000D01*
X134075000Y-97825000D01*
X134075000Y-98275000D01*
X131431066Y-98275000D01*
X130681066Y-97525000D01*
X128175000Y-97525000D01*
X128175000Y-96075000D01*
X129481066Y-96075000D01*
X132825000Y-92731066D01*
X132825000Y-90375000D01*
X134675000Y-90375000D01*
X134675000Y-93518934D01*
X134675000Y-93518934D01*
G37*
X134675000Y-93518934D02*
X132375000Y-95818934D01*
X132375000Y-96931066D01*
X133268934Y-97825000D01*
X134075000Y-97825000D01*
X134075000Y-98275000D01*
X131431066Y-98275000D01*
X130681066Y-97525000D01*
X128175000Y-97525000D01*
X128175000Y-96075000D01*
X129481066Y-96075000D01*
X132825000Y-92731066D01*
X132825000Y-90375000D01*
X134675000Y-90375000D01*
X134675000Y-93518934D01*
M02*
