%TF.FileFunction,Copper,L2,Bot,Signal*%
%FSLAX46Y46*%
G04 Gerber Fmt 4.6, Leading zero omitted, Abs format (unit mm)*
G04 Created by KiCad (PCBNEW (after 2015-jan-16 BZR unknown)-product) date Mon 27 Apr 2015 12:49:16 PM CEST*
%MOMM*%
G01*
G04 APERTURE LIST*
%ADD10C,0.100000*%
%ADD11R,2.400000X2.000000*%
%ADD12O,2.600000X2.000000*%
%ADD13R,2.000000X2.400000*%
%ADD14O,2.000000X2.600000*%
%ADD15C,1.100000*%
%ADD16R,2.500000X1.800000*%
%ADD17O,2.500000X1.800000*%
%ADD18C,4.200000*%
%ADD19C,2.500000*%
%ADD20C,0.600000*%
%ADD21C,0.150000*%
G04 APERTURE END LIST*
D10*
D11*
X145500000Y-98750000D03*
D12*
X145500000Y-95250000D03*
D13*
X133750000Y-91500000D03*
D14*
X130250000Y-91500000D03*
D15*
X134500000Y-106500000D03*
X137000000Y-106500000D03*
X139500000Y-106500000D03*
D16*
X142500000Y-88730000D03*
D17*
X142500000Y-91270000D03*
D18*
X121000000Y-90000000D03*
D19*
X121000000Y-90000000D03*
D18*
X147000000Y-106000000D03*
D19*
X147000000Y-106000000D03*
D18*
X147000000Y-90000000D03*
D19*
X147000000Y-90000000D03*
D18*
X121000000Y-106000000D03*
D19*
X121000000Y-106000000D03*
D20*
X123500000Y-97000000D03*
X123500000Y-96000000D03*
X130750000Y-103750000D03*
X129750000Y-103750000D03*
X128750000Y-103750000D03*
X123500000Y-98500000D03*
X123500000Y-99500000D03*
X123500000Y-100500000D03*
X129500000Y-98500000D03*
X129500000Y-99500000D03*
X129500000Y-100500000D03*
X124500000Y-98500000D03*
X124500000Y-99500000D03*
X124500000Y-100500000D03*
X128500000Y-98500000D03*
X128500000Y-99500000D03*
X128500000Y-100500000D03*
X138500000Y-99000000D03*
X137500000Y-99000000D03*
X136250000Y-95000000D03*
X135250000Y-95000000D03*
X134250000Y-95000000D03*
X138500000Y-100000000D03*
X137500000Y-100000000D03*
X133000000Y-96500000D03*
D21*
X130750000Y-103750000D02*
X129750000Y-103750000D01*
X123600000Y-97000000D02*
X123500000Y-97000000D01*
X123500000Y-98500000D02*
X123500000Y-99500000D01*
X129500000Y-98500000D02*
X129500000Y-99500000D01*
X124500000Y-100500000D02*
X128500000Y-100500000D01*
X124500000Y-99500000D02*
X124500000Y-100500000D01*
X123500000Y-98500000D02*
X124500000Y-98500000D01*
X128500000Y-99500000D02*
X128500000Y-98500000D01*
X137500000Y-99000000D02*
X138500000Y-99000000D01*
X134250000Y-95000000D02*
X135250000Y-95000000D01*
X137500000Y-99000000D02*
X137500000Y-100000000D01*
G36*
X149725000Y-108725000D02*
X149475106Y-108725000D01*
X149475106Y-105757314D01*
X149475106Y-89757314D01*
X149380830Y-89281185D01*
X149195869Y-88832436D01*
X148927268Y-88428159D01*
X148585258Y-88083753D01*
X148182866Y-87812336D01*
X147735419Y-87624247D01*
X147259960Y-87526649D01*
X146774599Y-87523260D01*
X146297824Y-87614210D01*
X145847794Y-87796034D01*
X145441652Y-88061806D01*
X145094867Y-88401403D01*
X144820647Y-88801891D01*
X144629439Y-89248014D01*
X144528524Y-89722780D01*
X144521747Y-90208105D01*
X144609366Y-90685503D01*
X144788044Y-91136791D01*
X145050974Y-91544779D01*
X145388142Y-91893927D01*
X145786705Y-92170935D01*
X146231482Y-92365254D01*
X146705532Y-92469480D01*
X147190798Y-92479645D01*
X147668797Y-92395361D01*
X148121321Y-92219839D01*
X148531135Y-91959763D01*
X148882628Y-91625041D01*
X149162412Y-91228421D01*
X149359831Y-90785011D01*
X149467364Y-90311701D01*
X149475106Y-89757314D01*
X149475106Y-105757314D01*
X149380830Y-105281185D01*
X149195869Y-104832436D01*
X148927268Y-104428159D01*
X148585258Y-104083753D01*
X148182866Y-103812336D01*
X147735419Y-103624247D01*
X147259960Y-103526649D01*
X147119651Y-103525669D01*
X147119651Y-95636194D01*
X147119651Y-94863806D01*
X147115536Y-94805615D01*
X147003563Y-94557505D01*
X146845338Y-94336008D01*
X146646941Y-94149635D01*
X146415997Y-94005548D01*
X146161380Y-93909285D01*
X145892876Y-93864545D01*
X145675000Y-93960823D01*
X145675000Y-95075000D01*
X147069243Y-95075000D01*
X147119651Y-94863806D01*
X147119651Y-95636194D01*
X147069243Y-95425000D01*
X145675000Y-95425000D01*
X145675000Y-96539177D01*
X145892876Y-96635455D01*
X146161380Y-96590715D01*
X146415997Y-96494452D01*
X146646941Y-96350365D01*
X146845338Y-96163992D01*
X147003563Y-95942495D01*
X147115536Y-95694385D01*
X147119651Y-95636194D01*
X147119651Y-103525669D01*
X146926089Y-103524317D01*
X146926089Y-99750000D01*
X146926089Y-97750000D01*
X146923121Y-97713489D01*
X146904175Y-97652899D01*
X146869131Y-97599964D01*
X146820753Y-97558859D01*
X146762854Y-97532824D01*
X146700000Y-97523911D01*
X145325000Y-97523911D01*
X145325000Y-96539177D01*
X145325000Y-95425000D01*
X145325000Y-95075000D01*
X145325000Y-93960823D01*
X145107124Y-93864545D01*
X144838620Y-93909285D01*
X144584003Y-94005548D01*
X144353059Y-94149635D01*
X144154662Y-94336008D01*
X143996437Y-94557505D01*
X143982110Y-94589250D01*
X143982110Y-91277854D01*
X143976089Y-91211696D01*
X143976089Y-89630000D01*
X143976089Y-87830000D01*
X143973121Y-87793489D01*
X143954175Y-87732899D01*
X143919131Y-87679964D01*
X143870753Y-87638859D01*
X143812854Y-87612824D01*
X143750000Y-87603911D01*
X141250000Y-87603911D01*
X141213489Y-87606879D01*
X141152899Y-87625825D01*
X141099964Y-87660869D01*
X141058859Y-87709247D01*
X141032824Y-87767146D01*
X141023911Y-87830000D01*
X141023911Y-89630000D01*
X141026879Y-89666511D01*
X141045825Y-89727101D01*
X141080869Y-89780036D01*
X141129247Y-89821141D01*
X141187146Y-89847176D01*
X141250000Y-89856089D01*
X143750000Y-89856089D01*
X143786511Y-89853121D01*
X143847101Y-89834175D01*
X143900036Y-89799131D01*
X143941141Y-89750753D01*
X143967176Y-89692854D01*
X143976089Y-89630000D01*
X143976089Y-91211696D01*
X143962210Y-91059196D01*
X143900219Y-90848568D01*
X143798497Y-90653991D01*
X143660919Y-90482879D01*
X143492725Y-90341747D01*
X143300322Y-90235973D01*
X143091038Y-90169584D01*
X142872844Y-90145110D01*
X142857137Y-90145000D01*
X142142863Y-90145000D01*
X141924349Y-90166425D01*
X141714159Y-90229886D01*
X141520298Y-90332964D01*
X141350150Y-90471733D01*
X141210196Y-90640908D01*
X141105767Y-90834045D01*
X141040841Y-91043787D01*
X141017890Y-91262146D01*
X141037790Y-91480804D01*
X141099781Y-91691432D01*
X141201503Y-91886009D01*
X141339081Y-92057121D01*
X141507275Y-92198253D01*
X141699678Y-92304027D01*
X141908962Y-92370416D01*
X142127156Y-92394890D01*
X142142863Y-92395000D01*
X142857137Y-92395000D01*
X143075651Y-92373575D01*
X143285841Y-92310114D01*
X143479702Y-92207036D01*
X143649850Y-92068267D01*
X143789804Y-91899092D01*
X143894233Y-91705955D01*
X143959159Y-91496213D01*
X143982110Y-91277854D01*
X143982110Y-94589250D01*
X143884464Y-94805615D01*
X143880349Y-94863806D01*
X143930757Y-95075000D01*
X145325000Y-95075000D01*
X145325000Y-95425000D01*
X143930757Y-95425000D01*
X143880349Y-95636194D01*
X143884464Y-95694385D01*
X143996437Y-95942495D01*
X144154662Y-96163992D01*
X144353059Y-96350365D01*
X144584003Y-96494452D01*
X144838620Y-96590715D01*
X145107124Y-96635455D01*
X145325000Y-96539177D01*
X145325000Y-97523911D01*
X144300000Y-97523911D01*
X144263489Y-97526879D01*
X144202899Y-97545825D01*
X144149964Y-97580869D01*
X144108859Y-97629247D01*
X144082824Y-97687146D01*
X144073911Y-97750000D01*
X144073911Y-99750000D01*
X144076879Y-99786511D01*
X144095825Y-99847101D01*
X144130869Y-99900036D01*
X144179247Y-99941141D01*
X144237146Y-99967176D01*
X144300000Y-99976089D01*
X146700000Y-99976089D01*
X146736511Y-99973121D01*
X146797101Y-99954175D01*
X146850036Y-99919131D01*
X146891141Y-99870753D01*
X146917176Y-99812854D01*
X146926089Y-99750000D01*
X146926089Y-103524317D01*
X146774599Y-103523260D01*
X146297824Y-103614210D01*
X145847794Y-103796034D01*
X145441652Y-104061806D01*
X145094867Y-104401403D01*
X144820647Y-104801891D01*
X144629439Y-105248014D01*
X144528524Y-105722780D01*
X144521747Y-106208105D01*
X144609366Y-106685503D01*
X144788044Y-107136791D01*
X145050974Y-107544779D01*
X145388142Y-107893927D01*
X145786705Y-108170935D01*
X146231482Y-108365254D01*
X146705532Y-108469480D01*
X147190798Y-108479645D01*
X147668797Y-108395361D01*
X148121321Y-108219839D01*
X148531135Y-107959763D01*
X148882628Y-107625041D01*
X149162412Y-107228421D01*
X149359831Y-106785011D01*
X149467364Y-106311701D01*
X149475106Y-105757314D01*
X149475106Y-108725000D01*
X140275033Y-108725000D01*
X140275033Y-106424007D01*
X140245513Y-106274916D01*
X140187595Y-106134399D01*
X140103488Y-106007807D01*
X139996394Y-105899963D01*
X139870392Y-105814974D01*
X139730283Y-105756077D01*
X139581402Y-105725516D01*
X139429420Y-105724455D01*
X139280127Y-105752934D01*
X139139208Y-105809869D01*
X139012032Y-105893091D01*
X138903443Y-105999429D01*
X138817576Y-106124834D01*
X138757703Y-106264529D01*
X138726103Y-106413194D01*
X138723981Y-106565164D01*
X138751417Y-106714653D01*
X138807367Y-106855965D01*
X138889699Y-106983719D01*
X138995277Y-107093048D01*
X139120079Y-107179788D01*
X139259353Y-107240635D01*
X139407793Y-107273272D01*
X139559745Y-107276455D01*
X139709421Y-107250063D01*
X139851121Y-107195101D01*
X139979446Y-107113663D01*
X140089510Y-107008851D01*
X140177119Y-106884657D01*
X140238937Y-106745812D01*
X140272609Y-106597603D01*
X140275033Y-106424007D01*
X140275033Y-108725000D01*
X137775033Y-108725000D01*
X137775033Y-106424007D01*
X137745513Y-106274916D01*
X137687595Y-106134399D01*
X137603488Y-106007807D01*
X137496394Y-105899963D01*
X137370392Y-105814974D01*
X137230283Y-105756077D01*
X137081402Y-105725516D01*
X136929420Y-105724455D01*
X136780127Y-105752934D01*
X136639208Y-105809869D01*
X136512032Y-105893091D01*
X136403443Y-105999429D01*
X136317576Y-106124834D01*
X136257703Y-106264529D01*
X136226103Y-106413194D01*
X136223981Y-106565164D01*
X136251417Y-106714653D01*
X136307367Y-106855965D01*
X136389699Y-106983719D01*
X136495277Y-107093048D01*
X136620079Y-107179788D01*
X136759353Y-107240635D01*
X136907793Y-107273272D01*
X137059745Y-107276455D01*
X137209421Y-107250063D01*
X137351121Y-107195101D01*
X137479446Y-107113663D01*
X137589510Y-107008851D01*
X137677119Y-106884657D01*
X137738937Y-106745812D01*
X137772609Y-106597603D01*
X137775033Y-106424007D01*
X137775033Y-108725000D01*
X135275033Y-108725000D01*
X135275033Y-106424007D01*
X135245513Y-106274916D01*
X135187595Y-106134399D01*
X135103488Y-106007807D01*
X134996394Y-105899963D01*
X134976089Y-105886267D01*
X134976089Y-92700000D01*
X134976089Y-90300000D01*
X134973121Y-90263489D01*
X134954175Y-90202899D01*
X134919131Y-90149964D01*
X134870753Y-90108859D01*
X134812854Y-90082824D01*
X134750000Y-90073911D01*
X132750000Y-90073911D01*
X132713489Y-90076879D01*
X132652899Y-90095825D01*
X132599964Y-90130869D01*
X132558859Y-90179247D01*
X132532824Y-90237146D01*
X132523911Y-90300000D01*
X132523911Y-92700000D01*
X132526879Y-92736511D01*
X132545825Y-92797101D01*
X132580869Y-92850036D01*
X132629247Y-92891141D01*
X132687146Y-92917176D01*
X132750000Y-92926089D01*
X134750000Y-92926089D01*
X134786511Y-92923121D01*
X134847101Y-92904175D01*
X134900036Y-92869131D01*
X134941141Y-92820753D01*
X134967176Y-92762854D01*
X134976089Y-92700000D01*
X134976089Y-105886267D01*
X134870392Y-105814974D01*
X134730283Y-105756077D01*
X134581402Y-105725516D01*
X134429420Y-105724455D01*
X134280127Y-105752934D01*
X134139208Y-105809869D01*
X134012032Y-105893091D01*
X133903443Y-105999429D01*
X133817576Y-106124834D01*
X133757703Y-106264529D01*
X133726103Y-106413194D01*
X133723981Y-106565164D01*
X133751417Y-106714653D01*
X133807367Y-106855965D01*
X133889699Y-106983719D01*
X133995277Y-107093048D01*
X134120079Y-107179788D01*
X134259353Y-107240635D01*
X134407793Y-107273272D01*
X134559745Y-107276455D01*
X134709421Y-107250063D01*
X134851121Y-107195101D01*
X134979446Y-107113663D01*
X135089510Y-107008851D01*
X135177119Y-106884657D01*
X135238937Y-106745812D01*
X135272609Y-106597603D01*
X135275033Y-106424007D01*
X135275033Y-108725000D01*
X131635455Y-108725000D01*
X131635455Y-91892876D01*
X131635455Y-91107124D01*
X131590715Y-90838620D01*
X131494452Y-90584003D01*
X131350365Y-90353059D01*
X131163992Y-90154662D01*
X130942495Y-89996437D01*
X130694385Y-89884464D01*
X130636194Y-89880349D01*
X130425000Y-89930757D01*
X130425000Y-91325000D01*
X131539177Y-91325000D01*
X131635455Y-91107124D01*
X131635455Y-91892876D01*
X131539177Y-91675000D01*
X130425000Y-91675000D01*
X130425000Y-93069243D01*
X130636194Y-93119651D01*
X130694385Y-93115536D01*
X130942495Y-93003563D01*
X131163992Y-92845338D01*
X131350365Y-92646941D01*
X131494452Y-92415997D01*
X131590715Y-92161380D01*
X131635455Y-91892876D01*
X131635455Y-108725000D01*
X131475000Y-108725000D01*
X131475000Y-104475000D01*
X131475000Y-102525000D01*
X130075000Y-102525000D01*
X130075000Y-93069243D01*
X130075000Y-91675000D01*
X130075000Y-91325000D01*
X130075000Y-89930757D01*
X129863806Y-89880349D01*
X129805615Y-89884464D01*
X129557505Y-89996437D01*
X129336008Y-90154662D01*
X129149635Y-90353059D01*
X129005548Y-90584003D01*
X128909285Y-90838620D01*
X128864545Y-91107124D01*
X128960823Y-91325000D01*
X130075000Y-91325000D01*
X130075000Y-91675000D01*
X128960823Y-91675000D01*
X128864545Y-91892876D01*
X128909285Y-92161380D01*
X129005548Y-92415997D01*
X129149635Y-92646941D01*
X129336008Y-92845338D01*
X129557505Y-93003563D01*
X129805615Y-93115536D01*
X129863806Y-93119651D01*
X130075000Y-93069243D01*
X130075000Y-102525000D01*
X123843198Y-102525000D01*
X122225000Y-100906802D01*
X122225000Y-98593198D01*
X123093198Y-97725000D01*
X124475000Y-97725000D01*
X124475000Y-95275000D01*
X123475106Y-95275000D01*
X123475106Y-89757314D01*
X123380830Y-89281185D01*
X123195869Y-88832436D01*
X122927268Y-88428159D01*
X122585258Y-88083753D01*
X122182866Y-87812336D01*
X121735419Y-87624247D01*
X121259960Y-87526649D01*
X120774599Y-87523260D01*
X120297824Y-87614210D01*
X119847794Y-87796034D01*
X119441652Y-88061806D01*
X119094867Y-88401403D01*
X118820647Y-88801891D01*
X118629439Y-89248014D01*
X118528524Y-89722780D01*
X118521747Y-90208105D01*
X118609366Y-90685503D01*
X118788044Y-91136791D01*
X119050974Y-91544779D01*
X119388142Y-91893927D01*
X119786705Y-92170935D01*
X120231482Y-92365254D01*
X120705532Y-92469480D01*
X121190798Y-92479645D01*
X121668797Y-92395361D01*
X122121321Y-92219839D01*
X122531135Y-91959763D01*
X122882628Y-91625041D01*
X123162412Y-91228421D01*
X123359831Y-90785011D01*
X123467364Y-90311701D01*
X123475106Y-89757314D01*
X123475106Y-95275000D01*
X122906802Y-95275000D01*
X120525000Y-97656802D01*
X120525000Y-101843198D01*
X123156802Y-104475000D01*
X131475000Y-104475000D01*
X131475000Y-108725000D01*
X123475106Y-108725000D01*
X123475106Y-105757314D01*
X123380830Y-105281185D01*
X123195869Y-104832436D01*
X122927268Y-104428159D01*
X122585258Y-104083753D01*
X122182866Y-103812336D01*
X121735419Y-103624247D01*
X121259960Y-103526649D01*
X120774599Y-103523260D01*
X120297824Y-103614210D01*
X119847794Y-103796034D01*
X119441652Y-104061806D01*
X119094867Y-104401403D01*
X118820647Y-104801891D01*
X118629439Y-105248014D01*
X118528524Y-105722780D01*
X118521747Y-106208105D01*
X118609366Y-106685503D01*
X118788044Y-107136791D01*
X119050974Y-107544779D01*
X119388142Y-107893927D01*
X119786705Y-108170935D01*
X120231482Y-108365254D01*
X120705532Y-108469480D01*
X121190798Y-108479645D01*
X121668797Y-108395361D01*
X122121321Y-108219839D01*
X122531135Y-107959763D01*
X122882628Y-107625041D01*
X123162412Y-107228421D01*
X123359831Y-106785011D01*
X123467364Y-106311701D01*
X123475106Y-105757314D01*
X123475106Y-108725000D01*
X118275000Y-108725000D01*
X118275000Y-87275000D01*
X149725000Y-87275000D01*
X149725000Y-108725000D01*
X149725000Y-108725000D01*
G37*
X149725000Y-108725000D02*
X149475106Y-108725000D01*
X149475106Y-105757314D01*
X149475106Y-89757314D01*
X149380830Y-89281185D01*
X149195869Y-88832436D01*
X148927268Y-88428159D01*
X148585258Y-88083753D01*
X148182866Y-87812336D01*
X147735419Y-87624247D01*
X147259960Y-87526649D01*
X146774599Y-87523260D01*
X146297824Y-87614210D01*
X145847794Y-87796034D01*
X145441652Y-88061806D01*
X145094867Y-88401403D01*
X144820647Y-88801891D01*
X144629439Y-89248014D01*
X144528524Y-89722780D01*
X144521747Y-90208105D01*
X144609366Y-90685503D01*
X144788044Y-91136791D01*
X145050974Y-91544779D01*
X145388142Y-91893927D01*
X145786705Y-92170935D01*
X146231482Y-92365254D01*
X146705532Y-92469480D01*
X147190798Y-92479645D01*
X147668797Y-92395361D01*
X148121321Y-92219839D01*
X148531135Y-91959763D01*
X148882628Y-91625041D01*
X149162412Y-91228421D01*
X149359831Y-90785011D01*
X149467364Y-90311701D01*
X149475106Y-89757314D01*
X149475106Y-105757314D01*
X149380830Y-105281185D01*
X149195869Y-104832436D01*
X148927268Y-104428159D01*
X148585258Y-104083753D01*
X148182866Y-103812336D01*
X147735419Y-103624247D01*
X147259960Y-103526649D01*
X147119651Y-103525669D01*
X147119651Y-95636194D01*
X147119651Y-94863806D01*
X147115536Y-94805615D01*
X147003563Y-94557505D01*
X146845338Y-94336008D01*
X146646941Y-94149635D01*
X146415997Y-94005548D01*
X146161380Y-93909285D01*
X145892876Y-93864545D01*
X145675000Y-93960823D01*
X145675000Y-95075000D01*
X147069243Y-95075000D01*
X147119651Y-94863806D01*
X147119651Y-95636194D01*
X147069243Y-95425000D01*
X145675000Y-95425000D01*
X145675000Y-96539177D01*
X145892876Y-96635455D01*
X146161380Y-96590715D01*
X146415997Y-96494452D01*
X146646941Y-96350365D01*
X146845338Y-96163992D01*
X147003563Y-95942495D01*
X147115536Y-95694385D01*
X147119651Y-95636194D01*
X147119651Y-103525669D01*
X146926089Y-103524317D01*
X146926089Y-99750000D01*
X146926089Y-97750000D01*
X146923121Y-97713489D01*
X146904175Y-97652899D01*
X146869131Y-97599964D01*
X146820753Y-97558859D01*
X146762854Y-97532824D01*
X146700000Y-97523911D01*
X145325000Y-97523911D01*
X145325000Y-96539177D01*
X145325000Y-95425000D01*
X145325000Y-95075000D01*
X145325000Y-93960823D01*
X145107124Y-93864545D01*
X144838620Y-93909285D01*
X144584003Y-94005548D01*
X144353059Y-94149635D01*
X144154662Y-94336008D01*
X143996437Y-94557505D01*
X143982110Y-94589250D01*
X143982110Y-91277854D01*
X143976089Y-91211696D01*
X143976089Y-89630000D01*
X143976089Y-87830000D01*
X143973121Y-87793489D01*
X143954175Y-87732899D01*
X143919131Y-87679964D01*
X143870753Y-87638859D01*
X143812854Y-87612824D01*
X143750000Y-87603911D01*
X141250000Y-87603911D01*
X141213489Y-87606879D01*
X141152899Y-87625825D01*
X141099964Y-87660869D01*
X141058859Y-87709247D01*
X141032824Y-87767146D01*
X141023911Y-87830000D01*
X141023911Y-89630000D01*
X141026879Y-89666511D01*
X141045825Y-89727101D01*
X141080869Y-89780036D01*
X141129247Y-89821141D01*
X141187146Y-89847176D01*
X141250000Y-89856089D01*
X143750000Y-89856089D01*
X143786511Y-89853121D01*
X143847101Y-89834175D01*
X143900036Y-89799131D01*
X143941141Y-89750753D01*
X143967176Y-89692854D01*
X143976089Y-89630000D01*
X143976089Y-91211696D01*
X143962210Y-91059196D01*
X143900219Y-90848568D01*
X143798497Y-90653991D01*
X143660919Y-90482879D01*
X143492725Y-90341747D01*
X143300322Y-90235973D01*
X143091038Y-90169584D01*
X142872844Y-90145110D01*
X142857137Y-90145000D01*
X142142863Y-90145000D01*
X141924349Y-90166425D01*
X141714159Y-90229886D01*
X141520298Y-90332964D01*
X141350150Y-90471733D01*
X141210196Y-90640908D01*
X141105767Y-90834045D01*
X141040841Y-91043787D01*
X141017890Y-91262146D01*
X141037790Y-91480804D01*
X141099781Y-91691432D01*
X141201503Y-91886009D01*
X141339081Y-92057121D01*
X141507275Y-92198253D01*
X141699678Y-92304027D01*
X141908962Y-92370416D01*
X142127156Y-92394890D01*
X142142863Y-92395000D01*
X142857137Y-92395000D01*
X143075651Y-92373575D01*
X143285841Y-92310114D01*
X143479702Y-92207036D01*
X143649850Y-92068267D01*
X143789804Y-91899092D01*
X143894233Y-91705955D01*
X143959159Y-91496213D01*
X143982110Y-91277854D01*
X143982110Y-94589250D01*
X143884464Y-94805615D01*
X143880349Y-94863806D01*
X143930757Y-95075000D01*
X145325000Y-95075000D01*
X145325000Y-95425000D01*
X143930757Y-95425000D01*
X143880349Y-95636194D01*
X143884464Y-95694385D01*
X143996437Y-95942495D01*
X144154662Y-96163992D01*
X144353059Y-96350365D01*
X144584003Y-96494452D01*
X144838620Y-96590715D01*
X145107124Y-96635455D01*
X145325000Y-96539177D01*
X145325000Y-97523911D01*
X144300000Y-97523911D01*
X144263489Y-97526879D01*
X144202899Y-97545825D01*
X144149964Y-97580869D01*
X144108859Y-97629247D01*
X144082824Y-97687146D01*
X144073911Y-97750000D01*
X144073911Y-99750000D01*
X144076879Y-99786511D01*
X144095825Y-99847101D01*
X144130869Y-99900036D01*
X144179247Y-99941141D01*
X144237146Y-99967176D01*
X144300000Y-99976089D01*
X146700000Y-99976089D01*
X146736511Y-99973121D01*
X146797101Y-99954175D01*
X146850036Y-99919131D01*
X146891141Y-99870753D01*
X146917176Y-99812854D01*
X146926089Y-99750000D01*
X146926089Y-103524317D01*
X146774599Y-103523260D01*
X146297824Y-103614210D01*
X145847794Y-103796034D01*
X145441652Y-104061806D01*
X145094867Y-104401403D01*
X144820647Y-104801891D01*
X144629439Y-105248014D01*
X144528524Y-105722780D01*
X144521747Y-106208105D01*
X144609366Y-106685503D01*
X144788044Y-107136791D01*
X145050974Y-107544779D01*
X145388142Y-107893927D01*
X145786705Y-108170935D01*
X146231482Y-108365254D01*
X146705532Y-108469480D01*
X147190798Y-108479645D01*
X147668797Y-108395361D01*
X148121321Y-108219839D01*
X148531135Y-107959763D01*
X148882628Y-107625041D01*
X149162412Y-107228421D01*
X149359831Y-106785011D01*
X149467364Y-106311701D01*
X149475106Y-105757314D01*
X149475106Y-108725000D01*
X140275033Y-108725000D01*
X140275033Y-106424007D01*
X140245513Y-106274916D01*
X140187595Y-106134399D01*
X140103488Y-106007807D01*
X139996394Y-105899963D01*
X139870392Y-105814974D01*
X139730283Y-105756077D01*
X139581402Y-105725516D01*
X139429420Y-105724455D01*
X139280127Y-105752934D01*
X139139208Y-105809869D01*
X139012032Y-105893091D01*
X138903443Y-105999429D01*
X138817576Y-106124834D01*
X138757703Y-106264529D01*
X138726103Y-106413194D01*
X138723981Y-106565164D01*
X138751417Y-106714653D01*
X138807367Y-106855965D01*
X138889699Y-106983719D01*
X138995277Y-107093048D01*
X139120079Y-107179788D01*
X139259353Y-107240635D01*
X139407793Y-107273272D01*
X139559745Y-107276455D01*
X139709421Y-107250063D01*
X139851121Y-107195101D01*
X139979446Y-107113663D01*
X140089510Y-107008851D01*
X140177119Y-106884657D01*
X140238937Y-106745812D01*
X140272609Y-106597603D01*
X140275033Y-106424007D01*
X140275033Y-108725000D01*
X137775033Y-108725000D01*
X137775033Y-106424007D01*
X137745513Y-106274916D01*
X137687595Y-106134399D01*
X137603488Y-106007807D01*
X137496394Y-105899963D01*
X137370392Y-105814974D01*
X137230283Y-105756077D01*
X137081402Y-105725516D01*
X136929420Y-105724455D01*
X136780127Y-105752934D01*
X136639208Y-105809869D01*
X136512032Y-105893091D01*
X136403443Y-105999429D01*
X136317576Y-106124834D01*
X136257703Y-106264529D01*
X136226103Y-106413194D01*
X136223981Y-106565164D01*
X136251417Y-106714653D01*
X136307367Y-106855965D01*
X136389699Y-106983719D01*
X136495277Y-107093048D01*
X136620079Y-107179788D01*
X136759353Y-107240635D01*
X136907793Y-107273272D01*
X137059745Y-107276455D01*
X137209421Y-107250063D01*
X137351121Y-107195101D01*
X137479446Y-107113663D01*
X137589510Y-107008851D01*
X137677119Y-106884657D01*
X137738937Y-106745812D01*
X137772609Y-106597603D01*
X137775033Y-106424007D01*
X137775033Y-108725000D01*
X135275033Y-108725000D01*
X135275033Y-106424007D01*
X135245513Y-106274916D01*
X135187595Y-106134399D01*
X135103488Y-106007807D01*
X134996394Y-105899963D01*
X134976089Y-105886267D01*
X134976089Y-92700000D01*
X134976089Y-90300000D01*
X134973121Y-90263489D01*
X134954175Y-90202899D01*
X134919131Y-90149964D01*
X134870753Y-90108859D01*
X134812854Y-90082824D01*
X134750000Y-90073911D01*
X132750000Y-90073911D01*
X132713489Y-90076879D01*
X132652899Y-90095825D01*
X132599964Y-90130869D01*
X132558859Y-90179247D01*
X132532824Y-90237146D01*
X132523911Y-90300000D01*
X132523911Y-92700000D01*
X132526879Y-92736511D01*
X132545825Y-92797101D01*
X132580869Y-92850036D01*
X132629247Y-92891141D01*
X132687146Y-92917176D01*
X132750000Y-92926089D01*
X134750000Y-92926089D01*
X134786511Y-92923121D01*
X134847101Y-92904175D01*
X134900036Y-92869131D01*
X134941141Y-92820753D01*
X134967176Y-92762854D01*
X134976089Y-92700000D01*
X134976089Y-105886267D01*
X134870392Y-105814974D01*
X134730283Y-105756077D01*
X134581402Y-105725516D01*
X134429420Y-105724455D01*
X134280127Y-105752934D01*
X134139208Y-105809869D01*
X134012032Y-105893091D01*
X133903443Y-105999429D01*
X133817576Y-106124834D01*
X133757703Y-106264529D01*
X133726103Y-106413194D01*
X133723981Y-106565164D01*
X133751417Y-106714653D01*
X133807367Y-106855965D01*
X133889699Y-106983719D01*
X133995277Y-107093048D01*
X134120079Y-107179788D01*
X134259353Y-107240635D01*
X134407793Y-107273272D01*
X134559745Y-107276455D01*
X134709421Y-107250063D01*
X134851121Y-107195101D01*
X134979446Y-107113663D01*
X135089510Y-107008851D01*
X135177119Y-106884657D01*
X135238937Y-106745812D01*
X135272609Y-106597603D01*
X135275033Y-106424007D01*
X135275033Y-108725000D01*
X131635455Y-108725000D01*
X131635455Y-91892876D01*
X131635455Y-91107124D01*
X131590715Y-90838620D01*
X131494452Y-90584003D01*
X131350365Y-90353059D01*
X131163992Y-90154662D01*
X130942495Y-89996437D01*
X130694385Y-89884464D01*
X130636194Y-89880349D01*
X130425000Y-89930757D01*
X130425000Y-91325000D01*
X131539177Y-91325000D01*
X131635455Y-91107124D01*
X131635455Y-91892876D01*
X131539177Y-91675000D01*
X130425000Y-91675000D01*
X130425000Y-93069243D01*
X130636194Y-93119651D01*
X130694385Y-93115536D01*
X130942495Y-93003563D01*
X131163992Y-92845338D01*
X131350365Y-92646941D01*
X131494452Y-92415997D01*
X131590715Y-92161380D01*
X131635455Y-91892876D01*
X131635455Y-108725000D01*
X131475000Y-108725000D01*
X131475000Y-104475000D01*
X131475000Y-102525000D01*
X130075000Y-102525000D01*
X130075000Y-93069243D01*
X130075000Y-91675000D01*
X130075000Y-91325000D01*
X130075000Y-89930757D01*
X129863806Y-89880349D01*
X129805615Y-89884464D01*
X129557505Y-89996437D01*
X129336008Y-90154662D01*
X129149635Y-90353059D01*
X129005548Y-90584003D01*
X128909285Y-90838620D01*
X128864545Y-91107124D01*
X128960823Y-91325000D01*
X130075000Y-91325000D01*
X130075000Y-91675000D01*
X128960823Y-91675000D01*
X128864545Y-91892876D01*
X128909285Y-92161380D01*
X129005548Y-92415997D01*
X129149635Y-92646941D01*
X129336008Y-92845338D01*
X129557505Y-93003563D01*
X129805615Y-93115536D01*
X129863806Y-93119651D01*
X130075000Y-93069243D01*
X130075000Y-102525000D01*
X123843198Y-102525000D01*
X122225000Y-100906802D01*
X122225000Y-98593198D01*
X123093198Y-97725000D01*
X124475000Y-97725000D01*
X124475000Y-95275000D01*
X123475106Y-95275000D01*
X123475106Y-89757314D01*
X123380830Y-89281185D01*
X123195869Y-88832436D01*
X122927268Y-88428159D01*
X122585258Y-88083753D01*
X122182866Y-87812336D01*
X121735419Y-87624247D01*
X121259960Y-87526649D01*
X120774599Y-87523260D01*
X120297824Y-87614210D01*
X119847794Y-87796034D01*
X119441652Y-88061806D01*
X119094867Y-88401403D01*
X118820647Y-88801891D01*
X118629439Y-89248014D01*
X118528524Y-89722780D01*
X118521747Y-90208105D01*
X118609366Y-90685503D01*
X118788044Y-91136791D01*
X119050974Y-91544779D01*
X119388142Y-91893927D01*
X119786705Y-92170935D01*
X120231482Y-92365254D01*
X120705532Y-92469480D01*
X121190798Y-92479645D01*
X121668797Y-92395361D01*
X122121321Y-92219839D01*
X122531135Y-91959763D01*
X122882628Y-91625041D01*
X123162412Y-91228421D01*
X123359831Y-90785011D01*
X123467364Y-90311701D01*
X123475106Y-89757314D01*
X123475106Y-95275000D01*
X122906802Y-95275000D01*
X120525000Y-97656802D01*
X120525000Y-101843198D01*
X123156802Y-104475000D01*
X131475000Y-104475000D01*
X131475000Y-108725000D01*
X123475106Y-108725000D01*
X123475106Y-105757314D01*
X123380830Y-105281185D01*
X123195869Y-104832436D01*
X122927268Y-104428159D01*
X122585258Y-104083753D01*
X122182866Y-103812336D01*
X121735419Y-103624247D01*
X121259960Y-103526649D01*
X120774599Y-103523260D01*
X120297824Y-103614210D01*
X119847794Y-103796034D01*
X119441652Y-104061806D01*
X119094867Y-104401403D01*
X118820647Y-104801891D01*
X118629439Y-105248014D01*
X118528524Y-105722780D01*
X118521747Y-106208105D01*
X118609366Y-106685503D01*
X118788044Y-107136791D01*
X119050974Y-107544779D01*
X119388142Y-107893927D01*
X119786705Y-108170935D01*
X120231482Y-108365254D01*
X120705532Y-108469480D01*
X121190798Y-108479645D01*
X121668797Y-108395361D01*
X122121321Y-108219839D01*
X122531135Y-107959763D01*
X122882628Y-107625041D01*
X123162412Y-107228421D01*
X123359831Y-106785011D01*
X123467364Y-106311701D01*
X123475106Y-105757314D01*
X123475106Y-108725000D01*
X118275000Y-108725000D01*
X118275000Y-87275000D01*
X149725000Y-87275000D01*
X149725000Y-108725000D01*
G36*
X131175000Y-104175000D02*
X123281066Y-104175000D01*
X120825000Y-101718934D01*
X120825000Y-97781066D01*
X123031066Y-95575000D01*
X124175000Y-95575000D01*
X124175000Y-97425000D01*
X122968934Y-97425000D01*
X121925000Y-98468934D01*
X121925000Y-101031066D01*
X123718934Y-102825000D01*
X131175000Y-102825000D01*
X131175000Y-104175000D01*
X131175000Y-104175000D01*
G37*
X131175000Y-104175000D02*
X123281066Y-104175000D01*
X120825000Y-101718934D01*
X120825000Y-97781066D01*
X123031066Y-95575000D01*
X124175000Y-95575000D01*
X124175000Y-97425000D01*
X122968934Y-97425000D01*
X121925000Y-98468934D01*
X121925000Y-101031066D01*
X123718934Y-102825000D01*
X131175000Y-102825000D01*
X131175000Y-104175000D01*
M02*
